<?xml version="1.0" standalone="no"?>
<!DOCTYPE svg PUBLIC "-//W3C//DTD SVG 1.1//EN" "http://www.w3.org/Graphics/SVG/1.1/DTD/svg11.dtd" >
<svg xmlns="http://www.w3.org/2000/svg" xmlns:xlink="http://www.w3.org/1999/xlink" version="1.1">
<metadata>
Created by FontForge 20161013 at Fri May  5 14:19:03 2017
 By ,,,
Copyright 2011 Canonical Ltd.  Licensed under the Ubuntu Font Licence 1.0
</metadata>
<defs>
<font id="Ubuntu-BoldItalic" horiz-adv-x="560" >
  <font-face 
    font-family="Ubuntu"
    font-weight="700"
    font-style="italic"
    font-stretch="normal"
    units-per-em="1000"
    panose-1="2 11 8 4 3 6 2 10 2 4"
    ascent="800"
    descent="-200"
    x-height="526"
    cap-height="693"
    bbox="-253 -221 3521 962"
    underline-thickness="120"
    underline-position="-303"
    slope="-13"
    unicode-range="U+0008-FB04"
  />
<missing-glyph horiz-adv-x="500" 
d="M50 0v750h400v-750h-400zM400 50v650h-300v-650h300z" />
    <glyph glyph-name="f_f" unicode="ff" horiz-adv-x="854" 
d="M478 776q45 0 78.5 -9.5t50.5 -17.5l-50 -117q-18 9 -41.5 13.5t-43.5 4.5q-55 0 -81.5 -28t-36.5 -70l-6 -26h176l-30 -122h-175l-61 -255q-34 -143 -74 -222.5t-88 -115.5l-133 19q26 24 48 59t39.5 74t30 79.5t20.5 75.5l104 436q25 106 90 164t183 58zM895 776
q45 0 78.5 -9.5t50.5 -17.5l-50 -117q-18 9 -41.5 13.5t-43.5 4.5q-55 0 -81.5 -28t-36.5 -70l-6 -26h176l-30 -122h-175l-61 -255q-34 -143 -74 -222.5t-88 -115.5l-133 19q26 24 48 59t39.5 74t30 79.5t20.5 75.5l104 436q25 106 90 164t183 58z" />
    <glyph glyph-name="f_i" unicode="fi" horiz-adv-x="702" 
d="M637 0h-148l125 526h149zM709 590q-31 0 -56 18.5t-25 56.5q0 21 8.5 39.5t22.5 32t32.5 21.5t39.5 8q31 0 56 -18.5t25 -56.5q0 -21 -8.5 -39.5t-22.5 -32t-32.5 -21.5t-39.5 -8zM479 776q45 0 73 -7t45 -15l-53 -116q-18 5 -34.5 8.5t-36.5 3.5q-55 0 -81.5 -28
t-36.5 -70l-6 -26h176l-30 -122h-175l-61 -255q-34 -143 -74 -222.5t-88 -115.5l-133 19q26 24 48 59t39.5 74t30 79.5t20.5 75.5l104 436q25 106 90 164t183 58z" />
    <glyph glyph-name="f_l" unicode="fl" horiz-adv-x="714" 
d="M687 -10q-71 0 -111.5 18.5t-58 50.5t-17 73.5t11.5 88.5l127 531l155 24l-139 -576q-4 -18 -4.5 -33t5.5 -26.5t20.5 -18.5t40.5 -9zM479 776q45 0 73 -7t45 -15l-53 -116q-18 5 -34.5 8.5t-36.5 3.5q-55 0 -81.5 -28t-36.5 -70l-6 -26h176l-30 -122h-175l-61 -255
q-34 -143 -74 -222.5t-88 -115.5l-133 19q26 24 48 59t39.5 74t30 79.5t20.5 75.5l104 436q25 106 90 164t183 58z" />
    <glyph glyph-name="f_f_i" unicode="ffi" horiz-adv-x="1120" 
d="M477 776q45 0 78.5 -9.5t50.5 -17.5l-50 -117q-18 9 -41.5 13.5t-43.5 4.5q-55 0 -81.5 -28t-36.5 -70l-6 -26h176l-30 -122h-175l-61 -255q-34 -143 -74 -222.5t-88 -115.5l-133 19q26 24 48 59t39.5 74t30 79.5t20.5 75.5l104 436q25 106 90 164t183 58zM1055 0h-148
l125 526h149zM1127 590q-31 0 -56 18.5t-25 56.5q0 21 8.5 39.5t22.5 32t32.5 21.5t39.5 8q31 0 56 -18.5t25 -56.5q0 -21 -8.5 -39.5t-22.5 -32t-32.5 -21.5t-39.5 -8zM897 776q45 0 73 -7t45 -15l-53 -116q-18 5 -34.5 8.5t-36.5 3.5q-55 0 -81.5 -28t-36.5 -70l-6 -26
h176l-30 -122h-175l-61 -255q-34 -143 -74 -222.5t-88 -115.5l-133 19q26 24 48 59t39.5 74t30 79.5t20.5 75.5l104 436q25 106 90 164t183 58z" />
    <glyph glyph-name="f_f_l" unicode="ffl" horiz-adv-x="1153" 
d="M477 776q45 0 78.5 -9.5t50.5 -17.5l-50 -117q-18 9 -41.5 13.5t-43.5 4.5q-55 0 -81.5 -28t-36.5 -70l-6 -26h176l-30 -122h-175l-61 -255q-34 -143 -74 -222.5t-88 -115.5l-133 19q26 24 48 59t39.5 74t30 79.5t20.5 75.5l104 436q25 106 90 164t183 58zM1106 -10
q-71 0 -111.5 18.5t-58 50.5t-17 73.5t11.5 88.5l127 531l155 24l-139 -576q-4 -18 -4.5 -33t5.5 -26.5t20.5 -18.5t40.5 -9zM898 776q45 0 73 -7t45 -15l-53 -116q-18 5 -34.5 8.5t-36.5 3.5q-55 0 -81.5 -28t-36.5 -70l-6 -26h176l-30 -122h-175l-61 -255
q-34 -143 -74 -222.5t-88 -115.5l-133 19q26 24 48 59t39.5 74t30 79.5t20.5 75.5l104 436q25 106 90 164t183 58z" />
    <glyph glyph-name=".notdef" horiz-adv-x="500" 
d="M50 0v750h400v-750h-400zM400 50v650h-300v-650h300z" />
    <glyph glyph-name=".null" horiz-adv-x="0" 
 />
    <glyph glyph-name=".null" horiz-adv-x="0" 
 />
    <glyph glyph-name=".null" horiz-adv-x="0" 
 />
    <glyph glyph-name="nonmarkingreturn" unicode="&#x9;" horiz-adv-x="240" 
 />
    <glyph glyph-name="nonmarkingreturn" unicode="&#xd;" horiz-adv-x="240" 
 />
    <glyph glyph-name="space" unicode=" " horiz-adv-x="240" 
 />
    <glyph glyph-name="exclam" unicode="!" horiz-adv-x="295" 
d="M348 514q-20 -81 -42.5 -151t-49.5 -142h-114q8 72 18 142t29 151l43 179h159zM180 171q35 0 58.5 -20t23.5 -61q0 -23 -8.5 -42t-22.5 -32.5t-32 -21t-37 -7.5q-35 0 -58.5 20t-23.5 61q0 23 8.5 42t22.5 32.5t32 21t37 7.5z" />
    <glyph glyph-name="quotedbl" unicode="&#x22;" horiz-adv-x="492" 
d="M374 760l-18 -74q-11 -48 -32.5 -105t-44.5 -115h-99q4 58 11 115t18 106l18 73h147zM592 760l-18 -74q-11 -48 -32.5 -105t-44.5 -115h-99q4 58 11 115t18 106l18 73h147z" />
    <glyph glyph-name="numbersign" unicode="#" horiz-adv-x="660" 
d="M379 170h-111l-71 -170h-128l71 170h-69l28 115h89l51 123h-110l28 115h130l72 170h128l-72 -170h111l72 170h128l-72 -170h70l-28 -115h-90l-51 -123h111l-28 -115h-131l-71 -170h-128zM316 285h111l51 123h-111z" />
    <glyph glyph-name="dollar" unicode="$" horiz-adv-x="568" 
d="M282 129q21 0 42.5 2.5t38.5 10t27.5 22t10.5 38.5q0 16 -7 28t-19 22t-27.5 18.5t-31.5 16.5l-26 13q-64 32 -92.5 80t-28.5 100q0 33 12 64.5t36.5 57.5t63 43.5t91.5 23.5l27 107h126l-28 -110q38 -8 69.5 -21.5t51.5 -26.5l-60 -106q-26 20 -63 30.5t-72 10.5
q-43 0 -74 -16t-31 -50q0 -14 4 -25t13.5 -21t25.5 -20.5t41 -22.5q29 -15 55.5 -31.5t47 -38.5t33 -50t12.5 -66q0 -47 -15 -82t-42.5 -60t-66 -39.5t-85.5 -19.5l-29 -120h-126l30 122q-54 8 -92 25t-56 30l61 110q11 -8 27 -16.5t36 -15.5t43 -12t47 -5z" />
    <glyph glyph-name="percent" unicode="%" horiz-adv-x="870" 
d="M281 417q16 0 31 9.5t26.5 28t18.5 44.5t7 59q0 27 -13.5 41.5t-34.5 14.5q-16 0 -31.5 -10t-27.5 -28t-19.5 -44.5t-7.5 -59.5q0 -27 15 -41t36 -14zM712 693h144l-558 -693h-144zM324 709q33 0 60.5 -9t47.5 -27.5t31 -46t11 -64.5q0 -57 -17 -101.5t-45.5 -75.5
t-65.5 -47.5t-76 -16.5q-33 0 -60.5 9t-47.5 27.5t-31 46t-11 64.5q0 57 17 101.5t45.5 75.5t65.5 47.5t76 16.5zM697 80q16 0 31 9.5t26.5 28t18.5 44.5t7 59q0 27 -13.5 41.5t-34.5 14.5q-16 0 -31.5 -10t-27.5 -28t-19.5 -44.5t-7.5 -59.5q0 -27 15 -41t36 -14zM740 372
q33 0 60.5 -9t47.5 -27.5t31 -46t11 -64.5q0 -57 -17 -101.5t-45.5 -75.5t-65.5 -47.5t-76 -16.5q-33 0 -60.5 9t-47.5 27.5t-31 46t-11 64.5q0 57 17 101.5t45.5 75.5t65.5 47.5t76 16.5z" />
    <glyph glyph-name="ampersand" unicode="&#x26;" horiz-adv-x="663" 
d="M80 157q0 75 39 129.5t126 93.5l17 8q-20 33 -29.5 65.5t-9.5 63.5q0 40 15.5 75.5t45 61t71 40.5t93.5 15q43 0 76 -11.5t54.5 -30.5t32.5 -44.5t11 -53.5q0 -25 -9 -52t-26.5 -53t-44.5 -49t-63 -39l-37 -17l84 -112q25 41 46 101l131 -17q-43 -109 -101 -184
q26 -37 46.5 -74t37.5 -73h-151q-6 13 -13.5 27t-15.5 29q-95 -65 -217 -65q-53 0 -92.5 14t-65.5 37.5t-38.5 53t-12.5 61.5zM308 107q26 0 60 8.5t72 34.5l-117 154l-15 -7q-42 -19 -61 -50t-19 -61q0 -32 20.5 -55.5t59.5 -23.5zM355 513q0 -28 26 -71l12 5
q48 22 74.5 47.5t26.5 60.5q0 19 -14 33.5t-44 14.5t-55.5 -22.5t-25.5 -67.5z" />
    <glyph glyph-name="quotesingle" unicode="'" horiz-adv-x="274" 
d="M374 760l-18 -74q-11 -48 -32.5 -105t-44.5 -115h-99q4 58 11 115t18 106l18 73h147z" />
    <glyph glyph-name="parenleft" unicode="(" horiz-adv-x="356" 
d="M501 716q-57 -62 -104 -130.5t-81 -142.5t-53 -152.5t-19 -159.5q0 -63 12 -124.5t38 -124.5l-110 -67q-45 75 -65.5 155t-20.5 165q0 90 22.5 179t63 172.5t97 159t124.5 137.5z" />
    <glyph glyph-name="parenright" unicode=")" horiz-adv-x="356" 
d="M-24 -117q57 61 104.5 129.5t81 143t52.5 153t19 159.5q0 63 -12 124.5t-38 124.5l110 67q45 -75 65.5 -155t20.5 -165q0 -90 -22.5 -179t-63 -172.5t-97 -159t-124.5 -137.5z" />
    <glyph glyph-name="asterisk" unicode="*" horiz-adv-x="502" 
d="M373 536q10 9 25 19.5t30.5 21t31.5 19t28 12.5l24 8l40 -124l-24 -8q-13 -4 -30 -6t-36 -2.5t-37 -0.5h-32q12 -8 26.5 -18.5t29 -22t27.5 -23.5t21 -23l16 -21l-106 -75l-15 20q-8 10 -15.5 26t-14.5 33.5t-12 34.5t-9 31q-4 -14 -9 -31t-12 -34.5t-14.5 -33.5
t-15.5 -26l-15 -20l-106 75l16 21q8 11 21 23t27.5 23.5t29 22t26.5 18.5h-32t-37 0.5t-36 2.5t-30 6l-24 8l40 124l24 -8q12 -4 28 -12.5t31.5 -19t30 -21t25.5 -19.5q-5 13 -10.5 30.5t-10.5 35.5t-8.5 35.5t-3.5 30.5v25h130v-25q0 -13 -3.5 -30.5t-8.5 -35.5
t-10.5 -35.5t-10.5 -30.5z" />
    <glyph glyph-name="plus" unicode="+" horiz-adv-x="568" 
d="M126 361h167l44 185h136l-44 -185h167l-31 -125h-167l-44 -185h-136l44 185h-167z" />
    <glyph glyph-name="comma" unicode="," horiz-adv-x="251" 
d="M241 152q-3 -87 -43.5 -165t-98.5 -150l-109 29q38 66 64 137t31 149h156z" />
    <glyph glyph-name="hyphen" unicode="-" horiz-adv-x="343" 
d="M106 366h290l-33 -135h-290z" />
    <glyph glyph-name="period" unicode="." horiz-adv-x="252" 
d="M160 171q35 0 58.5 -19.5t23.5 -61.5q0 -23 -8.5 -42t-22.5 -32.5t-32 -21t-37 -7.5q-35 0 -58.5 19.5t-23.5 61.5q0 23 8.5 42t22.5 32.5t32 21t37 7.5z" />
    <glyph glyph-name="slash" unicode="/" horiz-adv-x="436" 
d="M62 -185h-152l560 968h151z" />
    <glyph glyph-name="zero" unicode="0" horiz-adv-x="568" 
d="M298 114q32 0 59 19t47.5 50t36 70.5t25.5 80.5t15 80t5 69q0 51 -15.5 75t-47.5 24q-33 0 -60 -19t-48 -50t-36.5 -71t-25.5 -81t-15 -80t-5 -69q0 -52 16 -75t49 -23zM275 -14q-49 0 -83 17.5t-55.5 46.5t-31 65.5t-9.5 75.5q0 114 25.5 209t71 164t109.5 107t142 38
q49 0 83 -17.5t55.5 -46.5t31 -65.5t9.5 -75.5q0 -114 -25.5 -209t-71 -164t-109.5 -107t-142 -38z" />
    <glyph glyph-name="one" unicode="1" horiz-adv-x="568" 
d="M200 549q32 12 67 27.5t69.5 34t67.5 39t60 43.5h104l-167 -693h-149l120 499q-35 -20 -76 -36.5t-78 -28.5z" />
    <glyph glyph-name="two" unicode="2" horiz-adv-x="568" 
d="M435 709q40 0 74.5 -13t60 -35.5t39.5 -52.5t14 -64q0 -38 -8 -68t-27 -58t-50.5 -57t-77.5 -65q-27 -21 -54.5 -40t-54 -39t-51.5 -42.5t-47 -50.5h298l-30 -124h-461q9 63 31 109t54.5 83.5t73.5 70t89 69.5q45 35 76.5 60.5t51 47t28.5 40.5t9 40q0 26 -18.5 43.5
t-47.5 17.5q-41 0 -80 -17.5t-85 -52.5l-51 109q60 49 120 69t124 20z" />
    <glyph glyph-name="three" unicode="3" horiz-adv-x="568" 
d="M474 368q42 -20 65 -61.5t23 -90.5q0 -41 -17 -82t-54 -74t-94 -53.5t-137 -20.5q-114 0 -205 47l54 118q29 -20 72 -32.5t88 -12.5q28 0 54.5 6t46.5 20t32 36t12 54q0 41 -33.5 62t-89.5 21h-64l29 118h72q21 0 44 4t42 14.5t31.5 28t12.5 45.5q0 35 -24 51.5t-63 16.5
q-31 0 -68.5 -11t-77.5 -32l-38 112q49 28 101 42.5t108 14.5q53 0 93 -14.5t66.5 -38.5t39.5 -54.5t13 -62.5q0 -26 -8.5 -51.5t-25 -48t-42 -41t-58.5 -30.5z" />
    <glyph glyph-name="four" unicode="4" horiz-adv-x="568" 
d="M455 517q-26 -25 -54.5 -54t-57.5 -60.5t-56.5 -64t-51.5 -63.5h162zM638 693l-101 -418h73l-29 -120h-74l-38 -155h-142l37 155h-297l25 110q32 44 78 99.5t100 113.5t112 114t114 101h142z" />
    <glyph glyph-name="five" unicode="5" horiz-adv-x="568" 
d="M118 154q35 -21 75 -32t77 -11q72 0 110 27t38 84q0 24 -13 43.5t-42 33t-77.5 21t-118.5 7.5q33 93 63 187.5t53 178.5h370l-30 -124h-247q-10 -36 -21.5 -72.5t-20.5 -61.5q60 -5 103.5 -22.5t72 -44.5t42.5 -61.5t14 -73.5q0 -56 -18.5 -102t-55.5 -78t-92 -49.5
t-127 -17.5q-21 0 -48 3t-55.5 8.5t-56 14.5t-50.5 21z" />
    <glyph glyph-name="six" unicode="6" horiz-adv-x="568" 
d="M631 581q-62 -2 -115.5 -9t-98 -26t-78 -51t-55.5 -83q26 14 60.5 20.5t64.5 6.5q37 0 69.5 -11.5t57 -35t38.5 -58.5t14 -81q0 -65 -21 -114.5t-57 -83.5t-84 -51.5t-101 -17.5q-47 0 -87 16t-69.5 46.5t-46.5 76t-17 105.5q0 88 30 172.5t92 150.5t157 106.5t225 40.5
h18.5t21.5 -1zM446 243q0 48 -26 66t-62 18q-25 0 -50.5 -6.5t-47.5 -15.5q-13 -38 -13 -78q0 -48 22 -82.5t68 -34.5q48 0 78.5 35t30.5 98z" />
    <glyph glyph-name="seven" unicode="7" horiz-adv-x="568" 
d="M135 0q19 74 55 153.5t81 155t95 142.5t97 116h-301l31 126h485l-26 -108q-38 -32 -90.5 -93t-105.5 -139.5t-99 -169t-71 -183.5h-151z" />
    <glyph glyph-name="eight" unicode="8" horiz-adv-x="568" 
d="M93 157q0 30 8.5 57.5t27 53.5t47.5 50.5t70 49.5q-24 23 -40.5 52.5t-16.5 71.5q0 39 14.5 78t45 70t76.5 50t109 19q42 0 78 -12t62 -33.5t41 -52.5t15 -68q0 -22 -5 -46.5t-20 -49t-42.5 -49.5t-72.5 -47q17 -12 32 -26t26 -32t17.5 -40t6.5 -50q0 -45 -17.5 -84.5
t-51 -69t-83.5 -46.5t-114 -17q-37 0 -75 8.5t-68.5 29t-50 53t-19.5 80.5zM428 199q0 20 -7 35.5t-19.5 28.5t-29 23.5t-35.5 20.5q-31 -15 -50.5 -31.5t-31 -33.5t-15.5 -34t-4 -33q0 -35 24.5 -52.5t59.5 -17.5q21 0 40.5 6.5t34.5 18.5t24 29.5t9 39.5zM326 501
q0 -32 20 -54t48 -39q58 27 77.5 56.5t19.5 57.5q0 32 -20 50t-55 18q-41 0 -65.5 -26t-24.5 -63z" />
    <glyph glyph-name="nine" unicode="9" horiz-adv-x="568" 
d="M95 115q62 1 115.5 8.5t98 26.5t78 51t55.5 83q-26 -14 -60.5 -20.5t-64.5 -6.5q-37 0 -69.5 11.5t-57 35t-38.5 58t-14 81.5q0 64 21 114t57 84t84 51.5t101 17.5q46 0 86.5 -16t70 -46.5t46.5 -76t17 -105.5q0 -88 -30 -172.5t-92 -150.5t-157 -106.5t-225 -40.5h-18.5
t-21.5 1zM280 453q0 -48 26 -66t62 -18q25 0 50.5 6.5t47.5 15.5q13 38 13 78q0 48 -22 82.5t-68 34.5q-48 0 -78.5 -35t-30.5 -98z" />
    <glyph glyph-name="colon" unicode=":" horiz-adv-x="252" 
d="M235 526q35 0 58.5 -19.5t23.5 -61.5q0 -23 -8.5 -42t-22.5 -32.5t-32 -21t-37 -7.5q-35 0 -58.5 19.5t-23.5 61.5q0 23 8.5 42t22.5 32.5t32 21t37 7.5zM160 171q35 0 58.5 -19.5t23.5 -61.5q0 -23 -8.5 -42t-22.5 -32.5t-32 -21t-37 -7.5q-35 0 -58.5 19.5t-23.5 61.5
q0 23 8.5 42t22.5 32.5t32 21t37 7.5z" />
    <glyph glyph-name="semicolon" unicode=";" horiz-adv-x="252" 
d="M235 526q35 0 58.5 -19.5t23.5 -61.5q0 -23 -8.5 -42t-22.5 -32.5t-32 -21t-37 -7.5q-35 0 -58.5 19.5t-23.5 61.5q0 23 8.5 42t22.5 32.5t32 21t37 7.5zM245 152q-3 -87 -43.5 -165t-98.5 -150l-109 29q38 66 64 137t31 149h156z" />
    <glyph glyph-name="less" unicode="&#x3c;" horiz-adv-x="568" 
d="M121 361l474 181l10 -124l-346 -120l284 -131l-63 -111l-386 188z" />
    <glyph glyph-name="equal" unicode="=" horiz-adv-x="568" 
d="M104 251h470l-30 -125h-470zM157 470h470l-30 -125h-470z" />
    <glyph glyph-name="greater" unicode="&#x3e;" horiz-adv-x="568" 
d="M552 237l-474 -181l-10 125l346 120l-284 131l63 110l386 -188z" />
    <glyph glyph-name="question" unicode="?" horiz-adv-x="430" 
d="M292 407q30 23 51 40t34.5 31.5t20 27.5t6.5 27q0 26 -18.5 38t-46.5 12q-18 0 -38 -3.5t-39 -9.5t-36 -13t-30 -14l-19 117q39 22 89.5 35.5t101.5 13.5q36 0 69 -9t58 -27.5t40 -46t15 -63.5q0 -43 -13.5 -75t-34.5 -57t-47.5 -45.5t-52.5 -40.5q-38 -29 -67 -58
t-32 -66h-132q0 31 9.5 57t26 48t38.5 42t47 39zM223 171q35 0 58.5 -19.5t23.5 -61.5q0 -23 -8.5 -42t-22.5 -32.5t-32 -21t-37 -7.5q-35 0 -58.5 19.5t-23.5 61.5q0 23 8.5 42t22.5 32.5t32 21t37 7.5z" />
    <glyph glyph-name="at" unicode="@" horiz-adv-x="941" 
d="M647 -146q-42 -8 -86.5 -13t-82.5 -5q-88 0 -158 24t-119 68.5t-75 108t-26 141.5q0 130 44.5 231t118.5 169.5t169 104t197 35.5q69 0 132 -19.5t111.5 -59.5t77.5 -101t29 -145q0 -67 -16.5 -132.5t-51.5 -117t-89 -83.5t-128 -32q-26 0 -49 10t-38 29
q-35 -20 -68.5 -29.5t-71.5 -9.5q-79 0 -123 52t-44 137q0 49 20 102t59 96.5t97.5 71.5t136.5 28q60 0 99 -10.5t66 -21.5l-71 -296q-2 -5 -2 -9v-8q0 -17 11 -24.5t28 -7.5q26 0 48 18.5t38 51t25 77t9 96.5q0 63 -19.5 108.5t-53.5 74t-79 42t-97 13.5
q-72 0 -143.5 -27.5t-128 -82t-91.5 -137t-35 -191.5q0 -71 22.5 -118t60.5 -75t88.5 -40t107.5 -12q35 0 78 5t79 12zM572 157q1 8 3 18t5 24l49 206q-17 4 -41 4q-41 0 -70 -17t-48.5 -43.5t-28.5 -58.5t-9 -61q0 -45 16 -68.5t54 -23.5q30 0 70 20z" />
    <glyph glyph-name="A" unicode="A" horiz-adv-x="714" 
d="M532 0q-2 39 -4.5 76.5t-5.5 74.5h-260q-20 -37 -42 -74.5t-42 -76.5h-163q65 112 121.5 207t109 179t102.5 159.5t102 147.5h139q16 -72 30.5 -159.5t27 -179t23 -183t19.5 -171.5h-157zM486 541q-42 -67 -82.5 -133t-78.5 -135h187q-5 61 -10.5 130t-15.5 138z" />
    <glyph glyph-name="B" unicode="B" horiz-adv-x="658" 
d="M312 -9q-60 0 -123 5t-114 16l160 670q57 11 119.5 15t114.5 4q60 0 103.5 -12.5t71 -33.5t41 -49.5t13.5 -60.5q0 -22 -4.5 -46t-18 -47.5t-37 -44.5t-61.5 -38q45 -20 66 -54.5t21 -76.5q0 -48 -19 -92.5t-61 -79t-109 -55t-163 -20.5zM298 303l-43 -180
q16 -3 40.5 -4.5t45.5 -1.5q30 0 59.5 4.5t53 16.5t38.5 33t15 54q0 14 -5.5 28t-17.5 25t-31.5 18t-46.5 7h-108zM327 420h98q60 0 89.5 26t29.5 62q0 19 -8.5 32.5t-22.5 21.5t-32 11.5t-37 3.5q-21 0 -45 -1.5t-36 -3.5z" />
    <glyph glyph-name="C" unicode="C" horiz-adv-x="638" 
d="M614 30q-41 -20 -91 -32t-122 -12q-62 0 -113.5 20.5t-88 58.5t-56.5 92.5t-20 122.5q0 78 27.5 155t81 137.5t131 98.5t178.5 38q48 0 94.5 -11t97.5 -39l-56 -121q-42 22 -75 30t-71 8q-57 0 -102.5 -23t-78 -62.5t-49.5 -91.5t-17 -110q0 -88 38.5 -128t110.5 -40
q48 0 88.5 10t75.5 26z" />
    <glyph glyph-name="D" unicode="D" horiz-adv-x="718" 
d="M257 125q11 -1 22.5 -1.5t31.5 -0.5q65 0 117.5 20t89 57.5t56.5 92t20 122.5q0 35 -9 63.5t-29.5 49t-53 31.5t-78.5 11q-30 0 -61 -3zM754 423q0 -101 -33 -181t-94.5 -135.5t-149.5 -85.5t-199 -30q-42 0 -97 5t-106 16l161 669q57 11 109.5 15.5t94.5 4.5
q74 0 132.5 -20t99 -57t61.5 -88t21 -113z" />
    <glyph glyph-name="E" unicode="E" horiz-adv-x="594" 
d="M75 0l166 693h453l-32 -128h-297l-32 -140h262l-31 -126h-262l-40 -170h320l-32 -129h-475z" />
    <glyph glyph-name="F" unicode="F" horiz-adv-x="575" 
d="M75 0l166 693h449l-32 -129h-293l-35 -148h259l-31 -129h-259l-69 -287h-155z" />
    <glyph glyph-name="G" unicode="G" horiz-adv-x="688" 
d="M429 120q20 0 36 1.5t29 3.5l58 241h156l-84 -347q-28 -11 -81 -21.5t-135 -10.5q-70 0 -123.5 20.5t-89.5 58.5t-54 92t-18 122q0 78 27.5 155t81.5 137.5t134 98.5t184 38q48 0 101.5 -14t96.5 -42l-56 -121q-35 22 -74.5 33t-77.5 11q-61 0 -108.5 -23t-80.5 -62.5
t-50 -91.5t-17 -110q0 -88 36.5 -128.5t108.5 -40.5z" />
    <glyph glyph-name="H" unicode="H" horiz-adv-x="714" 
d="M643 693h156l-167 -693h-156l71 295h-246l-71 -295h-155l166 693h156l-64 -266h246z" />
    <glyph glyph-name="I" unicode="I" horiz-adv-x="312" 
d="M241 693h156l-167 -693h-155z" />
    <glyph glyph-name="J" unicode="J" horiz-adv-x="516" 
d="M485 210q-12 -51 -32 -92.5t-52 -71t-79 -45t-114 -15.5q-54 0 -102.5 16.5t-85.5 44.5l69 116q24 -17 52.5 -30t67.5 -13q28 0 48.5 6.5t35.5 21t25.5 37.5t18.5 56l108 452h156z" />
    <glyph glyph-name="K" unicode="K" horiz-adv-x="662" 
d="M483 0q-14 34 -33.5 73t-43 78t-50.5 75t-55 64l-71 -290h-155l166 693h156l-61 -250q78 67 147 128.5t129 121.5h185q-91 -85 -180.5 -168.5t-188.5 -162.5q63 -69 121 -158t104 -204h-170z" />
    <glyph glyph-name="L" unicode="L" horiz-adv-x="564" 
d="M569 132l-32 -132h-462l166 693h156l-135 -561h307z" />
    <glyph glyph-name="M" unicode="M" horiz-adv-x="878" 
d="M416 693q6 -27 15.5 -76.5t20 -109t21.5 -122t20 -114.5q34 52 74 112t79 118t74 108.5t60 83.5h138q-7 -69 -18.5 -155t-26 -178t-30.5 -185t-32 -175h-152q21 102 44.5 220.5t43.5 239.5q-26 -41 -58 -91.5t-64 -102t-62 -98.5t-52 -80h-114q-5 30 -12 76t-15.5 97.5
t-17.5 104t-17 94.5q-39 -121 -70.5 -239.5t-58.5 -220.5h-151q23 82 50.5 175t57 185.5t58.5 178.5t55 154h140z" />
    <glyph glyph-name="N" unicode="N" horiz-adv-x="742" 
d="M543 0q-42 118 -93.5 236t-111.5 223l-110 -459h-153l166 693h119q23 -35 49.5 -82.5t54.5 -102.5t56 -114.5t53 -117.5l99 417h155l-167 -693h-117z" />
    <glyph glyph-name="O" unicode="O" horiz-adv-x="757" 
d="M500 575q-46 0 -85.5 -24t-69 -64t-46 -92t-16.5 -107q0 -75 31.5 -121.5t102.5 -46.5q46 0 85.5 24t69 64t46 91.5t16.5 107.5q0 75 -31.5 121.5t-102.5 46.5zM401 -14q-61 0 -112 20t-88 57.5t-57.5 91.5t-20.5 122q0 78 27 155t77.5 138.5t123.5 100t165 38.5
q61 0 112 -20t88 -57.5t57.5 -91.5t20.5 -122q0 -78 -26.5 -155.5t-77 -139t-123.5 -99.5t-166 -38z" />
    <glyph glyph-name="P" unicode="P" horiz-adv-x="639" 
d="M432 701q63 0 113.5 -13.5t85.5 -39t54 -62.5t19 -83q0 -75 -29 -127t-80 -84t-120 -46t-150 -14h-39l-56 -232h-155l163 683q54 10 102.5 14t91.5 4zM419 570q-17 0 -29 -1l-24 -2l-48 -204h39q42 0 76.5 6.5t59 21.5t38 38.5t13.5 57.5q0 45 -32.5 64t-92.5 19z" />
    <glyph glyph-name="Q" unicode="Q" horiz-adv-x="756" 
d="M610 -187q-79 3 -132 16t-85.5 34.5t-46.5 52.5t-14 70v7q-96 20 -152.5 93t-56.5 191q0 78 27 155t77.5 138.5t123.5 100t165 38.5q61 0 112 -20t88 -57.5t57.5 -91.5t20.5 -122q0 -69 -21 -138.5t-61.5 -128t-99 -100.5t-133.5 -57v-3q0 -22 14.5 -35t39 -20t56.5 -10
t67 -5zM500 575q-46 0 -85.5 -24t-69 -64t-46 -92t-16.5 -107q0 -75 31.5 -121.5t102.5 -46.5q46 0 85.5 24t69 64t46 91.5t16.5 107.5q0 75 -31.5 121.5t-102.5 46.5z" />
    <glyph glyph-name="R" unicode="R" horiz-adv-x="656" 
d="M436 701q67 0 117 -16t83 -43t49 -63.5t16 -76.5q0 -33 -7.5 -65t-28 -61t-55 -53.5t-88.5 -41.5q28 -52 57.5 -126t55.5 -155h-167q-23 69 -46.5 136.5t-52.5 116.5h-78l-61 -253h-155l163 683q54 10 105 14t93 4zM431 569q-17 0 -35 -1t-30 -2l-45 -190h53q48 0 81 9
t53 24t28.5 34.5t8.5 39.5q0 17 -5 32.5t-18 27.5t-35 19t-56 7z" />
    <glyph glyph-name="S" unicode="S" horiz-adv-x="559" 
d="M269 116q23 0 46 3.5t41 12.5t29.5 25.5t11.5 42.5q0 20 -11 34.5t-28 26.5t-38 22t-42 22q-27 16 -51 34t-41 40.5t-27 50t-10 63.5q0 46 17.5 85.5t52 68.5t86.5 45.5t122 16.5q32 0 62 -5.5t56 -13.5t47.5 -18.5t36.5 -20.5l-65 -115q-25 19 -61 32t-78 13
q-23 0 -44 -4t-37 -13.5t-25.5 -24.5t-9.5 -37q0 -20 7.5 -33.5t19.5 -23.5t28 -18l34 -17q31 -16 60 -34t51 -41.5t35 -53.5t13 -71q0 -57 -21 -99t-59 -70t-90.5 -41.5t-116.5 -13.5q-42 0 -78.5 7t-66 16.5t-51 20.5t-34.5 20l66 119q12 -8 29 -17t38.5 -17t45.5 -13.5
t50 -5.5z" />
    <glyph glyph-name="T" unicode="T" horiz-adv-x="594" 
d="M739 693l-32 -131h-203l-135 -562h-156l135 562h-203l32 131h562z" />
    <glyph glyph-name="U" unicode="U" horiz-adv-x="683" 
d="M668 252q-34 -141 -110.5 -203.5t-202.5 -62.5q-65 0 -109.5 15.5t-72.5 43t-40.5 66t-12.5 83.5q0 52 15 111l93 388h156l-98 -410q-10 -36 -10 -73q0 -20 4.5 -36t16 -28t31 -18.5t48.5 -6.5q60 0 91 37.5t48 106.5l102 428h156z" />
    <glyph glyph-name="V" unicode="V" horiz-adv-x="688" 
d="M268 0q-16 85 -30.5 176t-27.5 181t-23 175.5t-17 160.5h167q3 -57 7.5 -122.5t10.5 -132t12.5 -132t13.5 -122.5q31 52 66.5 114t72 129t72 135t65.5 131h166q-38 -72 -83 -155t-96.5 -172t-109 -181.5t-120.5 -184.5h-146z" />
    <glyph glyph-name="W" unicode="W" horiz-adv-x="936" 
d="M667 619q2 -41 5.5 -93t8 -107.5t9.5 -110.5t10 -102q26 51 53 110t54 122t53.5 128t50.5 127h165q-78 -190 -159 -361.5t-174 -331.5h-146q-8 55 -14.5 105.5t-12 99.5t-10 99t-8.5 104q-57 -106 -112.5 -207.5t-118.5 -200.5h-146q-8 93 -11.5 184t-3.5 185
q0 81 3 161.5t8 162.5h157q-5 -88 -9.5 -172.5t-4.5 -175.5v-69t2 -70q28 49 59 104t61 110t57 106.5t46 92.5h128z" />
    <glyph glyph-name="X" unicode="X" horiz-adv-x="669" 
d="M487 0q-14 43 -25.5 76t-22 61.5t-21.5 54t-24 53.5l-201 -245h-178l315 377l-141 316h172l83 -214q45 54 87 109.5t77 104.5h171q-29 -41 -61.5 -84.5t-67 -87t-69.5 -85t-68 -78.5q21 -47 39.5 -89t35.5 -84.5t33 -87.5t33 -97h-167z" />
    <glyph glyph-name="Y" unicode="Y" horiz-adv-x="652" 
d="M413 408q29 37 55.5 71.5t51.5 69t49.5 70t50.5 74.5h172q-42 -59 -81 -112t-78 -103.5t-80 -100.5t-87 -103l-66 -274h-156l66 274q-42 106 -76 207t-64 212h166q16 -72 35 -141t42 -144z" />
    <glyph glyph-name="Z" unicode="Z" horiz-adv-x="638" 
d="M712 585q-40 -34 -96 -86.5t-117 -114t-122 -127.5t-111 -126h348l-32 -131h-537l23 93q40 53 94 115.5t112.5 125.5t117.5 122t109 106h-306l32 131h511z" />
    <glyph glyph-name="bracketleft" unicode="[" horiz-adv-x="373" 
d="M262 783h271l-29 -119h-129l-175 -730h129l-29 -119h-270z" />
    <glyph glyph-name="backslash" unicode="\" horiz-adv-x="406" 
d="M150 783h143l103 -968h-143z" />
    <glyph glyph-name="bracketright" unicode="]" horiz-adv-x="373" 
d="M232 -185h-270l29 119h128l175 730h-129l29 119h271z" />
    <glyph glyph-name="asciicircum" unicode="^" horiz-adv-x="568" 
d="M620 347l-130 -55l-78 247l-202 -243l-106 65l281 336h118z" />
    <glyph glyph-name="underscore" unicode="_" horiz-adv-x="503" 
d="M-2 -61h500l-29 -124h-499z" />
    <glyph glyph-name="grave" unicode="`" horiz-adv-x="247" 
d="M246 799l135 -165l-64 -58l-163 144z" />
    <glyph glyph-name="a" unicode="a" horiz-adv-x="588" 
d="M563 227q-14 -57 -8 -114.5t23 -102.5l-133 -19q-6 12 -11 23t-10 25q-28 -23 -62 -38t-76 -15q-50 0 -85.5 17.5t-58 47t-32.5 69t-10 84.5q0 69 24.5 130t68 106.5t102.5 71.5t128 26q9 0 31.5 -1t51.5 -4.5t61 -11.5t61 -22zM459 411q-13 2 -23.5 3t-25.5 1
q-34 0 -63.5 -17t-51.5 -44.5t-34.5 -63.5t-12.5 -75q0 -48 16 -76t59 -28q23 0 41.5 9t39.5 30q2 25 6.5 52.5t9.5 50.5z" />
    <glyph glyph-name="b" unicode="b" horiz-adv-x="575" 
d="M419 537q48 0 83 -17t58 -46t34 -68t11 -84q0 -69 -25.5 -130.5t-69.5 -107t-104 -72t-130 -26.5q-9 0 -31.5 0.5t-51.5 4.5t-61.5 12t-61.5 22l173 727l155 24l-62 -258q20 9 40 14t43 5zM289 109q35 0 66 17t53.5 45.5t35.5 64.5t13 75q0 48 -16 75t-59 27
q-14 0 -36.5 -5t-40.5 -21l-66 -274q6 -1 10.5 -2t9.5 -1.5t12 -0.5h18z" />
    <glyph glyph-name="c" unicode="c" horiz-adv-x="480" 
d="M100 210q0 68 22 128t63 105t99.5 71t130.5 26q45 0 80.5 -8.5t64.5 -22.5l-51 -116q-20 8 -41.5 14.5t-52.5 6.5q-75 0 -118 -50.5t-43 -137.5q0 -51 22 -82.5t81 -31.5q29 0 56 6t48 15l11 -119q-28 -11 -61.5 -19.5t-81.5 -8.5q-62 0 -105 18t-71 48.5t-40.5 71.5
t-12.5 86z" />
    <glyph glyph-name="d" unicode="d" horiz-adv-x="590" 
d="M287 -14q-50 0 -85.5 17t-58 46.5t-33 69t-10.5 84.5q0 68 24.5 128.5t67.5 105.5t102 71t129 26q18 0 33.5 -2t31.5 -6l54 226l155 24l-132 -549q-14 -57 -8 -114.5t23 -102.5l-133 -19q-6 12 -11 23t-10 25q-28 -23 -62.5 -38t-76.5 -15zM459 407q-6 1 -10.5 2t-9 1.5
t-11.5 0.5h-18q-35 0 -65 -16.5t-51.5 -44.5t-33.5 -63.5t-12 -72.5q0 -48 16.5 -75.5t59.5 -27.5q23 0 42 9t40 30q2 25 6.5 52.5t9.5 50.5z" />
    <glyph glyph-name="e" unicode="e" horiz-adv-x="530" 
d="M100 206q0 64 22.5 124t63.5 106.5t99.5 75t129.5 28.5q35 0 65 -10t52.5 -29t35 -46.5t12.5 -62.5q0 -56 -25 -95t-69.5 -63.5t-105.5 -35.5t-133 -11q7 -42 30.5 -59.5t74.5 -17.5q32 0 65 5.5t62 16.5l11 -117q-28 -11 -71.5 -20t-94.5 -9q-62 0 -104.5 17.5t-69 47.5
t-38.5 70t-12 85zM391 422q-51 0 -89.5 -36.5t-50.5 -96.5q62 2 100 10.5t59 20.5t28 26t7 28q0 48 -54 48z" />
    <glyph glyph-name="f" unicode="f" horiz-adv-x="438" 
d="M479 776q45 0 78.5 -9.5t50.5 -17.5l-50 -117q-18 9 -41.5 13.5t-43.5 4.5q-55 0 -81.5 -28t-36.5 -70l-6 -26h176l-30 -122h-175l-61 -255q-34 -143 -74 -222.5t-88 -115.5l-133 19q26 24 48 59t39.5 74t30 79.5t20.5 75.5l104 436q25 106 90 164t183 58z" />
    <glyph glyph-name="g" unicode="g" horiz-adv-x="567" 
d="M524 66q-15 -65 -39.5 -112.5t-61 -79t-87.5 -47t-119 -15.5q-63 0 -106 11.5t-78 28.5l50 118q31 -14 64.5 -24t82.5 -10q64 0 96.5 28.5t42.5 73.5l4 19q-20 -10 -42.5 -16t-47.5 -6q-47 0 -81 14.5t-55.5 40.5t-32 61.5t-10.5 77.5q0 76 28 134.5t74.5 97.5t107 59
t126.5 20q48 0 95 -10t92 -31zM458 411q-17 4 -42 4q-38 0 -68 -13.5t-51.5 -36.5t-33 -55.5t-11.5 -69.5q0 -18 3 -33.5t11 -27t22 -18.5t35 -7q14 0 37.5 5t42.5 23z" />
    <glyph glyph-name="h" unicode="h" horiz-adv-x="565" 
d="M425 535q43 0 74 -12.5t51 -35t30 -53.5t10 -67q0 -42 -10 -83l-68 -284h-149l66 278q4 17 7.5 36t3.5 36q0 26 -13.5 44.5t-51.5 18.5q-16 0 -30.5 -2t-28.5 -5l-97 -406h-149l180 752l155 24l-61 -251q20 4 40.5 7t40.5 3z" />
    <glyph glyph-name="i" unicode="i" horiz-adv-x="283" 
d="M218 0h-148l125 526h149zM290 590q-31 0 -56 18.5t-25 56.5q0 21 8.5 39.5t22.5 32t32.5 21.5t39.5 8q31 0 56 -18.5t25 -56.5q0 -21 -8.5 -39.5t-22.5 -32t-32.5 -21.5t-39.5 -8z" />
    <glyph glyph-name="j" unicode="j" horiz-adv-x="290" 
d="M15 -185q-28 0 -55.5 5.5t-49.5 13.5l38 118q14 -5 27.5 -8t30.5 -3q35 0 54 21t27 61l121 503h149l-122 -507q-24 -104 -75 -154t-145 -50zM303 590q-31 0 -56 18.5t-25 56.5q0 21 8.5 39.5t22.5 32t32.5 21.5t39.5 8q31 0 56 -18.5t25 -56.5q0 -21 -8.5 -39.5
t-22.5 -32t-32.5 -21.5t-39.5 -8z" />
    <glyph glyph-name="k" unicode="k" horiz-adv-x="561" 
d="M299 336q60 48 113 98t91 92h168q-56 -62 -116.5 -121.5t-138.5 -126.5q21 -26 42.5 -60t41 -71t36 -75t27.5 -72h-166q-9 26 -22.5 57t-30 61.5t-34.5 59.5t-36 52l-56 -230h-148l180 752l155 24z" />
    <glyph glyph-name="l" unicode="l" horiz-adv-x="315" 
d="M288 -10q-71 0 -111.5 18.5t-58 50.5t-17 73.5t11.5 88.5l127 531l155 24l-139 -576q-4 -18 -4.5 -33t5.5 -26.5t20.5 -18.5t40.5 -9z" />
    <glyph glyph-name="m" unicode="m" horiz-adv-x="846" 
d="M191 502q17 5 36.5 11.5t44 12t55 9t70.5 3.5q48 0 79.5 -12t57.5 -36q37 21 73.5 34.5t85.5 13.5q47 0 80.5 -12.5t55.5 -36t32 -56t10 -71.5q0 -18 -2.5 -38t-7.5 -40l-68 -284h-149l66 278q3 14 6.5 31.5t3.5 34.5q0 28 -13 48.5t-51 20.5q-21 0 -40 -7.5t-34 -15.5
q2 -8 2 -15v-13q0 -18 -2.5 -38t-7.5 -40l-68 -284h-149l66 278q3 14 6.5 31.5t3.5 34.5q0 28 -13 48.5t-51 20.5q-16 0 -27 -1.5t-26 -4.5l-97 -407h-149z" />
    <glyph glyph-name="n" unicode="n" horiz-adv-x="567" 
d="M191 502q17 5 37.5 11.5t46 12t57 9t71.5 3.5q118 0 162 -68t15 -186l-68 -284h-149l66 278q6 26 9.5 50.5t-0.5 43t-18.5 30t-44.5 11.5q-29 0 -59 -6l-97 -407h-149z" />
    <glyph glyph-name="o" unicode="o" horiz-adv-x="574" 
d="M308 -14q-53 0 -92 16t-64.5 45t-38.5 68.5t-13 87.5q0 60 19.5 120t57.5 108t93 78.5t126 30.5q52 0 91.5 -16t65 -45t38.5 -68.5t13 -87.5q0 -60 -19 -120t-56 -108t-92.5 -78.5t-128.5 -30.5zM382 414q-33 0 -58 -19t-42 -48t-25.5 -63.5t-8.5 -65.5q0 -51 16 -78.5
t58 -27.5q33 0 58 19t42 48t25.5 63.5t8.5 65.5q0 51 -16 78.5t-58 27.5z" />
    <glyph glyph-name="p" unicode="p" horiz-adv-x="578" 
d="M245 116q17 -4 42 -4q39 0 71 14.5t54.5 40.5t35 62.5t12.5 80.5q0 43 -19 73t-66 30q-32 0 -60 -6zM608 321q0 -73 -24 -133.5t-66.5 -104.5t-102 -68.5t-129.5 -24.5q-34 0 -68 6l-45 -181h-148l166 692q40 12 91.5 21.5t111.5 9.5q56 0 96.5 -17t66.5 -46.5t38.5 -69
t12.5 -84.5z" />
    <glyph glyph-name="q" unicode="q" horiz-adv-x="573" 
d="M100 204q0 78 26.5 140t73 105t108.5 66t134 23q93 0 191 -39l-163 -684h-149l46 194q-44 -19 -90 -19q-38 0 -70.5 14.5t-56 42t-37 67.5t-13.5 90zM464 411q-10 2 -21 3t-22 1q-41 0 -73 -16t-54.5 -43.5t-34 -64t-11.5 -76.5q0 -57 19 -79t52 -22q19 0 37.5 5.5
t41.5 19.5z" />
    <glyph glyph-name="r" unicode="r" horiz-adv-x="426" 
d="M472 398q-20 5 -39.5 9.5t-57.5 4.5q-14 0 -31 -2.5t-28 -5.5l-97 -404h-149l120 498q43 14 96.5 26.5t120.5 12.5q25 0 55.5 -4.5t53.5 -14.5z" />
    <glyph glyph-name="s" unicode="s" horiz-adv-x="483" 
d="M241 106q51 0 70 14.5t19 31.5q0 11 -3.5 19t-11.5 15t-22 14.5t-36 17.5q-25 11 -47 23.5t-38.5 30t-26 40t-9.5 53.5q0 81 59.5 128t173.5 47q54 0 96 -12t68 -26l-51 -111q-21 11 -54 21t-65 10q-14 0 -27.5 -1.5t-25 -6.5t-18.5 -14t-7 -24q0 -20 15.5 -30t43.5 -24
q39 -19 65 -35t41.5 -34t22.5 -41t7 -54q0 -32 -13.5 -63t-42.5 -55t-74 -39t-108 -15q-39 0 -70.5 5t-55.5 12.5t-40.5 15.5t-25.5 13l51 114q17 -10 53 -25t87 -15z" />
    <glyph glyph-name="t" unicode="t" horiz-adv-x="416" 
d="M213 657l155 24l-38 -155h166l-30 -122h-165l-44 -184q-6 -23 -7.5 -43t5 -34.5t22.5 -22.5t44 -8q24 0 46.5 4.5t45.5 12.5l11 -114q-30 -11 -65 -19t-83 -8q-69 0 -107 20.5t-54 56t-14 81.5t14 97z" />
    <glyph glyph-name="u" unicode="u" horiz-adv-x="581" 
d="M621 526l-71 -299q-14 -57 -8 -114.5t23 -102.5l-133 -19q-11 22 -21 49q-28 -22 -63 -37t-78 -15q-59 0 -95.5 21.5t-54.5 57t-19.5 81.5t10.5 94l68 284h149l-67 -282q-5 -22 -8.5 -45t-0.5 -42.5t15.5 -32t39.5 -12.5q23 0 42.5 8.5t41.5 29.5q2 25 6.5 52.5t9.5 50.5
l65 273h149z" />
    <glyph glyph-name="v" unicode="v" horiz-adv-x="546" 
d="M201 0q-26 100 -47 233.5t-29 292.5h154q1 -39 3 -85.5t5 -93.5t7 -91.5t9 -80.5q22 30 49.5 74t53.5 92t48 96.5t34 88.5h158q-26 -71 -64.5 -146t-82.5 -145t-89.5 -131t-84.5 -104h-124z" />
    <glyph glyph-name="w" unicode="w" horiz-adv-x="816" 
d="M482 308q-19 -41 -42.5 -83.5t-48 -83t-47.5 -77t-41 -64.5h-116q-8 42 -16.5 100t-16.5 126.5t-14.5 145t-9.5 154.5h146q0 -36 0.5 -78t2 -87t4.5 -92t8 -93q25 42 49.5 87.5t47 91t42 89.5t34.5 82h124q0 -72 2.5 -161t12.5 -189q27 45 50 92.5t42.5 93.5t35 88
t27.5 76h158q-20 -50 -47.5 -112.5t-63.5 -131.5t-81 -141t-100 -141h-116q-12 82 -18 157t-8 151z" />
    <glyph glyph-name="x" unicode="x" horiz-adv-x="549" 
d="M281 526l76 -164q34 42 64.5 82t58.5 82h149q-42 -60 -92 -124.5t-116 -134.5q40 -75 68 -138.5t50 -128.5h-147q-18 49 -36 90t-35 76l-145 -166h-156l239 268l-129 258h151z" />
    <glyph glyph-name="y" unicode="y" horiz-adv-x="532" 
d="M632 526q-28 -76 -56.5 -142t-59.5 -125.5t-64 -113.5t-70 -107q-27 -39 -56 -79t-64.5 -72t-79 -52t-100.5 -20q-35 0 -60 6.5t-47 17.5l45 117q20 -8 36 -12.5t39 -4.5q35 0 66.5 22.5t52.5 60.5q-26 100 -47.5 224t-29.5 280h153q1 -39 4 -86t7 -94.5t9 -92.5t11 -81
q48 72 84.5 160t68.5 194h158z" />
    <glyph glyph-name="z" unicode="z" horiz-adv-x="526" 
d="M582 427q-23 -20 -60 -54.5t-80 -76t-88 -87t-84 -87.5h244l-30 -122h-424l21 87q29 36 66.5 78t78 85t81 82.5t75.5 71.5h-214l30 122h408z" />
    <glyph glyph-name="braceleft" unicode="{" horiz-adv-x="371" 
d="M109 358q31 0 53 7t37 19.5t23.5 29.5t13.5 38l36 151q11 45 30 79t50 56.5t76.5 33.5t108.5 11h20l-29 -119h-25q-24 0 -40.5 -5.5t-27.5 -16t-17.5 -25.5t-10.5 -35l-31 -133q-6 -26 -14 -48t-22 -41t-35.5 -34t-54.5 -27q35 -16 48 -38.5t13 -51.5q0 -23 -8 -60
l-31 -133q-6 -24 -6 -40q0 -23 14 -32.5t48 -9.5h25l-29 -119h-20q-88 0 -134.5 27.5t-46.5 100.5q0 30 11 79l29 124q10 48 -8 71t-75 23z" />
    <glyph glyph-name="bar" unicode="|" horiz-adv-x="304" 
d="M262 783h142l-233 -968h-141z" />
    <glyph glyph-name="braceright" unicode="}" horiz-adv-x="371" 
d="M397 240q-31 0 -53 -7t-37 -19.5t-23.5 -29.5t-13.5 -38l-36 -151q-11 -45 -30 -79t-50 -56.5t-76.5 -33.5t-108.5 -11h-20l29 119h25q25 0 41 5t26.5 15.5t17 26t11.5 35.5l31 133q6 26 14 48t22 41t35.5 34t54.5 27q-35 16 -48 38.5t-13 51.5q0 23 8 60l31 133
q6 24 6 40q0 23 -14 32.5t-48 9.5h-25l29 119h20q88 0 134.5 -27.5t46.5 -100.5q0 -30 -11 -79l-29 -124q-10 -48 8 -71t75 -23z" />
    <glyph glyph-name="asciitilde" unicode="~" horiz-adv-x="568" 
d="M428 196q-33 0 -57.5 12t-44.5 26t-38.5 26t-40.5 12q-9 0 -16.5 -2t-15.5 -9.5t-17 -22t-21 -39.5l-95 28q11 34 27.5 66t40 56.5t54 39t69.5 14.5q33 0 57.5 -12t44.5 -26t38.5 -26t40.5 -12q9 0 16.5 2t15.5 9.5t17 22t21 39.5l95 -28q-14 -38 -31 -70t-39.5 -55.5
t-52 -37t-68.5 -13.5z" />
    <glyph glyph-name="uni00A0" unicode="&#xa0;" horiz-adv-x="240" 
 />
    <glyph glyph-name="exclamdown" unicode="&#xa1;" horiz-adv-x="295" 
d="M75 4q20 81 42.5 151t49.5 142h114q-8 -72 -18 -142t-29 -151l-43 -179h-159zM243 347q-35 0 -58.5 19.5t-23.5 61.5q0 23 8.5 42t22.5 32.5t32 21t37 7.5q35 0 58.5 -19.5t23.5 -61.5q0 -23 -8.5 -42t-22.5 -32.5t-32 -21t-37 -7.5z" />
    <glyph glyph-name="cent" unicode="&#xa2;" horiz-adv-x="568" 
d="M517 59q-29 -12 -60 -19.5t-61 -10.5l-33 -138h-142l37 154q-51 21 -81.5 66t-30.5 123q0 64 18 116.5t49.5 92.5t73.5 67t90 39l35 144h142l-34 -140q44 -9 83 -31l-50 -115q-24 14 -49 20t-48 6q-34 0 -62.5 -13t-49.5 -37.5t-32.5 -61t-11.5 -82.5q0 -50 25.5 -68.5
t61.5 -18.5q29 0 61 8t58 18z" />
    <glyph glyph-name="sterling" unicode="&#xa3;" horiz-adv-x="568" 
d="M374 394h176l-29 -122h-176q-9 -35 -22 -74.5t-26 -72.5h271l-30 -125h-434q36 81 58.5 148t37.5 124h-87l29 122h87l25 96q16 60 43.5 101.5t62.5 67t75.5 36.5t84.5 11q45 0 83.5 -10t70.5 -27l-60 -110q-51 23 -95 23q-21 0 -40.5 -5t-36 -18.5t-30 -37.5t-22.5 -62z
" />
    <glyph glyph-name="currency" unicode="&#xa4;" horiz-adv-x="568" 
d="M354 544q25 0 47.5 -4t44.5 -14l74 71l93 -91l-72 -69q21 -39 21 -90t-21 -90l72 -69l-94 -92l-74 72q-21 -10 -43 -14t-48 -4q-25 0 -47.5 4t-44.5 14l-74 -71l-93 91l72 69q-21 39 -21 90t21 90l-72 69l94 92l74 -72q21 10 43 14t48 4zM436 347q0 43 -24 65t-58 22
t-58 -22t-24 -65t24 -65t58 -22t58 22t24 65z" />
    <glyph glyph-name="yen" unicode="&#xa5;" horiz-adv-x="568" 
d="M385 431q51 66 96 126.5t93 135.5h162q-56 -84 -116 -162t-128 -161h101l-23 -95h-146l-16 -69h146l-23 -95h-146l-27 -111h-156l27 111h-145l23 95h145l16 69h-145l23 95h115q-16 41 -31.5 83.5t-29.5 84.5t-25.5 81.5t-19.5 73.5h156q7 -36 15 -67.5t17 -62.5
t19.5 -63.5t22.5 -68.5z" />
    <glyph glyph-name="brokenbar" unicode="&#xa6;" horiz-adv-x="302" 
d="M119 212h142l-96 -397h-141zM256 783h142l-96 -397h-142z" />
    <glyph glyph-name="section" unicode="&#xa7;" horiz-adv-x="515" 
d="M111 287q0 48 32.5 95.5t86.5 79.5q-28 34 -28 81q0 31 15 61t44 53t73 37.5t102 14.5q45 0 87.5 -10t76.5 -30l-51 -106q-31 16 -60 23t-55 7q-42 0 -66.5 -15t-24.5 -38q0 -11 8 -21.5t28 -20.5l75 -38q51 -26 72.5 -59.5t21.5 -70.5q0 -48 -30 -93t-78 -74l-13 -8
q30 -41 30 -84q0 -33 -14.5 -65.5t-44.5 -58t-76.5 -41.5t-109.5 -16q-48 0 -96 11t-80 33l51 106q61 -34 123 -34q57 0 81.5 19t24.5 42q0 16 -9.5 30.5t-26.5 22.5l-75 38q-51 25 -72.5 58.5t-21.5 70.5zM243 311q0 -20 14.5 -39.5t49.5 -36.5l43 -21q30 20 48 43t18 48
q0 22 -17 43t-55 39l-35 16q-29 -19 -47.5 -43t-18.5 -49z" />
    <glyph glyph-name="dieresis" unicode="&#xa8;" horiz-adv-x="536" 
d="M298 602q-29 0 -48 18t-19 48q0 19 7 35t18.5 27t26 17.5t29.5 6.5q28 0 48 -18.5t20 -49.5q0 -18 -7.5 -33.5t-19.5 -27t-26.5 -17.5t-28.5 -6zM520 602q-29 0 -48 18t-19 48q0 19 7 35t18.5 27t26 17.5t29.5 6.5q28 0 48 -18.5t20 -49.5q0 -18 -7.5 -33.5t-19.5 -27
t-26.5 -17.5t-28.5 -6z" />
    <glyph glyph-name="copyright" unicode="&#xa9;" horiz-adv-x="796" 
d="M816 347q0 -86 -28.5 -153t-76.5 -113.5t-111 -71t-132 -24.5t-132 24.5t-111 71t-76.5 113.5t-28.5 153q0 85 28.5 152.5t76.5 114t111 71t132 24.5t132 -24.5t111 -71t76.5 -114t28.5 -152.5zM714 347q0 60 -18 109t-50.5 84t-78 54t-99.5 19t-99.5 -19t-78 -54
t-50.5 -84t-18 -109t18 -109t50.5 -84t78 -54t99.5 -19t99.5 19t78 54t50.5 84t18 109zM484 160q-90 0 -136.5 49t-46.5 140t49.5 139.5t130.5 48.5q48 0 77.5 -13t40.5 -19l-32 -88q-14 8 -31.5 13.5t-45.5 5.5q-33 0 -53 -21t-20 -61q0 -18 3 -34.5t11 -29t22 -20.5t37 -8
q30 0 50 7t36 13l28 -91q-13 -7 -44 -19t-76 -12z" />
    <glyph glyph-name="ordfeminine" unicode="&#xaa;" horiz-adv-x="472" 
d="M415 607q-7 1 -13.5 1.5t-12.5 0.5q-27 0 -51 -9t-42.5 -26.5t-29 -41.5t-10.5 -54t15.5 -51.5t47.5 -21.5q14 0 29 5t31 17q-1 3 -1 14q0 15 3 31t7 31zM498 504q-10 -34 -13 -79.5t19 -102.5l-94 -13l-13 31q-53 -35 -105 -35q-35 0 -61.5 13t-44.5 35.5t-27 52
t-9 61.5q0 42 16 85t48.5 77.5t82 56.5t117.5 22q29 0 61 -4t67 -14z" />
    <glyph glyph-name="guillemotleft" unicode="&#xab;" horiz-adv-x="613" 
d="M256 271l72 -181l-99 -46l-129 246l219 234l94 -56zM526 271l72 -181l-99 -46l-129 246l219 234l94 -56z" />
    <glyph glyph-name="logicalnot" unicode="&#xac;" horiz-adv-x="568" 
d="M514 51h-136l57 234h-334l30 125h470z" />
    <glyph glyph-name="uni00AD" unicode="&#xad;" horiz-adv-x="343" 
d="M106 366h290l-33 -135h-290z" />
    <glyph glyph-name="registered" unicode="&#xae;" horiz-adv-x="796" 
d="M816 347q0 -86 -28.5 -153t-76.5 -113.5t-111 -71t-132 -24.5t-132 24.5t-111 71t-76.5 113.5t-28.5 153q0 85 28.5 152.5t76.5 114t111 71t132 24.5t132 -24.5t111 -71t76.5 -114t28.5 -152.5zM714 347q0 60 -18 109t-50.5 84t-78 54t-99.5 19t-99.5 -19t-78 -54
t-50.5 -84t-18 -109t18 -109t50.5 -84t78 -54t99.5 -19t99.5 19t78 54t50.5 84t18 109zM529 177q-17 38 -29 66.5t-27 51.5h-40v-118h-97v342q34 8 63.5 11.5t51.5 3.5q161 0 161 -121q0 -62 -54 -91q11 -17 19.5 -32.5t17 -32t17 -36t19.5 -44.5h-102zM433 373h18
q32 0 48 8.5t16 32.5q0 20 -14 28t-41 8q-7 0 -14.5 -0.5t-12.5 -1.5v-75z" />
    <glyph glyph-name="macron" unicode="&#xaf;" horiz-adv-x="376" 
d="M196 725h322l-25 -102h-322z" />
    <glyph glyph-name="degree" unicode="&#xb0;" horiz-adv-x="382" 
d="M321 781q32 0 61.5 -10.5t51.5 -31t35 -49t13 -64.5t-13 -64.5t-35 -49t-51.5 -31t-61.5 -10.5t-61.5 10.5t-51.5 31t-35 49t-13 64.5t13 64.5t35 49t51.5 31t61.5 10.5zM321 569q21 0 38 15.5t17 41.5t-17 41.5t-38 15.5t-38 -15.5t-17 -41.5t17 -41.5t38 -15.5z" />
    <glyph glyph-name="plusminus" unicode="&#xb1;" horiz-adv-x="568" 
d="M153 455h167l41 170h136l-41 -170h167l-30 -125h-167l-41 -170h-136l41 170h-167zM73 125h470l-30 -125h-469z" />
    <glyph glyph-name="twosuperior" unicode="&#xb2;" horiz-adv-x="363" 
d="M411 393l-20 -91h-287q0 31 6 57.5t21 50.5t41.5 46.5t68.5 45.5q29 16 46 27.5t26 21t11.5 18t2.5 18.5q0 13 -10 21t-27 8q-19 0 -44.5 -11t-57.5 -37l-37 79q68 62 159 62q25 0 47.5 -6t39.5 -18.5t27 -32.5t10 -47q0 -46 -24 -80.5t-78 -68.5q-14 -9 -28 -17.5
t-26.5 -17t-21.5 -15.5t-12 -13h167z" />
    <glyph glyph-name="threesuperior" unicode="&#xb3;" horiz-adv-x="363" 
d="M132 410q19 -12 48 -19.5t58 -7.5q32 0 56 11t24 37q0 17 -15 26.5t-48 9.5h-51l20 77h45q32 0 49.5 15t17.5 32q0 12 -11 21t-35 9q-25 0 -51 -8t-46 -18l-21 80q25 13 64.5 23.5t79.5 10.5q24 0 45.5 -4.5t38 -16t26 -30t9.5 -45.5q0 -29 -17 -57t-49 -42
q22 -11 35 -33.5t13 -49.5q0 -38 -16 -64t-42 -42.5t-59.5 -24t-67.5 -7.5q-40 0 -77 8.5t-63 24.5z" />
    <glyph glyph-name="acute" unicode="&#xb4;" horiz-adv-x="286" 
d="M414 712l-177 -136l-60 62l160 161z" />
    <glyph glyph-name="mu" unicode="&#xb5;" horiz-adv-x="632" 
d="M652 526l-71 -299q-5 -20 -8.5 -36.5t-3.5 -29.5q0 -23 13 -34.5t48 -13.5l-49 -124q-63 1 -95 15.5t-46 35.5q-33 -24 -69.5 -38t-71.5 -14q-22 0 -43 6.5t-39 20.5q0 -23 -3 -45t-12 -59l-19 -77h-148l165 692h149l-67 -282q-4 -17 -7.5 -35.5t-4.5 -35.5
q0 -26 13.5 -43.5t54.5 -17.5q13 0 34 6.5t50 32.5q2 25 6.5 52.5t9.5 49.5l65 273h149z" />
    <glyph glyph-name="paragraph" unicode="&#xb6;" horiz-adv-x="710" 
d="M309 258q-72 11 -113 56t-41 123q0 64 30 113.5t84.5 82.5t132 50t173.5 17q46 0 94 -4t102 -13l-208 -868h-142l184 767q-14 2 -34 3t-42 1l-185 -771h-142z" />
    <glyph glyph-name="periodcentered" unicode="&#xb7;" horiz-adv-x="242" 
d="M198 387q35 0 58.5 -19.5t23.5 -61.5q0 -23 -8.5 -42t-22.5 -32.5t-32 -21t-37 -7.5q-35 0 -58.5 19.5t-23.5 61.5q0 23 8.5 42t22.5 32.5t32 21t37 7.5z" />
    <glyph glyph-name="cedilla" unicode="&#xb8;" horiz-adv-x="326" 
d="M194 -44q22 -11 33 -29t11 -38q0 -29 -11.5 -50t-31 -34.5t-44.5 -19.5t-51 -6q-27 0 -53.5 6t-47.5 17l36 82q13 -6 29.5 -10t31.5 -4q40 0 40 24q0 11 -7 18t-23 14l-20 9q6 10 15 22.5t17.5 25t16 22.5t10.5 15h94q-4 -5 -10 -13.5t-12.5 -17.5t-12.5 -18z" />
    <glyph glyph-name="onesuperior" unicode="&#xb9;" horiz-adv-x="363" 
d="M156 618q48 17 91.5 38.5t78.5 44.5h87l-95 -399h-114l64 270q-22 -11 -45.5 -20.5t-55.5 -20.5z" />
    <glyph glyph-name="ordmasculine" unicode="&#xba;" horiz-adv-x="439" 
d="M244 456q0 -19 5 -30.5t13 -18t18.5 -9t21.5 -2.5q22 0 42.5 12.5t36 34.5t25 51.5t9.5 64.5q0 18 -5 30t-13 18.5t-18.5 9t-21.5 2.5q-22 0 -42.5 -12.5t-36 -34.5t-25 -52t-9.5 -64zM140 448q0 50 14.5 97t43 83.5t71.5 58.5t99 22q78 0 114.5 -38t36.5 -104
q0 -50 -14.5 -97t-43 -83.5t-71.5 -58.5t-99 -22q-78 0 -114.5 38t-36.5 104z" />
    <glyph glyph-name="guillemotright" unicode="&#xbb;" horiz-adv-x="613" 
d="M218 297l-72 181l99 46l129 -246l-219 -234l-94 56zM487 297l-72 181l99 46l129 -246l-219 -234l-94 56z" />
    <glyph glyph-name="onequarter" unicode="&#xbc;" horiz-adv-x="878" 
d="M137 618q48 17 91.5 38.5t78.5 44.5h87l-95 -399h-114l64 270q-22 -11 -45.5 -20.5t-55.5 -20.5zM831 693l-521 -693h-138l523 693h136zM874 401l-56 -231h46l-19 -80h-46l-22 -89h-94l22 89h-190l15 69q55 71 115.5 130.5t135.5 111.5h93zM755 297q-31 -27 -63.5 -59.5
t-58.5 -67.5h91z" />
    <glyph glyph-name="onehalf" unicode="&#xbd;" horiz-adv-x="878" 
d="M147 618q48 17 91.5 38.5t78.5 44.5h87l-95 -399h-114l64 270q-22 -11 -45.5 -20.5t-55.5 -20.5zM813 693l-521 -693h-138l523 693h136zM875 93l-20 -91h-287q0 31 6 57.5t21 50.5t41.5 46.5t68.5 45.5q29 16 46 27.5t26 21t11.5 18t2.5 18.5q0 13 -10 21t-27 8
q-19 0 -44.5 -11t-57.5 -37l-37 79q68 62 159 62q25 0 47.5 -6t39.5 -18.5t27 -32.5t10 -47q0 -46 -24 -80.5t-78 -68.5q-14 -9 -28 -17.5t-26.5 -17t-21.5 -15.5t-12 -13h167z" />
    <glyph glyph-name="threequarters" unicode="&#xbe;" horiz-adv-x="878" 
d="M123 410q19 -12 48 -19.5t58 -7.5q32 0 56 11t24 37q0 17 -15 26.5t-48 9.5h-51l20 77h45q32 0 49.5 15t17.5 32q0 12 -11 21t-35 9q-25 0 -51 -8t-46 -18l-21 80q25 13 64.5 23.5t79.5 10.5q24 0 45.5 -4.5t38 -16t26 -30t9.5 -45.5q0 -29 -17 -57t-49 -42
q22 -11 35 -33.5t13 -49.5q0 -38 -16 -64t-42 -42.5t-59.5 -24t-67.5 -7.5q-40 0 -77 8.5t-63 24.5zM851 693l-521 -693h-138l523 693h136zM894 401l-56 -231h46l-19 -80h-46l-22 -89h-94l22 89h-190l15 69q55 71 115.5 130.5t135.5 111.5h93zM775 297q-31 -27 -63.5 -59.5
t-58.5 -67.5h91z" />
    <glyph glyph-name="questiondown" unicode="&#xbf;" horiz-adv-x="430" 
d="M298 106q-30 -23 -51.5 -40t-35 -31.5t-19.5 -27t-6 -27.5q0 -26 18.5 -38t46.5 -12q18 0 38 3.5t39 9t36 12.5t30 15l19 -117q-39 -22 -89.5 -35.5t-101.5 -13.5q-36 0 -69 9t-58 27.5t-40 46t-15 63.5q0 43 13.5 75t34.5 57t47.5 45.5t52.5 40.5q38 28 66.5 57t32.5 67
h132q0 -32 -9.5 -57.5t-26 -48t-38.5 -42t-47 -38.5zM367 342q-35 0 -58.5 19.5t-23.5 61.5q0 23 8.5 42t22.5 32.5t32 21t37 7.5q35 0 58.5 -19.5t23.5 -61.5q0 -23 -8.5 -42t-22.5 -32.5t-32 -21t-37 -7.5z" />
    <glyph glyph-name="Agrave" unicode="&#xc0;" horiz-adv-x="714" 
d="M532 0q-2 39 -4.5 76.5t-5.5 74.5h-260q-20 -37 -42 -74.5t-42 -76.5h-163q65 112 121.5 207t109 179t102.5 159.5t102 147.5h139q16 -72 30.5 -159.5t27 -179t23 -183t19.5 -171.5h-157zM486 541q-42 -67 -82.5 -133t-78.5 -135h187q-5 61 -10.5 130t-15.5 138zM464 959
l135 -165l-64 -58l-163 144z" />
    <glyph glyph-name="Aacute" unicode="&#xc1;" horiz-adv-x="714" 
d="M532 0q-2 39 -4.5 76.5t-5.5 74.5h-260q-20 -37 -42 -74.5t-42 -76.5h-163q65 112 121.5 207t109 179t102.5 159.5t102 147.5h139q16 -72 30.5 -159.5t27 -179t23 -183t19.5 -171.5h-157zM486 541q-42 -67 -82.5 -133t-78.5 -135h187q-5 61 -10.5 130t-15.5 138zM653 872
l-177 -136l-60 62l160 161z" />
    <glyph glyph-name="Acircumflex" unicode="&#xc2;" horiz-adv-x="714" 
d="M532 0q-2 39 -4.5 76.5t-5.5 74.5h-260q-20 -37 -42 -74.5t-42 -76.5h-163q65 112 121.5 207t109 179t102.5 159.5t102 147.5h139q16 -72 30.5 -159.5t27 -179t23 -183t19.5 -171.5h-157zM486 541q-42 -67 -82.5 -133t-78.5 -135h187q-5 61 -10.5 130t-15.5 138zM689 795
l-60 -53l-83 78l-113 -76l-46 61l179 145z" />
    <glyph glyph-name="Atilde" unicode="&#xc3;" horiz-adv-x="714" 
d="M532 0q-2 39 -4.5 76.5t-5.5 74.5h-260q-20 -37 -42 -74.5t-42 -76.5h-163q65 112 121.5 207t109 179t102.5 159.5t102 147.5h139q16 -72 30.5 -159.5t27 -179t23 -183t19.5 -171.5h-157zM486 541q-42 -67 -82.5 -133t-78.5 -135h187q-5 61 -10.5 130t-15.5 138zM596 770
q-19 0 -34 5.5t-28 12t-25 12t-24 5.5q-14 0 -25.5 -8t-28.5 -33l-67 41q23 54 55 80.5t78 26.5q19 0 34 -5.5t28 -12t25 -12t24 -5.5q14 0 25.5 8t28.5 33l67 -41q-23 -54 -55 -80.5t-78 -26.5z" />
    <glyph glyph-name="Adieresis" unicode="&#xc4;" horiz-adv-x="714" 
d="M532 0q-2 39 -4.5 76.5t-5.5 74.5h-260q-20 -37 -42 -74.5t-42 -76.5h-163q65 112 121.5 207t109 179t102.5 159.5t102 147.5h139q16 -72 30.5 -159.5t27 -179t23 -183t19.5 -171.5h-157zM486 541q-42 -67 -82.5 -133t-78.5 -135h187q-5 61 -10.5 130t-15.5 138zM432 762
q-29 0 -48 18t-19 48q0 19 7 35t18.5 27t26 17.5t29.5 6.5q28 0 48 -18.5t20 -49.5q0 -18 -7.5 -33.5t-19.5 -27t-26.5 -17.5t-28.5 -6zM654 762q-29 0 -48 18t-19 48q0 19 7 35t18.5 27t26 17.5t29.5 6.5q28 0 48 -18.5t20 -49.5q0 -18 -7.5 -33.5t-19.5 -27t-26.5 -17.5
t-28.5 -6z" />
    <glyph glyph-name="Aring" unicode="&#xc5;" horiz-adv-x="714" 
d="M532 0q-2 39 -4.5 76.5t-5.5 74.5h-260q-20 -37 -42 -74.5t-42 -76.5h-163q64 110 120 204t107.5 177.5t101 158t100.5 145.5q-14 15 -22.5 35.5t-8.5 46.5q0 28 9.5 49.5t26 36t37.5 22t44 7.5q24 0 45.5 -7.5t38 -22t26 -36t9.5 -49.5q0 -35 -15.5 -60t-39.5 -39
q15 -72 29 -156.5t26 -172.5t22 -175t18 -164h-157zM486 541q-42 -67 -82.5 -133t-78.5 -135h187q-5 61 -10.5 130t-15.5 138zM576 767q0 23 -14 35t-32 12q-17 0 -31 -12t-14 -35t14 -35t31 -12q18 0 32 12t14 35z" />
    <glyph glyph-name="AE" unicode="&#xc6;" horiz-adv-x="977" 
d="M508 164h-224q-31 -38 -64 -82t-60 -82h-160q84 108 156 200t141 174.5t138.5 160.5t146.5 158h495l-32 -131h-296l-32 -136h261l-31 -128h-261l-40 -167h319l-32 -131h-465zM599 546q-21 -23 -49.5 -55.5t-59 -68t-60.5 -71t-54 -63.5h161z" />
    <glyph glyph-name="Ccedilla" unicode="&#xc7;" horiz-adv-x="638" 
d="M614 30q-41 -20 -89.5 -31.5t-119.5 -12.5q-6 -8 -11 -16t-9 -14q22 -11 33 -29t11 -38q0 -29 -11.5 -50t-31 -34.5t-44.5 -19.5t-51 -6q-27 0 -53.5 6t-47.5 17l36 82q13 -6 29.5 -10t31.5 -4q40 0 40 24q0 11 -7 18t-23 14l-20 9l41 61q-91 23 -143 97.5t-52 186.5
q0 78 27.5 155t81 137.5t131 98.5t178.5 38q48 0 94.5 -11t97.5 -39l-56 -121q-42 22 -75 30t-71 8q-57 0 -102.5 -23t-78 -62.5t-49.5 -91.5t-17 -110q0 -88 38.5 -128t110.5 -40q48 0 88.5 10t75.5 26z" />
    <glyph glyph-name="Egrave" unicode="&#xc8;" horiz-adv-x="594" 
d="M75 0l166 693h453l-32 -128h-297l-32 -140h262l-31 -126h-262l-40 -170h320l-32 -129h-475zM434 959l135 -165l-64 -58l-163 144z" />
    <glyph glyph-name="Eacute" unicode="&#xc9;" horiz-adv-x="594" 
d="M75 0l166 693h453l-32 -128h-297l-32 -140h262l-31 -126h-262l-40 -170h320l-32 -129h-475zM645 872l-177 -136l-60 62l160 161z" />
    <glyph glyph-name="Ecircumflex" unicode="&#xca;" horiz-adv-x="594" 
d="M75 0l166 693h453l-32 -128h-297l-32 -140h262l-31 -126h-262l-40 -170h320l-32 -129h-475zM654 795l-60 -53l-83 78l-113 -76l-46 61l179 145z" />
    <glyph glyph-name="Edieresis" unicode="&#xcb;" horiz-adv-x="594" 
d="M75 0l166 693h453l-32 -128h-297l-32 -140h262l-31 -126h-262l-40 -170h320l-32 -129h-475zM372 762q-29 0 -48 18t-19 48q0 19 7 35t18.5 27t26 17.5t29.5 6.5q28 0 48 -18.5t20 -49.5q0 -18 -7.5 -33.5t-19.5 -27t-26.5 -17.5t-28.5 -6zM594 762q-29 0 -48 18t-19 48
q0 19 7 35t18.5 27t26 17.5t29.5 6.5q28 0 48 -18.5t20 -49.5q0 -18 -7.5 -33.5t-19.5 -27t-26.5 -17.5t-28.5 -6z" />
    <glyph glyph-name="Igrave" unicode="&#xcc;" horiz-adv-x="312" 
d="M241 693h156l-167 -693h-155zM262 959l135 -165l-64 -58l-163 144z" />
    <glyph glyph-name="Iacute" unicode="&#xcd;" horiz-adv-x="312" 
d="M241 693h156l-167 -693h-155zM488 872l-177 -136l-60 62l160 161z" />
    <glyph glyph-name="Icircumflex" unicode="&#xce;" horiz-adv-x="312" 
d="M241 693h156l-167 -693h-155zM500 795l-60 -53l-83 78l-113 -76l-46 61l179 145z" />
    <glyph glyph-name="Idieresis" unicode="&#xcf;" horiz-adv-x="312" 
d="M241 693h156l-167 -693h-155zM234 762q-29 0 -48 18t-19 48q0 19 7 35t18.5 27t26 17.5t29.5 6.5q28 0 48 -18.5t20 -49.5q0 -18 -7.5 -33.5t-19.5 -27t-26.5 -17.5t-28.5 -6zM456 762q-29 0 -48 18t-19 48q0 19 7 35t18.5 27t26 17.5t29.5 6.5q28 0 48 -18.5t20 -49.5
q0 -18 -7.5 -33.5t-19.5 -27t-26.5 -17.5t-28.5 -6z" />
    <glyph glyph-name="Eth" unicode="&#xd0;" horiz-adv-x="718" 
d="M257 125q11 -1 22.5 -1.5t31.5 -0.5q65 0 117.5 20t89 57.5t56.5 92t20 122.5q0 35 -9 63.5t-29.5 49t-53 31.5t-78.5 11q-30 0 -61 -3l-36 -150h127l-27 -115h-128zM754 423q0 -101 -33 -181t-94.5 -135.5t-149.5 -85.5t-199 -30q-42 0 -97 5t-106 16l70 290h-80l26 115
h81l64 264q57 11 109.5 15.5t94.5 4.5q74 0 132.5 -20t99 -57t61.5 -88t21 -113z" />
    <glyph glyph-name="Ntilde" unicode="&#xd1;" horiz-adv-x="742" 
d="M543 0q-42 118 -93.5 236t-111.5 223l-110 -459h-153l166 693h119q23 -35 49.5 -82.5t54.5 -102.5t56 -114.5t53 -117.5l99 417h155l-167 -693h-117zM611 770q-19 0 -34 5.5t-28 12t-25 12t-24 5.5q-14 0 -25.5 -8t-28.5 -33l-67 41q23 54 55 80.5t78 26.5q19 0 34 -5.5
t28 -12t25 -12t24 -5.5q14 0 25.5 8t28.5 33l67 -41q-23 -54 -55 -80.5t-78 -26.5z" />
    <glyph glyph-name="Ograve" unicode="&#xd2;" horiz-adv-x="757" 
d="M500 575q-46 0 -85.5 -24t-69 -64t-46 -92t-16.5 -107q0 -75 31.5 -121.5t102.5 -46.5q46 0 85.5 24t69 64t46 91.5t16.5 107.5q0 75 -31.5 121.5t-102.5 46.5zM401 -14q-61 0 -112 20t-88 57.5t-57.5 91.5t-20.5 122q0 78 27 155t77.5 138.5t123.5 100t165 38.5
q61 0 112 -20t88 -57.5t57.5 -91.5t20.5 -122q0 -78 -26.5 -155.5t-77 -139t-123.5 -99.5t-166 -38zM530 959l135 -165l-64 -58l-163 144z" />
    <glyph glyph-name="Oacute" unicode="&#xd3;" horiz-adv-x="757" 
d="M500 575q-46 0 -85.5 -24t-69 -64t-46 -92t-16.5 -107q0 -75 31.5 -121.5t102.5 -46.5q46 0 85.5 24t69 64t46 91.5t16.5 107.5q0 75 -31.5 121.5t-102.5 46.5zM401 -14q-61 0 -112 20t-88 57.5t-57.5 91.5t-20.5 122q0 78 27 155t77.5 138.5t123.5 100t165 38.5
q61 0 112 -20t88 -57.5t57.5 -91.5t20.5 -122q0 -78 -26.5 -155.5t-77 -139t-123.5 -99.5t-166 -38zM652 872l-177 -136l-60 62l160 161z" />
    <glyph glyph-name="Ocircumflex" unicode="&#xd4;" horiz-adv-x="757" 
d="M500 575q-46 0 -85.5 -24t-69 -64t-46 -92t-16.5 -107q0 -75 31.5 -121.5t102.5 -46.5q46 0 85.5 24t69 64t46 91.5t16.5 107.5q0 75 -31.5 121.5t-102.5 46.5zM401 -14q-61 0 -112 20t-88 57.5t-57.5 91.5t-20.5 122q0 78 27 155t77.5 138.5t123.5 100t165 38.5
q61 0 112 -20t88 -57.5t57.5 -91.5t20.5 -122q0 -78 -26.5 -155.5t-77 -139t-123.5 -99.5t-166 -38zM688 795l-60 -53l-83 78l-113 -76l-46 61l179 145z" />
    <glyph glyph-name="Otilde" unicode="&#xd5;" horiz-adv-x="757" 
d="M500 575q-46 0 -85.5 -24t-69 -64t-46 -92t-16.5 -107q0 -75 31.5 -121.5t102.5 -46.5q46 0 85.5 24t69 64t46 91.5t16.5 107.5q0 75 -31.5 121.5t-102.5 46.5zM401 -14q-61 0 -112 20t-88 57.5t-57.5 91.5t-20.5 122q0 78 27 155t77.5 138.5t123.5 100t165 38.5
q61 0 112 -20t88 -57.5t57.5 -91.5t20.5 -122q0 -78 -26.5 -155.5t-77 -139t-123.5 -99.5t-166 -38zM590 770q-19 0 -34 5.5t-28 12t-25 12t-24 5.5q-14 0 -25.5 -8t-28.5 -33l-67 41q23 54 55 80.5t78 26.5q19 0 34 -5.5t28 -12t25 -12t24 -5.5q14 0 25.5 8t28.5 33l67 -41
q-23 -54 -55 -80.5t-78 -26.5z" />
    <glyph glyph-name="Odieresis" unicode="&#xd6;" horiz-adv-x="757" 
d="M500 575q-46 0 -85.5 -24t-69 -64t-46 -92t-16.5 -107q0 -75 31.5 -121.5t102.5 -46.5q46 0 85.5 24t69 64t46 91.5t16.5 107.5q0 75 -31.5 121.5t-102.5 46.5zM401 -14q-61 0 -112 20t-88 57.5t-57.5 91.5t-20.5 122q0 78 27 155t77.5 138.5t123.5 100t165 38.5
q61 0 112 -20t88 -57.5t57.5 -91.5t20.5 -122q0 -78 -26.5 -155.5t-77 -139t-123.5 -99.5t-166 -38zM426 762q-29 0 -48 18t-19 48q0 19 7 35t18.5 27t26 17.5t29.5 6.5q28 0 48 -18.5t20 -49.5q0 -18 -7.5 -33.5t-19.5 -27t-26.5 -17.5t-28.5 -6zM648 762q-29 0 -48 18
t-19 48q0 19 7 35t18.5 27t26 17.5t29.5 6.5q28 0 48 -18.5t20 -49.5q0 -18 -7.5 -33.5t-19.5 -27t-26.5 -17.5t-28.5 -6z" />
    <glyph glyph-name="multiply" unicode="&#xd7;" horiz-adv-x="568" 
d="M89 166l171 138l-102 135l102 82l101 -135l172 139l70 -92l-171 -138l102 -135l-102 -82l-101 135l-172 -139z" />
    <glyph glyph-name="Oslash" unicode="&#xd8;" horiz-adv-x="757" 
d="M401 -14q-92 0 -158 42l-64 -73l-78 63l71 81q-49 70 -49 178q0 78 27 155t77.5 138.5t123.5 100t165 38.5q90 0 156 -42l62 71l78 -63l-68 -78q24 -35 37 -80t13 -99q0 -78 -26.5 -155.5t-77 -139t-123.5 -99.5t-166 -38zM639 412q0 32 -6 59l-297 -336q29 -20 75 -20
t87.5 25.5t72.5 67.5t49.5 95t18.5 109zM505 580q-47 0 -88 -26t-72 -68t-49 -95.5t-18 -108.5q0 -16 1 -30t4 -27l295 335q-29 20 -73 20z" />
    <glyph glyph-name="Ugrave" unicode="&#xd9;" horiz-adv-x="683" 
d="M668 252q-34 -141 -110.5 -203.5t-202.5 -62.5q-65 0 -109.5 15.5t-72.5 43t-40.5 66t-12.5 83.5q0 52 15 111l93 388h156l-98 -410q-10 -36 -10 -73q0 -20 4.5 -36t16 -28t31 -18.5t48.5 -6.5q60 0 91 37.5t48 106.5l102 428h156zM443 959l135 -165l-64 -58l-163 144z
" />
    <glyph glyph-name="Uacute" unicode="&#xda;" horiz-adv-x="683" 
d="M668 252q-34 -141 -110.5 -203.5t-202.5 -62.5q-65 0 -109.5 15.5t-72.5 43t-40.5 66t-12.5 83.5q0 52 15 111l93 388h156l-98 -410q-10 -36 -10 -73q0 -20 4.5 -36t16 -28t31 -18.5t48.5 -6.5q60 0 91 37.5t48 106.5l102 428h156zM641 872l-177 -136l-60 62l160 161z
" />
    <glyph glyph-name="Ucircumflex" unicode="&#xdb;" horiz-adv-x="683" 
d="M668 252q-34 -141 -110.5 -203.5t-202.5 -62.5q-65 0 -109.5 15.5t-72.5 43t-40.5 66t-12.5 83.5q0 52 15 111l93 388h156l-98 -410q-10 -36 -10 -73q0 -20 4.5 -36t16 -28t31 -18.5t48.5 -6.5q60 0 91 37.5t48 106.5l102 428h156zM671 795l-60 -53l-83 78l-113 -76
l-46 61l179 145z" />
    <glyph glyph-name="Udieresis" unicode="&#xdc;" horiz-adv-x="683" 
d="M668 252q-34 -141 -110.5 -203.5t-202.5 -62.5q-65 0 -109.5 15.5t-72.5 43t-40.5 66t-12.5 83.5q0 52 15 111l93 388h156l-98 -410q-10 -36 -10 -73q0 -20 4.5 -36t16 -28t31 -18.5t48.5 -6.5q60 0 91 37.5t48 106.5l102 428h156zM402 762q-29 0 -48 18t-19 48
q0 19 7 35t18.5 27t26 17.5t29.5 6.5q28 0 48 -18.5t20 -49.5q0 -18 -7.5 -33.5t-19.5 -27t-26.5 -17.5t-28.5 -6zM624 762q-29 0 -48 18t-19 48q0 19 7 35t18.5 27t26 17.5t29.5 6.5q28 0 48 -18.5t20 -49.5q0 -18 -7.5 -33.5t-19.5 -27t-26.5 -17.5t-28.5 -6z" />
    <glyph glyph-name="Yacute" unicode="&#xdd;" horiz-adv-x="652" 
d="M413 408q29 37 55.5 71.5t51.5 69t49.5 70t50.5 74.5h172q-42 -59 -81 -112t-78 -103.5t-80 -100.5t-87 -103l-66 -274h-156l66 274q-42 106 -76 207t-64 212h166q16 -72 35 -141t42 -144zM624 872l-177 -136l-60 62l160 161z" />
    <glyph glyph-name="Thorn" unicode="&#xde;" horiz-adv-x="643" 
d="M453 596q63 0 108 -16t74.5 -43t43.5 -62t14 -73q0 -46 -19.5 -94.5t-63 -88.5t-113 -65.5t-168.5 -25.5h-69l-31 -128h-155l166 693h156l-24 -100q7 1 18.5 1.5t23.5 1t22.5 0.5h16.5zM403 464q-17 0 -34 -1t-29 -2l-48 -200h49q42 0 77 6.5t60.5 21.5t39.5 40t14 63
q0 41 -35 56.5t-94 15.5z" />
    <glyph glyph-name="germandbls" unicode="&#xdf;" horiz-adv-x="637" 
d="M209 568q13 57 39.5 96.5t61.5 64.5t76.5 36t84.5 11q40 0 77.5 -10.5t66 -29.5t45.5 -46.5t17 -61.5t-15.5 -68t-48.5 -65q-15 -14 -29.5 -27t-26 -26t-19 -27t-7.5 -29q0 -21 19 -36.5t43 -33.5l20 -15q27 -20 41 -51t14 -66q0 -50 -20 -87t-53 -61t-75.5 -36
t-87.5 -12q-40 0 -78.5 9t-71.5 27l53 117q29 -17 55 -24t48 -7q37 0 59 16.5t22 41.5q0 13 -8 26.5t-25 26.5l-45 33q-39 29 -51 56t-12 56q0 30 11.5 54t29 44t38 36.5t38 33t29 33.5t11.5 38q0 23 -22 34t-51 11q-36 0 -67 -23t-45 -79l-95 -399q-34 -143 -74 -222.5
t-88 -115.5l-129 19q26 24 48 59t39.5 74t30 79.5t20.5 75.5z" />
    <glyph glyph-name="agrave" unicode="&#xe0;" horiz-adv-x="588" 
d="M563 227q-14 -57 -8 -114.5t23 -102.5l-133 -19q-6 12 -11 23t-10 25q-28 -23 -62 -38t-76 -15q-50 0 -85.5 17.5t-58 47t-32.5 69t-10 84.5q0 69 24.5 130t68 106.5t102.5 71.5t128 26q9 0 31.5 -1t51.5 -4.5t61 -11.5t61 -22zM459 411q-13 2 -23.5 3t-25.5 1
q-34 0 -63.5 -17t-51.5 -44.5t-34.5 -63.5t-12.5 -75q0 -48 16 -76t59 -28q23 0 41.5 9t39.5 30q2 25 6.5 52.5t9.5 50.5zM445 799l135 -165l-64 -58l-163 144z" />
    <glyph glyph-name="aacute" unicode="&#xe1;" horiz-adv-x="588" 
d="M563 227q-14 -57 -8 -114.5t23 -102.5l-133 -19q-6 12 -11 23t-10 25q-28 -23 -62 -38t-76 -15q-50 0 -85.5 17.5t-58 47t-32.5 69t-10 84.5q0 69 24.5 130t68 106.5t102.5 71.5t128 26q9 0 31.5 -1t51.5 -4.5t61 -11.5t61 -22zM459 411q-13 2 -23.5 3t-25.5 1
q-34 0 -63.5 -17t-51.5 -44.5t-34.5 -63.5t-12.5 -75q0 -48 16 -76t59 -28q23 0 41.5 9t39.5 30q2 25 6.5 52.5t9.5 50.5zM592 712l-177 -136l-60 62l160 161z" />
    <glyph glyph-name="acircumflex" unicode="&#xe2;" horiz-adv-x="588" 
d="M563 227q-14 -57 -8 -114.5t23 -102.5l-133 -19q-6 12 -11 23t-10 25q-28 -23 -62 -38t-76 -15q-50 0 -85.5 17.5t-58 47t-32.5 69t-10 84.5q0 69 24.5 130t68 106.5t102.5 71.5t128 26q9 0 31.5 -1t51.5 -4.5t61 -11.5t61 -22zM459 411q-13 2 -23.5 3t-25.5 1
q-34 0 -63.5 -17t-51.5 -44.5t-34.5 -63.5t-12.5 -75q0 -48 16 -76t59 -28q23 0 41.5 9t39.5 30q2 25 6.5 52.5t9.5 50.5zM593 629l-60 -53l-83 78l-113 -76l-46 61l179 145z" />
    <glyph glyph-name="atilde" unicode="&#xe3;" horiz-adv-x="588" 
d="M563 227q-14 -57 -8 -114.5t23 -102.5l-133 -19q-6 12 -11 23t-10 25q-28 -23 -62 -38t-76 -15q-50 0 -85.5 17.5t-58 47t-32.5 69t-10 84.5q0 69 24.5 130t68 106.5t102.5 71.5t128 26q9 0 31.5 -1t51.5 -4.5t61 -11.5t61 -22zM459 411q-13 2 -23.5 3t-25.5 1
q-34 0 -63.5 -17t-51.5 -44.5t-34.5 -63.5t-12.5 -75q0 -48 16 -76t59 -28q23 0 41.5 9t39.5 30q2 25 6.5 52.5t9.5 50.5zM510 607q-19 0 -34 5.5t-28 12t-25 12t-24 5.5q-14 0 -25.5 -8t-28.5 -33l-67 41q23 54 55 80.5t78 26.5q19 0 34 -5.5t28 -12t25 -12t24 -5.5
q14 0 25.5 8t28.5 33l67 -41q-23 -54 -55 -80.5t-78 -26.5z" />
    <glyph glyph-name="adieresis" unicode="&#xe4;" horiz-adv-x="588" 
d="M563 227q-14 -57 -8 -114.5t23 -102.5l-133 -19q-6 12 -11 23t-10 25q-28 -23 -62 -38t-76 -15q-50 0 -85.5 17.5t-58 47t-32.5 69t-10 84.5q0 69 24.5 130t68 106.5t102.5 71.5t128 26q9 0 31.5 -1t51.5 -4.5t61 -11.5t61 -22zM459 411q-13 2 -23.5 3t-25.5 1
q-34 0 -63.5 -17t-51.5 -44.5t-34.5 -63.5t-12.5 -75q0 -48 16 -76t59 -28q23 0 41.5 9t39.5 30q2 25 6.5 52.5t9.5 50.5zM325 602q-29 0 -48 18t-19 48q0 19 7 35t18.5 27t26 17.5t29.5 6.5q28 0 48 -18.5t20 -49.5q0 -18 -7.5 -33.5t-19.5 -27t-26.5 -17.5t-28.5 -6z
M547 602q-29 0 -48 18t-19 48q0 19 7 35t18.5 27t26 17.5t29.5 6.5q28 0 48 -18.5t20 -49.5q0 -18 -7.5 -33.5t-19.5 -27t-26.5 -17.5t-28.5 -6z" />
    <glyph glyph-name="aring" unicode="&#xe5;" horiz-adv-x="588" 
d="M563 227q-14 -57 -8 -114.5t23 -102.5l-133 -19q-6 12 -11 23t-10 25q-28 -23 -62 -38t-76 -15q-50 0 -85.5 17.5t-58 47t-32.5 69t-10 84.5q0 69 24.5 130t68 106.5t102.5 71.5t128 26q9 0 31.5 -1t51.5 -4.5t61 -11.5t61 -22zM459 411q-13 2 -23.5 3t-25.5 1
q-34 0 -63.5 -17t-51.5 -44.5t-34.5 -63.5t-12.5 -75q0 -48 16 -76t59 -28q23 0 41.5 9t39.5 30q2 25 6.5 52.5t9.5 50.5zM570 699q0 -28 -9.5 -49.5t-26 -36t-38 -22t-45.5 -7.5q-23 0 -44 7.5t-37.5 22t-26 36t-9.5 49.5t9.5 49.5t26 36t37.5 22t44 7.5q24 0 45.5 -7.5
t38 -22t26 -36t9.5 -49.5zM497 699q0 23 -14 35t-32 12q-17 0 -31 -12t-14 -35t14 -35t31 -12q18 0 32 12t14 35z" />
    <glyph glyph-name="ae" unicode="&#xe6;" horiz-adv-x="837" 
d="M176 511q35 12 77 20.5t84 8.5q57 0 106 -19t79 -68q19 21 43 37.5t50 27.5t53.5 16.5t53.5 5.5q33 0 63 -9t52.5 -27.5t36 -46.5t13.5 -65q0 -56 -24.5 -95t-68.5 -63.5t-104 -35.5t-132 -11q7 -42 30.5 -59.5t74.5 -17.5q32 0 65 5.5t62 16.5l11 -117
q-38 -13 -79.5 -21t-83.5 -8q-55 0 -103 18.5t-80 66.5q-17 -20 -40.5 -36t-50 -27t-54.5 -16.5t-55 -5.5q-33 0 -62.5 8.5t-52.5 26.5t-36.5 46t-13.5 67q0 56 24.5 95t68.5 63.5t104 35.5t132 11q-7 42 -30.5 59.5t-74.5 17.5q-32 0 -65 -5.5t-62 -16.5zM279 104
q51 0 87.5 36.5t48.5 96.5q-62 -2 -99.5 -10.5t-57.5 -20.5t-26.5 -26.5t-6.5 -27.5q0 -48 54 -48zM698 422q-51 0 -87.5 -36.5t-48.5 -96.5q62 2 99.5 10.5t57.5 20.5t26.5 26t6.5 28q0 48 -54 48z" />
    <glyph glyph-name="ccedilla" unicode="&#xe7;" horiz-adv-x="480" 
d="M100 210q0 68 22 128t63 105t99.5 71t130.5 26q45 0 80.5 -8.5t64.5 -22.5l-51 -116q-20 8 -41.5 14.5t-52.5 6.5q-75 0 -118 -50.5t-43 -137.5q0 -51 22 -82.5t81 -31.5q29 0 56 6t48 15l11 -119q-26 -10 -57 -18t-73 -10q-6 -8 -11 -16t-9 -14q22 -11 33 -29t11 -38
q0 -29 -11.5 -50t-31 -34.5t-44.5 -19.5t-51 -6q-27 0 -53.5 6t-47.5 17l36 82q13 -6 29.5 -10t31.5 -4q40 0 40 24q0 11 -7 18t-23 14l-20 9l40 60q-41 10 -70 30.5t-48 49t-27.5 63t-8.5 72.5z" />
    <glyph glyph-name="egrave" unicode="&#xe8;" horiz-adv-x="530" 
d="M100 206q0 64 22.5 124t63.5 106.5t99.5 75t129.5 28.5q35 0 65 -10t52.5 -29t35 -46.5t12.5 -62.5q0 -56 -25 -95t-69.5 -63.5t-105.5 -35.5t-133 -11q7 -42 30.5 -59.5t74.5 -17.5q32 0 65 5.5t62 16.5l11 -117q-28 -11 -71.5 -20t-94.5 -9q-62 0 -104.5 17.5t-69 47.5
t-38.5 70t-12 85zM391 422q-51 0 -89.5 -36.5t-50.5 -96.5q62 2 100 10.5t59 20.5t28 26t7 28q0 48 -54 48zM386 799l135 -165l-64 -58l-163 144z" />
    <glyph glyph-name="eacute" unicode="&#xe9;" horiz-adv-x="530" 
d="M100 206q0 64 22.5 124t63.5 106.5t99.5 75t129.5 28.5q35 0 65 -10t52.5 -29t35 -46.5t12.5 -62.5q0 -56 -25 -95t-69.5 -63.5t-105.5 -35.5t-133 -11q7 -42 30.5 -59.5t74.5 -17.5q32 0 65 5.5t62 16.5l11 -117q-28 -11 -71.5 -20t-94.5 -9q-62 0 -104.5 17.5t-69 47.5
t-38.5 70t-12 85zM391 422q-51 0 -89.5 -36.5t-50.5 -96.5q62 2 100 10.5t59 20.5t28 26t7 28q0 48 -54 48zM541 712l-177 -136l-60 62l160 161z" />
    <glyph glyph-name="ecircumflex" unicode="&#xea;" horiz-adv-x="530" 
d="M100 206q0 64 22.5 124t63.5 106.5t99.5 75t129.5 28.5q35 0 65 -10t52.5 -29t35 -46.5t12.5 -62.5q0 -56 -25 -95t-69.5 -63.5t-105.5 -35.5t-133 -11q7 -42 30.5 -59.5t74.5 -17.5q32 0 65 5.5t62 16.5l11 -117q-28 -11 -71.5 -20t-94.5 -9q-62 0 -104.5 17.5t-69 47.5
t-38.5 70t-12 85zM391 422q-51 0 -89.5 -36.5t-50.5 -96.5q62 2 100 10.5t59 20.5t28 26t7 28q0 48 -54 48zM576 629l-60 -53l-83 78l-113 -76l-46 61l179 145z" />
    <glyph glyph-name="edieresis" unicode="&#xeb;" horiz-adv-x="530" 
d="M100 206q0 64 22.5 124t63.5 106.5t99.5 75t129.5 28.5q35 0 65 -10t52.5 -29t35 -46.5t12.5 -62.5q0 -56 -25 -95t-69.5 -63.5t-105.5 -35.5t-133 -11q7 -42 30.5 -59.5t74.5 -17.5q32 0 65 5.5t62 16.5l11 -117q-28 -11 -71.5 -20t-94.5 -9q-62 0 -104.5 17.5t-69 47.5
t-38.5 70t-12 85zM391 422q-51 0 -89.5 -36.5t-50.5 -96.5q62 2 100 10.5t59 20.5t28 26t7 28q0 48 -54 48zM333 602q-29 0 -48 18t-19 48q0 19 7 35t18.5 27t26 17.5t29.5 6.5q28 0 48 -18.5t20 -49.5q0 -18 -7.5 -33.5t-19.5 -27t-26.5 -17.5t-28.5 -6zM555 602
q-29 0 -48 18t-19 48q0 19 7 35t18.5 27t26 17.5t29.5 6.5q28 0 48 -18.5t20 -49.5q0 -18 -7.5 -33.5t-19.5 -27t-26.5 -17.5t-28.5 -6z" />
    <glyph glyph-name="igrave" unicode="&#xec;" horiz-adv-x="283" 
d="M218 0h-148l125 526h149zM218 799l135 -165l-64 -58l-163 144z" />
    <glyph glyph-name="iacute" unicode="&#xed;" horiz-adv-x="283" 
d="M218 0h-148l125 526h149zM433 712l-177 -136l-60 62l160 161z" />
    <glyph glyph-name="icircumflex" unicode="&#xee;" horiz-adv-x="283" 
d="M218 0h-148l125 526h149zM445 629l-60 -53l-83 78l-113 -76l-46 61l179 145z" />
    <glyph glyph-name="idieresis" unicode="&#xef;" horiz-adv-x="283" 
d="M218 0h-148l125 526h149zM188 602q-29 0 -48 18t-19 48q0 19 7 35t18.5 27t26 17.5t29.5 6.5q28 0 48 -18.5t20 -49.5q0 -18 -7.5 -33.5t-19.5 -27t-26.5 -17.5t-28.5 -6zM410 602q-29 0 -48 18t-19 48q0 19 7 35t18.5 27t26 17.5t29.5 6.5q28 0 48 -18.5t20 -49.5
q0 -18 -7.5 -33.5t-19.5 -27t-26.5 -17.5t-28.5 -6z" />
    <glyph glyph-name="eth" unicode="&#xf0;" horiz-adv-x="606" 
d="M587 612q23 -48 33 -101.5t10 -113.5q0 -85 -20 -160t-60.5 -130.5t-101.5 -88t-143 -32.5q-49 0 -87 17t-64.5 46t-40 68.5t-13.5 83.5q0 81 25 136t64.5 88.5t88 48.5t96.5 15q32 0 61 -6.5t53 -17.5q-3 30 -8.5 56.5t-16.5 51.5l-118 -38l-11 83l84 27
q-14 16 -31.5 32t-40.5 32l99 67q57 -38 98 -91l143 47l10 -85zM323 115q36 0 63 20.5t45.5 53.5t29 74.5t13.5 82.5q-53 25 -96 25q-32 0 -56 -13t-40 -36t-24 -53.5t-8 -65.5q0 -36 17.5 -62t55.5 -26z" />
    <glyph glyph-name="ntilde" unicode="&#xf1;" horiz-adv-x="567" 
d="M191 502q17 5 37.5 11.5t46 12t57 9t71.5 3.5q118 0 162 -68t15 -186l-68 -284h-149l66 278q6 26 9.5 50.5t-0.5 43t-18.5 30t-44.5 11.5q-29 0 -59 -6l-97 -407h-149zM486 607q-19 0 -34 5.5t-28 12t-25 12t-24 5.5q-14 0 -25.5 -8t-28.5 -33l-67 41q23 54 55 80.5
t78 26.5q19 0 34 -5.5t28 -12t25 -12t24 -5.5q14 0 25.5 8t28.5 33l67 -41q-23 -54 -55 -80.5t-78 -26.5z" />
    <glyph glyph-name="ograve" unicode="&#xf2;" horiz-adv-x="574" 
d="M308 -14q-53 0 -92 16t-64.5 45t-38.5 68.5t-13 87.5q0 60 19.5 120t57.5 108t93 78.5t126 30.5q52 0 91.5 -16t65 -45t38.5 -68.5t13 -87.5q0 -60 -19 -120t-56 -108t-92.5 -78.5t-128.5 -30.5zM382 414q-33 0 -58 -19t-42 -48t-25.5 -63.5t-8.5 -65.5q0 -51 16 -78.5
t58 -27.5q33 0 58 19t42 48t25.5 63.5t8.5 65.5q0 51 -16 78.5t-58 27.5zM365 799l135 -165l-64 -58l-163 144z" />
    <glyph glyph-name="oacute" unicode="&#xf3;" horiz-adv-x="574" 
d="M308 -14q-53 0 -92 16t-64.5 45t-38.5 68.5t-13 87.5q0 60 19.5 120t57.5 108t93 78.5t126 30.5q52 0 91.5 -16t65 -45t38.5 -68.5t13 -87.5q0 -60 -19 -120t-56 -108t-92.5 -78.5t-128.5 -30.5zM382 414q-33 0 -58 -19t-42 -48t-25.5 -63.5t-8.5 -65.5q0 -51 16 -78.5
t58 -27.5q33 0 58 19t42 48t25.5 63.5t8.5 65.5q0 51 -16 78.5t-58 27.5zM560 712l-177 -136l-60 62l160 161z" />
    <glyph glyph-name="ocircumflex" unicode="&#xf4;" horiz-adv-x="574" 
d="M308 -14q-53 0 -92 16t-64.5 45t-38.5 68.5t-13 87.5q0 60 19.5 120t57.5 108t93 78.5t126 30.5q52 0 91.5 -16t65 -45t38.5 -68.5t13 -87.5q0 -60 -19 -120t-56 -108t-92.5 -78.5t-128.5 -30.5zM382 414q-33 0 -58 -19t-42 -48t-25.5 -63.5t-8.5 -65.5q0 -51 16 -78.5
t58 -27.5q33 0 58 19t42 48t25.5 63.5t8.5 65.5q0 51 -16 78.5t-58 27.5zM576 629l-60 -53l-83 78l-113 -76l-46 61l179 145z" />
    <glyph glyph-name="otilde" unicode="&#xf5;" horiz-adv-x="574" 
d="M308 -14q-53 0 -92 16t-64.5 45t-38.5 68.5t-13 87.5q0 60 19.5 120t57.5 108t93 78.5t126 30.5q52 0 91.5 -16t65 -45t38.5 -68.5t13 -87.5q0 -60 -19 -120t-56 -108t-92.5 -78.5t-128.5 -30.5zM382 414q-33 0 -58 -19t-42 -48t-25.5 -63.5t-8.5 -65.5q0 -51 16 -78.5
t58 -27.5q33 0 58 19t42 48t25.5 63.5t8.5 65.5q0 51 -16 78.5t-58 27.5zM476 607q-19 0 -34 5.5t-28 12t-25 12t-24 5.5q-14 0 -25.5 -8t-28.5 -33l-67 41q23 54 55 80.5t78 26.5q19 0 34 -5.5t28 -12t25 -12t24 -5.5q14 0 25.5 8t28.5 33l67 -41q-23 -54 -55 -80.5
t-78 -26.5z" />
    <glyph glyph-name="odieresis" unicode="&#xf6;" horiz-adv-x="574" 
d="M308 -14q-53 0 -92 16t-64.5 45t-38.5 68.5t-13 87.5q0 60 19.5 120t57.5 108t93 78.5t126 30.5q52 0 91.5 -16t65 -45t38.5 -68.5t13 -87.5q0 -60 -19 -120t-56 -108t-92.5 -78.5t-128.5 -30.5zM382 414q-33 0 -58 -19t-42 -48t-25.5 -63.5t-8.5 -65.5q0 -51 16 -78.5
t58 -27.5q33 0 58 19t42 48t25.5 63.5t8.5 65.5q0 51 -16 78.5t-58 27.5zM308 602q-29 0 -48 18t-19 48q0 19 7 35t18.5 27t26 17.5t29.5 6.5q28 0 48 -18.5t20 -49.5q0 -18 -7.5 -33.5t-19.5 -27t-26.5 -17.5t-28.5 -6zM530 602q-29 0 -48 18t-19 48q0 19 7 35t18.5 27
t26 17.5t29.5 6.5q28 0 48 -18.5t20 -49.5q0 -18 -7.5 -33.5t-19.5 -27t-26.5 -17.5t-28.5 -6z" />
    <glyph glyph-name="divide" unicode="&#xf7;" horiz-adv-x="568" 
d="M121 361h470l-31 -125h-470zM296 181q32 0 53.5 -18t21.5 -56q0 -45 -28.5 -70.5t-64.5 -25.5q-32 0 -53.5 18t-21.5 56q0 45 28.5 70.5t64.5 25.5zM393 585q32 0 53.5 -18t21.5 -56q0 -45 -28.5 -70.5t-64.5 -25.5q-32 0 -53.5 18t-21.5 56q0 45 28.5 70.5t64.5 25.5z
" />
    <glyph glyph-name="oslash" unicode="&#xf8;" horiz-adv-x="574" 
d="M274 116q20 -7 44 -7q39 0 66 19.5t44 51t24.5 70.5t7.5 78zM308 -14q-38 0 -68 8.5t-54 22.5l-49 -56l-65 53l57 65q-29 53 -29 124q0 60 19.5 120t57.5 108t93 78.5t126 30.5q34 0 62.5 -7t51.5 -20l46 53l65 -53l-51 -58q17 -26 25.5 -60t8.5 -72q0 -60 -19 -120
t-56 -108t-92.5 -78.5t-128.5 -30.5zM425 416q-20 7 -44 7q-39 0 -66 -19.5t-44 -51t-24.5 -70.5t-7.5 -78z" />
    <glyph glyph-name="ugrave" unicode="&#xf9;" horiz-adv-x="581" 
d="M621 526l-71 -299q-14 -57 -8 -114.5t23 -102.5l-133 -19q-11 22 -21 49q-28 -22 -63 -37t-78 -15q-59 0 -95.5 21.5t-54.5 57t-19.5 81.5t10.5 94l68 284h149l-67 -282q-5 -22 -8.5 -45t-0.5 -42.5t15.5 -32t39.5 -12.5q23 0 42.5 8.5t41.5 29.5q2 25 6.5 52.5t9.5 50.5
l65 273h149zM346 799l135 -165l-64 -58l-163 144z" />
    <glyph glyph-name="uacute" unicode="&#xfa;" horiz-adv-x="581" 
d="M621 526l-71 -299q-14 -57 -8 -114.5t23 -102.5l-133 -19q-11 22 -21 49q-28 -22 -63 -37t-78 -15q-59 0 -95.5 21.5t-54.5 57t-19.5 81.5t10.5 94l68 284h149l-67 -282q-5 -22 -8.5 -45t-0.5 -42.5t15.5 -32t39.5 -12.5q23 0 42.5 8.5t41.5 29.5q2 25 6.5 52.5t9.5 50.5
l65 273h149zM567 712l-177 -136l-60 62l160 161z" />
    <glyph glyph-name="ucircumflex" unicode="&#xfb;" horiz-adv-x="581" 
d="M621 526l-71 -299q-14 -57 -8 -114.5t23 -102.5l-133 -19q-11 22 -21 49q-28 -22 -63 -37t-78 -15q-59 0 -95.5 21.5t-54.5 57t-19.5 81.5t10.5 94l68 284h149l-67 -282q-5 -22 -8.5 -45t-0.5 -42.5t15.5 -32t39.5 -12.5q23 0 42.5 8.5t41.5 29.5q2 25 6.5 52.5t9.5 50.5
l65 273h149zM582 629l-60 -53l-83 78l-113 -76l-46 61l179 145z" />
    <glyph glyph-name="udieresis" unicode="&#xfc;" horiz-adv-x="581" 
d="M621 526l-71 -299q-14 -57 -8 -114.5t23 -102.5l-133 -19q-11 22 -21 49q-28 -22 -63 -37t-78 -15q-59 0 -95.5 21.5t-54.5 57t-19.5 81.5t10.5 94l68 284h149l-67 -282q-5 -22 -8.5 -45t-0.5 -42.5t15.5 -32t39.5 -12.5q23 0 42.5 8.5t41.5 29.5q2 25 6.5 52.5t9.5 50.5
l65 273h149zM311 602q-29 0 -48 18t-19 48q0 19 7 35t18.5 27t26 17.5t29.5 6.5q28 0 48 -18.5t20 -49.5q0 -18 -7.5 -33.5t-19.5 -27t-26.5 -17.5t-28.5 -6zM533 602q-29 0 -48 18t-19 48q0 19 7 35t18.5 27t26 17.5t29.5 6.5q28 0 48 -18.5t20 -49.5q0 -18 -7.5 -33.5
t-19.5 -27t-26.5 -17.5t-28.5 -6z" />
    <glyph glyph-name="yacute" unicode="&#xfd;" horiz-adv-x="532" 
d="M632 526q-28 -76 -56.5 -142t-59.5 -125.5t-64 -113.5t-70 -107q-27 -39 -56 -79t-64.5 -72t-79 -52t-100.5 -20q-35 0 -60 6.5t-47 17.5l45 117q20 -8 36 -12.5t39 -4.5q35 0 66.5 22.5t52.5 60.5q-26 100 -47.5 224t-29.5 280h153q1 -39 4 -86t7 -94.5t9 -92.5t11 -81
q48 72 84.5 160t68.5 194h158zM541 712l-177 -136l-60 62l160 161z" />
    <glyph glyph-name="thorn" unicode="&#xfe;" horiz-adv-x="578" 
d="M347 536q11 1 23 1.5t24 0.5q56 0 96.5 -17t66.5 -46.5t38.5 -69t12.5 -84.5q0 -73 -23.5 -134t-66.5 -104.5t-102 -68t-130 -24.5q-33 0 -69 6l-43 -181h-148l224 937l155 24zM375 413q-31 0 -59 -6l-70 -292q11 -2 21 -2.5t20 -0.5q41 0 73 14.5t54.5 40.5t34 62.5
t11.5 80.5q0 43 -19 73t-66 30z" />
    <glyph glyph-name="ydieresis" unicode="&#xff;" horiz-adv-x="532" 
d="M632 526q-28 -76 -56.5 -142t-59.5 -125.5t-64 -113.5t-70 -107q-27 -39 -56 -79t-64.5 -72t-79 -52t-100.5 -20q-35 0 -60 6.5t-47 17.5l45 117q20 -8 36 -12.5t39 -4.5q35 0 66.5 22.5t52.5 60.5q-26 100 -47.5 224t-29.5 280h153q1 -39 4 -86t7 -94.5t9 -92.5t11 -81
q48 72 84.5 160t68.5 194h158zM298 602q-29 0 -48 18t-19 48q0 19 7 35t18.5 27t26 17.5t29.5 6.5q28 0 48 -18.5t20 -49.5q0 -18 -7.5 -33.5t-19.5 -27t-26.5 -17.5t-28.5 -6zM520 602q-29 0 -48 18t-19 48q0 19 7 35t18.5 27t26 17.5t29.5 6.5q28 0 48 -18.5t20 -49.5
q0 -18 -7.5 -33.5t-19.5 -27t-26.5 -17.5t-28.5 -6z" />
    <glyph glyph-name="Amacron" unicode="&#x100;" horiz-adv-x="714" 
d="M532 0q-2 39 -4.5 76.5t-5.5 74.5h-260q-20 -37 -42 -74.5t-42 -76.5h-163q65 112 121.5 207t109 179t102.5 159.5t102 147.5h139q16 -72 30.5 -159.5t27 -179t23 -183t19.5 -171.5h-157zM486 541q-42 -67 -82.5 -133t-78.5 -135h187q-5 61 -10.5 130t-15.5 138zM404 878
h322l-25 -102h-322z" />
    <glyph glyph-name="amacron" unicode="&#x101;" horiz-adv-x="588" 
d="M563 227q-14 -57 -8 -114.5t23 -102.5l-133 -19q-6 12 -11 23t-10 25q-28 -23 -62 -38t-76 -15q-50 0 -85.5 17.5t-58 47t-32.5 69t-10 84.5q0 69 24.5 130t68 106.5t102.5 71.5t128 26q9 0 31.5 -1t51.5 -4.5t61 -11.5t61 -22zM459 411q-13 2 -23.5 3t-25.5 1
q-34 0 -63.5 -17t-51.5 -44.5t-34.5 -63.5t-12.5 -75q0 -48 16 -76t59 -28q23 0 41.5 9t39.5 30q2 25 6.5 52.5t9.5 50.5zM323 725h322l-25 -102h-322z" />
    <glyph glyph-name="Abreve" unicode="&#x102;" horiz-adv-x="714" 
d="M532 0q-2 39 -4.5 76.5t-5.5 74.5h-260q-20 -37 -42 -74.5t-42 -76.5h-163q65 112 121.5 207t109 179t102.5 159.5t102 147.5h139q16 -72 30.5 -159.5t27 -179t23 -183t19.5 -171.5h-157zM486 541q-42 -67 -82.5 -133t-78.5 -135h187q-5 61 -10.5 130t-15.5 138zM497 917
q-1 -5 -1.5 -10t-0.5 -10q0 -24 10.5 -37.5t35.5 -13.5q24 0 42.5 18t24.5 53h102q-3 -42 -20 -73t-42 -51.5t-55.5 -31t-61.5 -10.5q-27 0 -52 8t-44.5 24.5t-31 41.5t-11.5 58q0 19 4 34h101z" />
    <glyph glyph-name="abreve" unicode="&#x103;" horiz-adv-x="588" 
d="M563 227q-14 -57 -8 -114.5t23 -102.5l-133 -19q-6 12 -11 23t-10 25q-28 -23 -62 -38t-76 -15q-50 0 -85.5 17.5t-58 47t-32.5 69t-10 84.5q0 69 24.5 130t68 106.5t102.5 71.5t128 26q9 0 31.5 -1t51.5 -4.5t61 -11.5t61 -22zM459 411q-13 2 -23.5 3t-25.5 1
q-34 0 -63.5 -17t-51.5 -44.5t-34.5 -63.5t-12.5 -75q0 -48 16 -76t59 -28q23 0 41.5 9t39.5 30q2 25 6.5 52.5t9.5 50.5zM438 764q-1 -5 -1.5 -10t-0.5 -10q0 -24 10.5 -37.5t35.5 -13.5q24 0 42.5 18t24.5 53h102q-3 -42 -20 -73t-42 -51.5t-55.5 -31t-61.5 -10.5
q-27 0 -52 8t-44.5 24.5t-31 41.5t-11.5 58q0 19 4 34h101z" />
    <glyph glyph-name="Aogonek" unicode="&#x104;" horiz-adv-x="714" 
d="M532 0q-2 39 -4.5 76.5t-5.5 74.5h-260q-20 -37 -42 -74.5t-42 -76.5h-163q65 112 121.5 207t109 179t102.5 159.5t102 147.5h139q16 -72 30.5 -159.5t27 -179t23 -183t19.5 -171.5l-4 -3q-51 -35 -71 -58t-20 -36q0 -16 25 -16q14 0 30 4.5t23 6.5l-10 -99
q-20 -9 -44.5 -14.5t-50.5 -5.5q-21 0 -41 4.5t-35.5 14.5t-24.5 26t-9 40q0 30 21 62t69 61l22 13h-37zM486 541q-42 -67 -82.5 -133t-78.5 -135h187q-5 61 -10.5 130t-15.5 138z" />
    <glyph glyph-name="aogonek" unicode="&#x105;" horiz-adv-x="588" 
d="M563 227q-14 -57 -8 -114.5t23 -102.5l-19 -13q-51 -35 -71 -58t-20 -36q0 -16 25 -16q14 0 30 4.5t23 6.5l-10 -99q-20 -9 -44.5 -14.5t-50.5 -5.5q-21 0 -41 4.5t-35.5 14.5t-24.5 26t-9 40q0 30 21 62t69 61l20 12q-5 9 -9 19t-8 21q-28 -23 -62 -38t-76 -15
q-50 0 -85.5 17.5t-58 47t-32.5 69t-10 84.5q0 69 24.5 130t68 106.5t102.5 71.5t128 26q9 0 31.5 -1t51.5 -4.5t61 -11.5t61 -22zM459 411q-13 2 -23.5 3t-25.5 1q-34 0 -63.5 -17t-51.5 -44.5t-34.5 -63.5t-12.5 -75q0 -48 16 -76t59 -28q23 0 41.5 9t39.5 30
q2 25 6.5 52.5t9.5 50.5z" />
    <glyph glyph-name="Cacute" unicode="&#x106;" horiz-adv-x="638" 
d="M614 30q-41 -20 -91 -32t-122 -12q-62 0 -113.5 20.5t-88 58.5t-56.5 92.5t-20 122.5q0 78 27.5 155t81 137.5t131 98.5t178.5 38q48 0 94.5 -11t97.5 -39l-56 -121q-42 22 -75 30t-71 8q-57 0 -102.5 -23t-78 -62.5t-49.5 -91.5t-17 -110q0 -88 38.5 -128t110.5 -40
q48 0 88.5 10t75.5 26zM642 872l-177 -136l-60 62l160 161z" />
    <glyph glyph-name="cacute" unicode="&#x107;" horiz-adv-x="480" 
d="M100 210q0 68 22 128t63 105t99.5 71t130.5 26q45 0 80.5 -8.5t64.5 -22.5l-51 -116q-20 8 -41.5 14.5t-52.5 6.5q-75 0 -118 -50.5t-43 -137.5q0 -51 22 -82.5t81 -31.5q29 0 56 6t48 15l11 -119q-28 -11 -61.5 -19.5t-81.5 -8.5q-62 0 -105 18t-71 48.5t-40.5 71.5
t-12.5 86zM531 712l-177 -136l-60 62l160 161z" />
    <glyph glyph-name="Ccircumflex" unicode="&#x108;" horiz-adv-x="638" 
d="M614 30q-41 -20 -91 -32t-122 -12q-62 0 -113.5 20.5t-88 58.5t-56.5 92.5t-20 122.5q0 78 27.5 155t81 137.5t131 98.5t178.5 38q48 0 94.5 -11t97.5 -39l-56 -121q-42 22 -75 30t-71 8q-57 0 -102.5 -23t-78 -62.5t-49.5 -91.5t-17 -110q0 -88 38.5 -128t110.5 -40
q48 0 88.5 10t75.5 26zM711 795l-60 -53l-83 78l-113 -76l-46 61l179 145z" />
    <glyph glyph-name="ccircumflex" unicode="&#x109;" horiz-adv-x="480" 
d="M100 210q0 68 22 128t63 105t99.5 71t130.5 26q45 0 80.5 -8.5t64.5 -22.5l-51 -116q-20 8 -41.5 14.5t-52.5 6.5q-75 0 -118 -50.5t-43 -137.5q0 -51 22 -82.5t81 -31.5q29 0 56 6t48 15l11 -119q-28 -11 -61.5 -19.5t-81.5 -8.5q-62 0 -105 18t-71 48.5t-40.5 71.5
t-12.5 86zM574 629l-60 -53l-83 78l-113 -76l-46 61l179 145z" />
    <glyph glyph-name="Cdotaccent" unicode="&#x10a;" horiz-adv-x="638" 
d="M614 30q-41 -20 -91 -32t-122 -12q-62 0 -113.5 20.5t-88 58.5t-56.5 92.5t-20 122.5q0 78 27.5 155t81 137.5t131 98.5t178.5 38q48 0 94.5 -11t97.5 -39l-56 -121q-42 22 -75 30t-71 8q-57 0 -102.5 -23t-78 -62.5t-49.5 -91.5t-17 -110q0 -88 38.5 -128t110.5 -40
q48 0 88.5 10t75.5 26zM565 760q-31 0 -51 18t-20 50q0 42 26.5 65t59.5 23q30 0 51 -18t21 -51q0 -20 -7.5 -36t-20 -27.5t-28 -17.5t-31.5 -6z" />
    <glyph glyph-name="cdotaccent" unicode="&#x10b;" horiz-adv-x="480" 
d="M100 210q0 68 22 128t63 105t99.5 71t130.5 26q45 0 80.5 -8.5t64.5 -22.5l-51 -116q-20 8 -41.5 14.5t-52.5 6.5q-75 0 -118 -50.5t-43 -137.5q0 -51 22 -82.5t81 -31.5q29 0 56 6t48 15l11 -119q-28 -11 -61.5 -19.5t-81.5 -8.5q-62 0 -105 18t-71 48.5t-40.5 71.5
t-12.5 86zM430 600q-31 0 -51 18t-20 50q0 42 26.5 65t59.5 23q30 0 51 -18t21 -51q0 -20 -7.5 -36t-20 -27.5t-28 -17.5t-31.5 -6z" />
    <glyph glyph-name="Ccaron" unicode="&#x10c;" horiz-adv-x="638" 
d="M614 30q-41 -20 -91 -32t-122 -12q-62 0 -113.5 20.5t-88 58.5t-56.5 92.5t-20 122.5q0 78 27.5 155t81 137.5t131 98.5t178.5 38q48 0 94.5 -11t97.5 -39l-56 -121q-42 22 -75 30t-71 8q-57 0 -102.5 -23t-78 -62.5t-49.5 -91.5t-17 -110q0 -88 38.5 -128t110.5 -40
q48 0 88.5 10t75.5 26zM418 901l60 53l83 -78l113 76l46 -61l-179 -145z" />
    <glyph glyph-name="ccaron" unicode="&#x10d;" horiz-adv-x="480" 
d="M100 210q0 68 22 128t63 105t99.5 71t130.5 26q45 0 80.5 -8.5t64.5 -22.5l-51 -116q-20 8 -41.5 14.5t-52.5 6.5q-75 0 -118 -50.5t-43 -137.5q0 -51 22 -82.5t81 -31.5q29 0 56 6t48 15l11 -119q-28 -11 -61.5 -19.5t-81.5 -8.5q-62 0 -105 18t-71 48.5t-40.5 71.5
t-12.5 86zM295 740l60 53l83 -78l113 76l46 -61l-179 -145z" />
    <glyph glyph-name="Dcaron" unicode="&#x10e;" horiz-adv-x="718" 
d="M257 125q11 -1 22.5 -1.5t31.5 -0.5q65 0 117.5 20t89 57.5t56.5 92t20 122.5q0 35 -9 63.5t-29.5 49t-53 31.5t-78.5 11q-30 0 -61 -3zM754 423q0 -101 -33 -181t-94.5 -135.5t-149.5 -85.5t-199 -30q-42 0 -97 5t-106 16l161 669q57 11 109.5 15.5t94.5 4.5
q74 0 132.5 -20t99 -57t61.5 -88t21 -113zM362 901l60 53l83 -78l113 76l46 -61l-179 -145z" />
    <glyph glyph-name="dcaron" unicode="&#x10f;" horiz-adv-x="652" 
d="M287 -14q-50 0 -85.5 17t-58 46.5t-33 69t-10.5 84.5q0 68 24.5 128.5t67.5 105.5t102 71t129 26q18 0 33.5 -2t31.5 -6l54 226l155 24l-132 -549q-14 -57 -8 -114.5t23 -102.5l-133 -19q-6 12 -11 23t-10 25q-28 -23 -62.5 -38t-76.5 -15zM459 407q-6 1 -10.5 2t-9 1.5
t-11.5 0.5h-18q-35 0 -65 -16.5t-51.5 -44.5t-33.5 -63.5t-12 -72.5q0 -48 16.5 -75.5t59.5 -27.5q23 0 42 9t40 30q2 25 6.5 52.5t9.5 50.5zM892 776l-93 -244h-88l55 244h126z" />
    <glyph glyph-name="Dcroat" unicode="&#x110;" horiz-adv-x="718" 
d="M257 125q11 -1 22.5 -1.5t31.5 -0.5q65 0 117.5 20t89 57.5t56.5 92t20 122.5q0 35 -9 63.5t-29.5 49t-53 31.5t-78.5 11q-30 0 -61 -3l-36 -150h127l-27 -115h-128zM754 423q0 -101 -33 -181t-94.5 -135.5t-149.5 -85.5t-199 -30q-42 0 -97 5t-106 16l70 290h-80l26 115
h81l64 264q57 11 109.5 15.5t94.5 4.5q74 0 132.5 -20t99 -57t61.5 -88t21 -113z" />
    <glyph glyph-name="dcroat" unicode="&#x111;" horiz-adv-x="590" 
d="M287 -14q-50 0 -85.5 17t-58 46.5t-33 69t-10.5 84.5q0 68 24.5 128.5t67.5 105.5t102 71t129 26q18 0 33.5 -2t31.5 -6l16 70h-131l22 93h132l15 63l155 24l-21 -87h73l-22 -93h-74l-88 -369q-14 -57 -8 -114.5t23 -102.5l-133 -19q-6 12 -11 23t-10 25
q-28 -23 -62.5 -38t-76.5 -15zM459 407q-6 1 -10.5 2t-9 1.5t-11.5 0.5h-18q-35 0 -65 -16.5t-51.5 -44.5t-33.5 -63.5t-12 -72.5q0 -48 16.5 -75.5t59.5 -27.5q23 0 42 9t40 30q2 25 6.5 52.5t9.5 50.5z" />
    <glyph glyph-name="Emacron" unicode="&#x112;" horiz-adv-x="594" 
d="M75 0l166 693h453l-32 -128h-297l-32 -140h262l-31 -126h-262l-40 -170h320l-32 -129h-475zM353 878h322l-25 -102h-322z" />
    <glyph glyph-name="emacron" unicode="&#x113;" horiz-adv-x="530" 
d="M100 206q0 64 22.5 124t63.5 106.5t99.5 75t129.5 28.5q35 0 65 -10t52.5 -29t35 -46.5t12.5 -62.5q0 -56 -25 -95t-69.5 -63.5t-105.5 -35.5t-133 -11q7 -42 30.5 -59.5t74.5 -17.5q32 0 65 5.5t62 16.5l11 -117q-28 -11 -71.5 -20t-94.5 -9q-62 0 -104.5 17.5t-69 47.5
t-38.5 70t-12 85zM391 422q-51 0 -89.5 -36.5t-50.5 -96.5q62 2 100 10.5t59 20.5t28 26t7 28q0 48 -54 48zM290 725h322l-25 -102h-322z" />
    <glyph glyph-name="Ebreve" unicode="&#x114;" horiz-adv-x="594" 
d="M75 0l166 693h453l-32 -128h-297l-32 -140h262l-31 -126h-262l-40 -170h320l-32 -129h-475zM454 917q-1 -5 -1.5 -10t-0.5 -10q0 -24 10.5 -37.5t35.5 -13.5q24 0 42.5 18t24.5 53h102q-3 -42 -20 -73t-42 -51.5t-55.5 -31t-61.5 -10.5q-27 0 -52 8t-44.5 24.5t-31 41.5
t-11.5 58q0 19 4 34h101z" />
    <glyph glyph-name="ebreve" unicode="&#x115;" horiz-adv-x="530" 
d="M100 206q0 64 22.5 124t63.5 106.5t99.5 75t129.5 28.5q35 0 65 -10t52.5 -29t35 -46.5t12.5 -62.5q0 -56 -25 -95t-69.5 -63.5t-105.5 -35.5t-133 -11q7 -42 30.5 -59.5t74.5 -17.5q32 0 65 5.5t62 16.5l11 -117q-28 -11 -71.5 -20t-94.5 -9q-62 0 -104.5 17.5t-69 47.5
t-38.5 70t-12 85zM391 422q-51 0 -89.5 -36.5t-50.5 -96.5q62 2 100 10.5t59 20.5t28 26t7 28q0 48 -54 48zM402 764q-1 -5 -1.5 -10t-0.5 -10q0 -24 10.5 -37.5t35.5 -13.5q24 0 42.5 18t24.5 53h102q-3 -42 -20 -73t-42 -51.5t-55.5 -31t-61.5 -10.5q-27 0 -52 8
t-44.5 24.5t-31 41.5t-11.5 58q0 19 4 34h101z" />
    <glyph glyph-name="Edotaccent" unicode="&#x116;" horiz-adv-x="594" 
d="M75 0l166 693h453l-32 -128h-297l-32 -140h262l-31 -126h-262l-40 -170h320l-32 -129h-475zM488 760q-31 0 -51 18t-20 50q0 42 26.5 65t59.5 23q30 0 51 -18t21 -51q0 -20 -7.5 -36t-20 -27.5t-28 -17.5t-31.5 -6z" />
    <glyph glyph-name="edotaccent" unicode="&#x117;" horiz-adv-x="530" 
d="M100 206q0 64 22.5 124t63.5 106.5t99.5 75t129.5 28.5q35 0 65 -10t52.5 -29t35 -46.5t12.5 -62.5q0 -56 -25 -95t-69.5 -63.5t-105.5 -35.5t-133 -11q7 -42 30.5 -59.5t74.5 -17.5q32 0 65 5.5t62 16.5l11 -117q-28 -11 -71.5 -20t-94.5 -9q-62 0 -104.5 17.5t-69 47.5
t-38.5 70t-12 85zM391 422q-51 0 -89.5 -36.5t-50.5 -96.5q62 2 100 10.5t59 20.5t28 26t7 28q0 48 -54 48zM428 600q-31 0 -51 18t-20 50q0 42 26.5 65t59.5 23q30 0 51 -18t21 -51q0 -20 -7.5 -36t-20 -27.5t-28 -17.5t-31.5 -6z" />
    <glyph glyph-name="Eogonek" unicode="&#x118;" horiz-adv-x="594" 
d="M75 0l166 693h453l-32 -128h-297l-32 -140h262l-31 -126h-262l-40 -170h320l-32 -129l-4 -3q-51 -35 -71 -58t-20 -36q0 -16 25 -16q14 0 30 4.5t23 6.5l-10 -99q-20 -9 -44.5 -14.5t-50.5 -5.5q-21 0 -41 4.5t-35.5 14.5t-24.5 26t-9 40q0 30 21 62t69 61l22 13h-355z
" />
    <glyph glyph-name="eogonek" unicode="&#x119;" horiz-adv-x="530" 
d="M100 206q0 64 22.5 124t63.5 106.5t99.5 75t129.5 28.5q35 0 65 -10t52.5 -29t35 -46.5t12.5 -62.5q0 -56 -25 -95t-69.5 -63.5t-105.5 -35.5t-133 -11q7 -42 30.5 -59.5t74.5 -17.5q32 0 65 5.5t62 16.5l11 -117l-26 -18q-51 -35 -71 -58t-20 -36q0 -16 25 -16
q14 0 30 4.5t23 6.5l-10 -99q-20 -9 -44.5 -14.5t-50.5 -5.5q-21 0 -41 4.5t-35.5 14.5t-24.5 26t-9 40q0 30 20 61.5t68 60.5q-62 0 -104.5 17.5t-69 47.5t-38.5 70t-12 85zM391 422q-51 0 -89.5 -36.5t-50.5 -96.5q62 2 100 10.5t59 20.5t28 26t7 28q0 48 -54 48z" />
    <glyph glyph-name="Ecaron" unicode="&#x11a;" horiz-adv-x="594" 
d="M75 0l166 693h453l-32 -128h-297l-32 -140h262l-31 -126h-262l-40 -170h320l-32 -129h-475zM351 901l60 53l83 -78l113 76l46 -61l-179 -145z" />
    <glyph glyph-name="ecaron" unicode="&#x11b;" horiz-adv-x="530" 
d="M100 206q0 64 22.5 124t63.5 106.5t99.5 75t129.5 28.5q35 0 65 -10t52.5 -29t35 -46.5t12.5 -62.5q0 -56 -25 -95t-69.5 -63.5t-105.5 -35.5t-133 -11q7 -42 30.5 -59.5t74.5 -17.5q32 0 65 5.5t62 16.5l11 -117q-28 -11 -71.5 -20t-94.5 -9q-62 0 -104.5 17.5t-69 47.5
t-38.5 70t-12 85zM391 422q-51 0 -89.5 -36.5t-50.5 -96.5q62 2 100 10.5t59 20.5t28 26t7 28q0 48 -54 48zM306 740l60 53l83 -78l113 76l46 -61l-179 -145z" />
    <glyph glyph-name="Gcircumflex" unicode="&#x11c;" horiz-adv-x="688" 
d="M429 120q20 0 36 1.5t29 3.5l58 241h156l-84 -347q-28 -11 -81 -21.5t-135 -10.5q-70 0 -123.5 20.5t-89.5 58.5t-54 92t-18 122q0 78 27.5 155t81.5 137.5t134 98.5t184 38q48 0 101.5 -14t96.5 -42l-56 -121q-35 22 -74.5 33t-77.5 11q-61 0 -108.5 -23t-80.5 -62.5
t-50 -91.5t-17 -110q0 -88 36.5 -128.5t108.5 -40.5zM695 795l-60 -53l-83 78l-113 -76l-46 61l179 145z" />
    <glyph glyph-name="gcircumflex" unicode="&#x11d;" horiz-adv-x="567" 
d="M524 66q-15 -65 -39.5 -112.5t-61 -79t-87.5 -47t-119 -15.5q-63 0 -106 11.5t-78 28.5l50 118q31 -14 64.5 -24t82.5 -10q64 0 96.5 28.5t42.5 73.5l4 19q-20 -10 -42.5 -16t-47.5 -6q-47 0 -81 14.5t-55.5 40.5t-32 61.5t-10.5 77.5q0 76 28 134.5t74.5 97.5t107 59
t126.5 20q48 0 95 -10t92 -31zM458 411q-17 4 -42 4q-38 0 -68 -13.5t-51.5 -36.5t-33 -55.5t-11.5 -69.5q0 -18 3 -33.5t11 -27t22 -18.5t35 -7q14 0 37.5 5t42.5 23zM617 629l-60 -53l-83 78l-113 -76l-46 61l179 145z" />
    <glyph glyph-name="Gbreve" unicode="&#x11e;" horiz-adv-x="688" 
d="M429 120q20 0 36 1.5t29 3.5l58 241h156l-84 -347q-28 -11 -81 -21.5t-135 -10.5q-70 0 -123.5 20.5t-89.5 58.5t-54 92t-18 122q0 78 27.5 155t81.5 137.5t134 98.5t184 38q48 0 101.5 -14t96.5 -42l-56 -121q-35 22 -74.5 33t-77.5 11q-61 0 -108.5 -23t-80.5 -62.5
t-50 -91.5t-17 -110q0 -88 36.5 -128.5t108.5 -40.5zM501 917q-1 -5 -1.5 -10t-0.5 -10q0 -24 10.5 -37.5t35.5 -13.5q24 0 42.5 18t24.5 53h102q-3 -42 -20 -73t-42 -51.5t-55.5 -31t-61.5 -10.5q-27 0 -52 8t-44.5 24.5t-31 41.5t-11.5 58q0 19 4 34h101z" />
    <glyph glyph-name="gbreve" unicode="&#x11f;" horiz-adv-x="567" 
d="M524 66q-15 -65 -39.5 -112.5t-61 -79t-87.5 -47t-119 -15.5q-63 0 -106 11.5t-78 28.5l50 118q31 -14 64.5 -24t82.5 -10q64 0 96.5 28.5t42.5 73.5l4 19q-20 -10 -42.5 -16t-47.5 -6q-47 0 -81 14.5t-55.5 40.5t-32 61.5t-10.5 77.5q0 76 28 134.5t74.5 97.5t107 59
t126.5 20q48 0 95 -10t92 -31zM458 411q-17 4 -42 4q-38 0 -68 -13.5t-51.5 -36.5t-33 -55.5t-11.5 -69.5q0 -18 3 -33.5t11 -27t22 -18.5t35 -7q14 0 37.5 5t42.5 23zM438 764q-1 -5 -1.5 -10t-0.5 -10q0 -24 10.5 -37.5t35.5 -13.5q24 0 42.5 18t24.5 53h102
q-3 -42 -20 -73t-42 -51.5t-55.5 -31t-61.5 -10.5q-27 0 -52 8t-44.5 24.5t-31 41.5t-11.5 58q0 19 4 34h101z" />
    <glyph glyph-name="Gdotaccent" unicode="&#x120;" horiz-adv-x="688" 
d="M429 120q20 0 36 1.5t29 3.5l58 241h156l-84 -347q-28 -11 -81 -21.5t-135 -10.5q-70 0 -123.5 20.5t-89.5 58.5t-54 92t-18 122q0 78 27.5 155t81.5 137.5t134 98.5t184 38q48 0 101.5 -14t96.5 -42l-56 -121q-35 22 -74.5 33t-77.5 11q-61 0 -108.5 -23t-80.5 -62.5
t-50 -91.5t-17 -110q0 -88 36.5 -128.5t108.5 -40.5zM547 760q-31 0 -51 18t-20 50q0 42 26.5 65t59.5 23q30 0 51 -18t21 -51q0 -20 -7.5 -36t-20 -27.5t-28 -17.5t-31.5 -6z" />
    <glyph glyph-name="gdotaccent" unicode="&#x121;" horiz-adv-x="567" 
d="M524 66q-15 -65 -39.5 -112.5t-61 -79t-87.5 -47t-119 -15.5q-63 0 -106 11.5t-78 28.5l50 118q31 -14 64.5 -24t82.5 -10q64 0 96.5 28.5t42.5 73.5l4 19q-20 -10 -42.5 -16t-47.5 -6q-47 0 -81 14.5t-55.5 40.5t-32 61.5t-10.5 77.5q0 76 28 134.5t74.5 97.5t107 59
t126.5 20q48 0 95 -10t92 -31zM458 411q-17 4 -42 4q-38 0 -68 -13.5t-51.5 -36.5t-33 -55.5t-11.5 -69.5q0 -18 3 -33.5t11 -27t22 -18.5t35 -7q14 0 37.5 5t42.5 23zM456 600q-31 0 -51 18t-20 50q0 42 26.5 65t59.5 23q30 0 51 -18t21 -51q0 -20 -7.5 -36t-20 -27.5
t-28 -17.5t-31.5 -6z" />
    <glyph glyph-name="Gcommaaccent" unicode="&#x122;" horiz-adv-x="688" 
d="M465 -50q-5 -47 -20 -79t-36.5 -51t-48.5 -27t-57 -8q-27 0 -57 8l21 79q4 -1 7.5 -1h6.5q19 0 31 6.5t18.5 17.5t10 25t6.5 30h118zM429 120q20 0 36 1.5t29 3.5l58 241h156l-84 -347q-28 -11 -81 -21.5t-135 -10.5q-70 0 -123.5 20.5t-89.5 58.5t-54 92t-18 122
q0 78 27.5 155t81.5 137.5t134 98.5t184 38q48 0 101.5 -14t96.5 -42l-56 -121q-35 22 -74.5 33t-77.5 11q-61 0 -108.5 -23t-80.5 -62.5t-50 -91.5t-17 -110q0 -88 36.5 -128.5t108.5 -40.5z" />
    <glyph glyph-name="gcommaaccent" unicode="&#x123;" horiz-adv-x="567" 
d="M524 66q-15 -65 -39.5 -112.5t-61 -79t-87.5 -47t-119 -15.5q-63 0 -106 11.5t-78 28.5l50 118q31 -14 64.5 -24t82.5 -10q64 0 96.5 28.5t42.5 73.5l4 19q-20 -10 -42.5 -16t-47.5 -6q-47 0 -81 14.5t-55.5 40.5t-32 61.5t-10.5 77.5q0 76 28 134.5t74.5 97.5t107 59
t126.5 20q48 0 95 -10t92 -31zM458 411q-17 4 -42 4q-38 0 -68 -13.5t-51.5 -36.5t-33 -55.5t-11.5 -69.5q0 -18 3 -33.5t11 -27t22 -18.5t35 -7q14 0 37.5 5t42.5 23zM389 599q1 7 2 13.5t3 13.5q17 70 57.5 110t107.5 57l36 -65q-37 -14 -57 -42.5t-27 -86.5h-122z" />
    <glyph glyph-name="Hcircumflex" unicode="&#x124;" horiz-adv-x="714" 
d="M643 693h156l-167 -693h-156l71 295h-246l-71 -295h-155l166 693h156l-64 -266h246zM678 795l-60 -53l-83 78l-113 -76l-46 61l179 145z" />
    <glyph glyph-name="hcircumflex" unicode="&#x125;" horiz-adv-x="565" 
d="M425 535q43 0 74 -12.5t51 -35t30 -53.5t10 -67q0 -42 -10 -83l-68 -284h-149l66 278q4 17 7.5 36t3.5 36q0 26 -13.5 44.5t-51.5 18.5q-16 0 -30.5 -2t-28.5 -5l-97 -406h-149l180 752l155 24l-61 -251q20 4 40.5 7t40.5 3zM547 839l-50 -47l-81 63l-106 -63l-38 54
l155 116z" />
    <glyph glyph-name="Hbar" unicode="&#x126;" horiz-adv-x="714" 
d="M141 612h80l20 81h156l-20 -81h246l20 81h156l-20 -81h78l-26 -110h-78l-121 -502h-156l71 295h-246l-71 -295h-155l120 502h-80zM597 502h-246l-18 -75h246z" />
    <glyph glyph-name="hbar" unicode="&#x127;" horiz-adv-x="565" 
d="M423 523q41 0 72 -13t51.5 -36.5t31 -55t10.5 -68.5q0 -18 -2.5 -38t-7.5 -40l-66 -272h-149l64 266q3 14 6.5 31.5t3.5 34.5q0 28 -13 48.5t-51 20.5q-16 0 -30.5 -2t-28.5 -5l-95 -394h-149l142 596h-62l23 93h62l15 63l155 24l-21 -87h143l-23 -93h-142l-20 -83
q20 4 40.5 7t40.5 3z" />
    <glyph glyph-name="Itilde" unicode="&#x128;" horiz-adv-x="312" 
d="M241 693h156l-167 -693h-155zM403 770q-19 0 -34 5.5t-28 12t-25 12t-24 5.5q-14 0 -25.5 -8t-28.5 -33l-67 41q23 54 55 80.5t78 26.5q19 0 34 -5.5t28 -12t25 -12t24 -5.5q14 0 25.5 8t28.5 33l67 -41q-23 -54 -55 -80.5t-78 -26.5z" />
    <glyph glyph-name="itilde" unicode="&#x129;" horiz-adv-x="283" 
d="M218 0h-148l125 526h149zM354 607q-19 0 -34 5.5t-28 12t-25 12t-24 5.5q-14 0 -25.5 -8t-28.5 -33l-67 41q23 54 55 80.5t78 26.5q19 0 34 -5.5t28 -12t25 -12t24 -5.5q14 0 25.5 8t28.5 33l67 -41q-23 -54 -55 -80.5t-78 -26.5z" />
    <glyph glyph-name="Imacron" unicode="&#x12a;" horiz-adv-x="312" 
d="M241 693h156l-167 -693h-155zM207 878h322l-25 -102h-322z" />
    <glyph glyph-name="imacron" unicode="&#x12b;" horiz-adv-x="283" 
d="M218 0h-148l125 526h149zM158 725h322l-25 -102h-322z" />
    <glyph glyph-name="Ibreve" unicode="&#x12c;" horiz-adv-x="312" 
d="M241 693h156l-167 -693h-155zM310 917q-1 -5 -1.5 -10t-0.5 -10q0 -24 10.5 -37.5t35.5 -13.5q24 0 42.5 18t24.5 53h102q-3 -42 -20 -73t-42 -51.5t-55.5 -31t-61.5 -10.5q-27 0 -52 8t-44.5 24.5t-31 41.5t-11.5 58q0 19 4 34h101z" />
    <glyph glyph-name="ibreve" unicode="&#x12d;" horiz-adv-x="283" 
d="M218 0h-148l125 526h149zM260 764q-1 -5 -1.5 -10t-0.5 -10q0 -24 10.5 -37.5t35.5 -13.5q24 0 42.5 18t24.5 53h102q-3 -42 -20 -73t-42 -51.5t-55.5 -31t-61.5 -10.5q-27 0 -52 8t-44.5 24.5t-31 41.5t-11.5 58q0 19 4 34h101z" />
    <glyph glyph-name="Iogonek" unicode="&#x12e;" horiz-adv-x="312" 
d="M241 693h156l-167 -693h-1q-14 -10 -31 -22t-31 -25t-23.5 -25.5t-9.5 -23.5q0 -8 5.5 -12.5t19.5 -4.5q9 0 22 1.5t31 6.5l-12 -100q-21 -8 -50.5 -12t-52.5 -4q-48 0 -74 21.5t-26 55.5q0 21 10 41t25.5 38t35.5 34.5t41 30.5h-34z" />
    <glyph glyph-name="iogonek" unicode="&#x12f;" horiz-adv-x="283" 
d="M218 0q-14 -10 -31 -22.5t-31 -25t-23.5 -25t-9.5 -23.5q0 -8 5.5 -12.5t19.5 -4.5q9 0 22 1.5t31 6.5l-12 -100q-21 -8 -50.5 -12t-52.5 -4q-48 0 -74 21.5t-26 55.5q0 21 10 41t25.5 38t35.5 34.5t41 30.5h-28l125 526h149zM290 590q-31 0 -56 18.5t-25 56.5
q0 21 8.5 39.5t22.5 32t32.5 21.5t39.5 8q31 0 56 -18.5t25 -56.5q0 -21 -8.5 -39.5t-22.5 -32t-32.5 -21.5t-39.5 -8z" />
    <glyph glyph-name="Idotaccent" unicode="&#x130;" horiz-adv-x="312" 
d="M241 693h156l-167 -693h-155zM341 760q-31 0 -51 18t-20 50q0 42 26.5 65t59.5 23q30 0 51 -18t21 -51q0 -20 -7.5 -36t-20 -27.5t-28 -17.5t-31.5 -6z" />
    <glyph glyph-name="dotlessi" unicode="&#x131;" horiz-adv-x="283" 
d="M218 0h-148l125 526h149z" />
    <glyph glyph-name="IJ" unicode="&#x132;" horiz-adv-x="841" 
d="M241 693h156l-167 -693h-155zM810 210q-12 -51 -32 -92.5t-52 -71t-79 -45t-114 -15.5q-54 0 -102.5 16.5t-85.5 44.5l69 116q24 -17 52.5 -30t67.5 -13q28 0 48.5 6.5t35.5 21t25.5 37.5t18.5 56l108 452h156z" />
    <glyph glyph-name="ij" unicode="&#x133;" horiz-adv-x="588" 
d="M218 0h-148l125 526h149zM290 590q-31 0 -56 18.5t-25 56.5q0 21 8.5 39.5t22.5 32t32.5 21.5t39.5 8q31 0 56 -18.5t25 -56.5q0 -21 -8.5 -39.5t-22.5 -32t-32.5 -21.5t-39.5 -8zM311 -185q-28 0 -55.5 5.5t-49.5 13.5l38 118q14 -5 27.5 -8t30.5 -3q35 0 54 21t27 61
l121 503h149l-122 -507q-24 -104 -75 -154t-145 -50zM599 590q-31 0 -56 18.5t-25 56.5q0 21 8.5 39.5t22.5 32t32.5 21.5t39.5 8q31 0 56 -18.5t25 -56.5q0 -21 -8.5 -39.5t-22.5 -32t-32.5 -21.5t-39.5 -8z" />
    <glyph glyph-name="Jcircumflex" unicode="&#x134;" horiz-adv-x="516" 
d="M485 210q-12 -51 -32 -92.5t-52 -71t-79 -45t-114 -15.5q-54 0 -102.5 16.5t-85.5 44.5l69 116q24 -17 52.5 -30t67.5 -13q28 0 48.5 6.5t35.5 21t25.5 37.5t18.5 56l108 452h156zM691 795l-60 -53l-83 78l-113 -76l-46 61l179 145z" />
    <glyph glyph-name="jcircumflex" unicode="&#x135;" horiz-adv-x="290" 
d="M15 -185q-28 0 -55.5 5.5t-49.5 13.5l38 118q14 -5 27.5 -8t30.5 -3q35 0 54 21t27 61l121 503h149l-122 -507q-24 -104 -75 -154t-145 -50zM447 629l-60 -53l-83 78l-113 -76l-46 61l179 145z" />
    <glyph glyph-name="Kcommaaccent" unicode="&#x136;" horiz-adv-x="662" 
d="M409 -50q-5 -47 -20 -79t-36.5 -51t-48.5 -27t-57 -8q-27 0 -57 8l21 79q4 -1 7.5 -1h6.5q19 0 31 6.5t18.5 17.5t10 25t6.5 30h118zM483 0q-14 34 -33.5 73t-43 78t-50.5 75t-55 64l-71 -290h-155l166 693h156l-61 -250q78 67 147 128.5t129 121.5h185
q-91 -85 -180.5 -168.5t-188.5 -162.5q63 -69 121 -158t104 -204h-170z" />
    <glyph glyph-name="kcommaaccent" unicode="&#x137;" horiz-adv-x="561" 
d="M358 -50q-5 -47 -20 -79t-36.5 -51t-48.5 -27t-57 -8q-27 0 -57 8l21 79q4 -1 7.5 -1h6.5q19 0 31 6.5t18.5 17.5t10 25t6.5 30h118zM299 336q60 48 113 98t91 92h168q-56 -62 -116.5 -121.5t-138.5 -126.5q21 -26 42.5 -60t41 -71t36 -75t27.5 -72h-166q-9 26 -22.5 57
t-30 61.5t-34.5 59.5t-36 52l-56 -230h-148l180 752l155 24z" />
    <glyph glyph-name="kgreenlandic" unicode="&#x138;" horiz-adv-x="574" 
d="M299 336q27 24 55 50t54 51t49.5 48t41.5 41h180q-56 -62 -118 -122t-145 -126q21 -26 42.5 -60t41 -71t36 -75t27.5 -72h-166q-9 26 -22.5 57t-30 61.5t-34.5 59.5t-36 52l-56 -230h-148l126 526h149z" />
    <glyph glyph-name="Lacute" unicode="&#x139;" horiz-adv-x="564" 
d="M569 132l-32 -132h-462l166 693h156l-135 -561h307zM497 872l-177 -136l-60 62l160 161z" />
    <glyph glyph-name="lacute" unicode="&#x13a;" horiz-adv-x="315" 
d="M288 -10q-71 0 -111.5 18.5t-58 50.5t-17 73.5t11.5 88.5l127 531l155 24l-139 -576q-4 -18 -4.5 -33t5.5 -26.5t20.5 -18.5t40.5 -9zM489 859l-228 -67l-18 65l218 105z" />
    <glyph glyph-name="Lcommaaccent" unicode="&#x13b;" horiz-adv-x="564" 
d="M393 -50q-5 -47 -20 -79t-36.5 -51t-48.5 -27t-57 -8q-27 0 -57 8l21 79q4 -1 7.5 -1h6.5q19 0 31 6.5t18.5 17.5t10 25t6.5 30h118zM569 132l-32 -132h-462l166 693h156l-135 -561h307z" />
    <glyph glyph-name="lcommaaccent" unicode="&#x13c;" horiz-adv-x="315" 
d="M263 -50q-5 -47 -20 -79t-36.5 -51t-48.5 -27t-57 -8q-27 0 -57 8l21 79q4 -1 7.5 -1h6.5q19 0 31 6.5t18.5 17.5t10 25t6.5 30h118zM288 -10q-71 0 -111.5 18.5t-58 50.5t-17 73.5t11.5 88.5l127 531l155 24l-139 -576q-4 -18 -4.5 -33t5.5 -26.5t20.5 -18.5t40.5 -9z
" />
    <glyph glyph-name="Lcaron" unicode="&#x13d;" horiz-adv-x="564" 
d="M569 132l-32 -132h-462l166 693h156l-135 -561h307zM605 695l-93 -244h-88l55 244h126z" />
    <glyph glyph-name="lcaron" unicode="&#x13e;" horiz-adv-x="331" 
d="M270 -10q-71 0 -111.5 18.5t-58 50.5t-17 73.5t11.5 88.5l127 531l155 24l-139 -576q-4 -18 -4.5 -33t5.5 -26.5t20.5 -18.5t40.5 -9zM571 776l-93 -244h-88l55 244h126z" />
    <glyph glyph-name="Ldot" unicode="&#x13f;" horiz-adv-x="564" 
d="M569 132l-32 -132h-462l166 693h156l-135 -561h307zM542 495q35 0 58.5 -19.5t23.5 -61.5q0 -23 -8.5 -42t-22.5 -32.5t-32 -21t-37 -7.5q-35 0 -58.5 19.5t-23.5 61.5q0 23 8.5 42t22.5 32.5t32 21t37 7.5z" />
    <glyph glyph-name="ldot" unicode="&#x140;" horiz-adv-x="501" 
d="M270 -10q-71 0 -111.5 18.5t-58 50.5t-17 73.5t11.5 88.5l127 531l155 24l-139 -576q-4 -18 -4.5 -33t5.5 -26.5t20.5 -18.5t40.5 -9zM489 504q35 0 58.5 -19.5t23.5 -61.5q0 -23 -8.5 -42t-22.5 -32.5t-32 -21t-37 -7.5q-35 0 -58.5 19.5t-23.5 61.5q0 23 8.5 42
t22.5 32.5t32 21t37 7.5z" />
    <glyph glyph-name="Lslash" unicode="&#x141;" horiz-adv-x="564" 
d="M569 132l-32 -132h-462l61 256l-74 -33l-24 101l128 58l75 311h156l-56 -233l132 60l25 -101l-187 -84l-49 -203h307z" />
    <glyph glyph-name="lslash" unicode="&#x142;" horiz-adv-x="315" 
d="M268 -10q-71 0 -111.5 18.5t-58 50.5t-17 73.5t11.5 88.5l24 101l-47 -21l-22 92l96 43l76 316l155 24l-64 -266l102 46l22 -92l-152 -68l-47 -196q-4 -18 -4.5 -33t5.5 -26.5t20.5 -18.5t40.5 -9z" />
    <glyph glyph-name="Nacute" unicode="&#x143;" horiz-adv-x="742" 
d="M543 0q-42 118 -93.5 236t-111.5 223l-110 -459h-153l166 693h119q23 -35 49.5 -82.5t54.5 -102.5t56 -114.5t53 -117.5l99 417h155l-167 -693h-117zM692 872l-177 -136l-60 62l160 161z" />
    <glyph glyph-name="nacute" unicode="&#x144;" horiz-adv-x="567" 
d="M191 502q17 5 37.5 11.5t46 12t57 9t71.5 3.5q118 0 162 -68t15 -186l-68 -284h-149l66 278q6 26 9.5 50.5t-0.5 43t-18.5 30t-44.5 11.5q-29 0 -59 -6l-97 -407h-149zM579 712l-177 -136l-60 62l160 161z" />
    <glyph glyph-name="Ncommaaccent" unicode="&#x145;" horiz-adv-x="742" 
d="M438 -50q-5 -47 -20 -79t-36.5 -51t-48.5 -27t-57 -8q-27 0 -57 8l21 79q4 -1 7.5 -1h6.5q19 0 31 6.5t18.5 17.5t10 25t6.5 30h118zM543 0q-42 118 -93.5 236t-111.5 223l-110 -459h-153l166 693h119q23 -35 49.5 -82.5t54.5 -102.5t56 -114.5t53 -117.5l99 417h155
l-167 -693h-117z" />
    <glyph glyph-name="ncommaaccent" unicode="&#x146;" horiz-adv-x="567" 
d="M337 -50q-5 -47 -20 -79t-36.5 -51t-48.5 -27t-57 -8q-27 0 -57 8l21 79q4 -1 7.5 -1h6.5q19 0 31 6.5t18.5 17.5t10 25t6.5 30h118zM191 502q17 5 37.5 11.5t46 12t57 9t71.5 3.5q118 0 162 -68t15 -186l-68 -284h-149l66 278q6 26 9.5 50.5t-0.5 43t-18.5 30
t-44.5 11.5q-29 0 -59 -6l-97 -407h-149z" />
    <glyph glyph-name="Ncaron" unicode="&#x147;" horiz-adv-x="742" 
d="M543 0q-42 118 -93.5 236t-111.5 223l-110 -459h-153l166 693h119q23 -35 49.5 -82.5t54.5 -102.5t56 -114.5t53 -117.5l99 417h155l-167 -693h-117zM401 901l60 53l83 -78l113 76l46 -61l-179 -145z" />
    <glyph glyph-name="ncaron" unicode="&#x148;" horiz-adv-x="567" 
d="M191 502q17 5 37.5 11.5t46 12t57 9t71.5 3.5q118 0 162 -68t15 -186l-68 -284h-149l66 278q6 26 9.5 50.5t-0.5 43t-18.5 30t-44.5 11.5q-29 0 -59 -6l-97 -407h-149zM292 740l60 53l83 -78l113 76l46 -61l-179 -145z" />
    <glyph glyph-name="napostrophe" unicode="&#x149;" horiz-adv-x="603" 
d="M229 502q17 5 37.5 11.5t46 12t57 9t71.5 3.5q118 0 162 -68t15 -186l-68 -284h-149l66 278q6 26 9.5 50.5t-0.5 43t-18.5 30t-44.5 11.5q-29 0 -59 -6l-97 -407h-149zM286 776q-10 -41 -21 -70.5t-24 -54t-30 -48t-39 -50.5l-89 31q17 27 29.5 50t21 45.5t14 46
t8.5 50.5h130z" />
    <glyph glyph-name="Eng" unicode="&#x14a;" horiz-adv-x="742" 
d="M522 57q-39 105 -85.5 208t-98.5 194l-110 -459h-153l166 693h119q28 -47 57 -99.5t56.5 -106.5t53 -108t46.5 -103l99 417h155l-162 -676q-23 -95 -74 -149.5t-138 -54.5q-23 0 -48.5 4t-54.5 13l47 118q24 -9 42 -9q36 0 53 31.5t30 86.5z" />
    <glyph glyph-name="eng" unicode="&#x14b;" horiz-adv-x="567" 
d="M191 502q17 5 37.5 11.5t46 12t57 9t71.5 3.5q118 0 162 -68t15 -186l-75 -314q-11 -47 -31.5 -77t-46.5 -48t-55.5 -25t-59.5 -7q-29 0 -55.5 5t-47.5 12l38 107q28 -11 48 -11q23 0 40 15.5t27 54.5l67 282q6 26 9.5 50.5t-0.5 43t-18.5 30t-44.5 11.5q-29 0 -59 -6
l-97 -407h-149z" />
    <glyph glyph-name="Omacron" unicode="&#x14c;" horiz-adv-x="757" 
d="M500 575q-46 0 -85.5 -24t-69 -64t-46 -92t-16.5 -107q0 -75 31.5 -121.5t102.5 -46.5q46 0 85.5 24t69 64t46 91.5t16.5 107.5q0 75 -31.5 121.5t-102.5 46.5zM401 -14q-61 0 -112 20t-88 57.5t-57.5 91.5t-20.5 122q0 78 27 155t77.5 138.5t123.5 100t165 38.5
q61 0 112 -20t88 -57.5t57.5 -91.5t20.5 -122q0 -78 -26.5 -155.5t-77 -139t-123.5 -99.5t-166 -38zM395 878h322l-25 -102h-322z" />
    <glyph glyph-name="omacron" unicode="&#x14d;" horiz-adv-x="574" 
d="M308 -14q-53 0 -92 16t-64.5 45t-38.5 68.5t-13 87.5q0 60 19.5 120t57.5 108t93 78.5t126 30.5q52 0 91.5 -16t65 -45t38.5 -68.5t13 -87.5q0 -60 -19 -120t-56 -108t-92.5 -78.5t-128.5 -30.5zM382 414q-33 0 -58 -19t-42 -48t-25.5 -63.5t-8.5 -65.5q0 -51 16 -78.5
t58 -27.5q33 0 58 19t42 48t25.5 63.5t8.5 65.5q0 51 -16 78.5t-58 27.5zM278 725h322l-25 -102h-322z" />
    <glyph glyph-name="Obreve" unicode="&#x14e;" horiz-adv-x="757" 
d="M500 575q-46 0 -85.5 -24t-69 -64t-46 -92t-16.5 -107q0 -75 31.5 -121.5t102.5 -46.5q46 0 85.5 24t69 64t46 91.5t16.5 107.5q0 75 -31.5 121.5t-102.5 46.5zM401 -14q-61 0 -112 20t-88 57.5t-57.5 91.5t-20.5 122q0 78 27 155t77.5 138.5t123.5 100t165 38.5
q61 0 112 -20t88 -57.5t57.5 -91.5t20.5 -122q0 -78 -26.5 -155.5t-77 -139t-123.5 -99.5t-166 -38zM494 917q-1 -5 -1.5 -10t-0.5 -10q0 -24 10.5 -37.5t35.5 -13.5q24 0 42.5 18t24.5 53h102q-3 -42 -20 -73t-42 -51.5t-55.5 -31t-61.5 -10.5q-27 0 -52 8t-44.5 24.5
t-31 41.5t-11.5 58q0 19 4 34h101z" />
    <glyph glyph-name="obreve" unicode="&#x14f;" horiz-adv-x="574" 
d="M308 -14q-53 0 -92 16t-64.5 45t-38.5 68.5t-13 87.5q0 60 19.5 120t57.5 108t93 78.5t126 30.5q52 0 91.5 -16t65 -45t38.5 -68.5t13 -87.5q0 -60 -19 -120t-56 -108t-92.5 -78.5t-128.5 -30.5zM382 414q-33 0 -58 -19t-42 -48t-25.5 -63.5t-8.5 -65.5q0 -51 16 -78.5
t58 -27.5q33 0 58 19t42 48t25.5 63.5t8.5 65.5q0 51 -16 78.5t-58 27.5zM371 764q-1 -5 -1.5 -10t-0.5 -10q0 -24 10.5 -37.5t35.5 -13.5q24 0 42.5 18t24.5 53h102q-3 -42 -20 -73t-42 -51.5t-55.5 -31t-61.5 -10.5q-27 0 -52 8t-44.5 24.5t-31 41.5t-11.5 58q0 19 4 34
h101z" />
    <glyph glyph-name="Ohungarumlaut" unicode="&#x150;" horiz-adv-x="757" 
d="M500 575q-46 0 -85.5 -24t-69 -64t-46 -92t-16.5 -107q0 -75 31.5 -121.5t102.5 -46.5q46 0 85.5 24t69 64t46 91.5t16.5 107.5q0 75 -31.5 121.5t-102.5 46.5zM401 -14q-61 0 -112 20t-88 57.5t-57.5 91.5t-20.5 122q0 78 27 155t77.5 138.5t123.5 100t165 38.5
q61 0 112 -20t88 -57.5t57.5 -91.5t20.5 -122q0 -78 -26.5 -155.5t-77 -139t-123.5 -99.5t-166 -38zM571 875l-164 -136l-54 61l146 161zM774 875l-164 -136l-54 61l146 161z" />
    <glyph glyph-name="ohungarumlaut" unicode="&#x151;" horiz-adv-x="574" 
d="M308 -14q-53 0 -92 16t-64.5 45t-38.5 68.5t-13 87.5q0 60 19.5 120t57.5 108t93 78.5t126 30.5q52 0 91.5 -16t65 -45t38.5 -68.5t13 -87.5q0 -60 -19 -120t-56 -108t-92.5 -78.5t-128.5 -30.5zM382 414q-33 0 -58 -19t-42 -48t-25.5 -63.5t-8.5 -65.5q0 -51 16 -78.5
t58 -27.5q33 0 58 19t42 48t25.5 63.5t8.5 65.5q0 51 -16 78.5t-58 27.5zM470 713l-164 -136l-54 61l146 161zM673 713l-164 -136l-54 61l146 161z" />
    <glyph glyph-name="OE" unicode="&#x152;" horiz-adv-x="985" 
d="M546 0q-26 -4 -53.5 -6t-55.5 -2q-59 0 -115 12.5t-100.5 44t-71.5 86t-27 139.5q0 102 34.5 181.5t96.5 134t146.5 82.5t185.5 28q26 0 57.5 -1.5t58.5 -5.5h383l-32 -131h-285l-32 -136h250l-31 -128h-250l-40 -167h308l-32 -131h-395zM558 570q-71 0 -123 -26.5
t-86.5 -67.5t-51 -92t-16.5 -99q0 -33 9.5 -63t29.5 -52.5t51 -35.5t74 -13q32 0 68 6l105 439q-16 2 -31 3t-29 1z" />
    <glyph glyph-name="oe" unicode="&#x153;" horiz-adv-x="869" 
d="M308 -14q-52 0 -91 16t-65 44.5t-39 67.5t-13 86q0 60 19.5 120.5t57.5 109.5t93.5 79.5t127.5 30.5q51 0 94 -21.5t68 -64.5q40 42 88 64t106 22q35 0 65 -10t52.5 -29t35 -46.5t12.5 -62.5q0 -56 -25 -95t-69.5 -63.5t-105.5 -35.5t-133 -11q7 -42 30.5 -59.5
t74.5 -17.5q32 0 65 5.5t62 16.5l11 -117q-28 -11 -71.5 -20t-94.5 -9q-63 0 -106 23.5t-69 58.5q-30 -35 -76.5 -58.5t-103.5 -23.5zM382 414q-33 0 -58 -19t-42 -48t-25.5 -63.5t-8.5 -65.5q0 -51 16 -78.5t58 -27.5q33 0 58 19t42 48t25.5 63.5t8.5 65.5q0 51 -16 78.5
t-58 27.5zM730 422q-51 0 -89.5 -36.5t-50.5 -96.5q62 2 100 10.5t59 20.5t28 26t7 28q0 48 -54 48z" />
    <glyph glyph-name="Racute" unicode="&#x154;" horiz-adv-x="656" 
d="M436 701q67 0 117 -16t83 -43t49 -63.5t16 -76.5q0 -33 -7.5 -65t-28 -61t-55 -53.5t-88.5 -41.5q28 -52 57.5 -126t55.5 -155h-167q-23 69 -46.5 136.5t-52.5 116.5h-78l-61 -253h-155l163 683q54 10 105 14t93 4zM431 569q-17 0 -35 -1t-30 -2l-45 -190h53q48 0 81 9
t53 24t28.5 34.5t8.5 39.5q0 17 -5 32.5t-18 27.5t-35 19t-56 7zM613 872l-177 -136l-60 62l160 161z" />
    <glyph glyph-name="racute" unicode="&#x155;" horiz-adv-x="426" 
d="M472 398q-20 5 -39.5 9.5t-57.5 4.5q-14 0 -31 -2.5t-28 -5.5l-97 -404h-149l120 498q43 14 96.5 26.5t120.5 12.5q25 0 55.5 -4.5t53.5 -14.5zM523 712l-177 -136l-60 62l160 161z" />
    <glyph glyph-name="Rcommaaccent" unicode="&#x156;" horiz-adv-x="656" 
d="M436 701q67 0 117 -16t83 -43t49 -63.5t16 -76.5q0 -33 -7.5 -65t-28 -61t-55 -53.5t-88.5 -41.5q28 -52 57.5 -126t55.5 -155h-167q-23 69 -46.5 136.5t-52.5 116.5h-78l-61 -253h-155l163 683q54 10 105 14t93 4zM431 569q-17 0 -35 -1t-30 -2l-45 -190h53q48 0 81 9
t53 24t28.5 34.5t8.5 39.5q0 17 -5 32.5t-18 27.5t-35 19t-56 7zM395 -50q-5 -47 -20 -79t-36.5 -51t-48.5 -27t-57 -8q-27 0 -57 8l21 79q4 -1 7.5 -1h6.5q19 0 31 6.5t18.5 17.5t10 25t6.5 30h118z" />
    <glyph glyph-name="rcommaaccent" unicode="&#x157;" horiz-adv-x="426" 
d="M189 -50q-5 -47 -20 -79t-36.5 -51t-48.5 -27t-57 -8q-27 0 -57 8l21 79q4 -1 7.5 -1h6.5q19 0 31 6.5t18.5 17.5t10 25t6.5 30h118zM472 398q-20 5 -39.5 9.5t-57.5 4.5q-14 0 -31 -2.5t-28 -5.5l-97 -404h-149l120 498q43 14 96.5 26.5t120.5 12.5q25 0 55.5 -4.5
t53.5 -14.5z" />
    <glyph glyph-name="Rcaron" unicode="&#x158;" horiz-adv-x="656" 
d="M436 701q67 0 117 -16t83 -43t49 -63.5t16 -76.5q0 -33 -7.5 -65t-28 -61t-55 -53.5t-88.5 -41.5q28 -52 57.5 -126t55.5 -155h-167q-23 69 -46.5 136.5t-52.5 116.5h-78l-61 -253h-155l163 683q54 10 105 14t93 4zM431 569q-17 0 -35 -1t-30 -2l-45 -190h53q48 0 81 9
t53 24t28.5 34.5t8.5 39.5q0 17 -5 32.5t-18 27.5t-35 19t-56 7zM340 901l60 53l83 -78l113 76l46 -61l-179 -145z" />
    <glyph glyph-name="rcaron" unicode="&#x159;" horiz-adv-x="426" 
d="M472 398q-20 5 -39.5 9.5t-57.5 4.5q-14 0 -31 -2.5t-28 -5.5l-97 -404h-149l120 498q43 14 96.5 26.5t120.5 12.5q25 0 55.5 -4.5t53.5 -14.5zM263 740l60 53l83 -78l113 76l46 -61l-179 -145z" />
    <glyph glyph-name="Sacute" unicode="&#x15a;" horiz-adv-x="559" 
d="M269 116q23 0 46 3.5t41 12.5t29.5 25.5t11.5 42.5q0 20 -11 34.5t-28 26.5t-38 22t-42 22q-27 16 -51 34t-41 40.5t-27 50t-10 63.5q0 46 17.5 85.5t52 68.5t86.5 45.5t122 16.5q32 0 62 -5.5t56 -13.5t47.5 -18.5t36.5 -20.5l-65 -115q-25 19 -61 32t-78 13
q-23 0 -44 -4t-37 -13.5t-25.5 -24.5t-9.5 -37q0 -20 7.5 -33.5t19.5 -23.5t28 -18l34 -17q31 -16 60 -34t51 -41.5t35 -53.5t13 -71q0 -57 -21 -99t-59 -70t-90.5 -41.5t-116.5 -13.5q-42 0 -78.5 7t-66 16.5t-51 20.5t-34.5 20l66 119q12 -8 29 -17t38.5 -17t45.5 -13.5
t50 -5.5zM569 872l-177 -136l-60 62l160 161z" />
    <glyph glyph-name="sacute" unicode="&#x15b;" horiz-adv-x="483" 
d="M241 106q51 0 70 14.5t19 31.5q0 11 -3.5 19t-11.5 15t-22 14.5t-36 17.5q-25 11 -47 23.5t-38.5 30t-26 40t-9.5 53.5q0 81 59.5 128t173.5 47q54 0 96 -12t68 -26l-51 -111q-21 11 -54 21t-65 10q-14 0 -27.5 -1.5t-25 -6.5t-18.5 -14t-7 -24q0 -20 15.5 -30t43.5 -24
q39 -19 65 -35t41.5 -34t22.5 -41t7 -54q0 -32 -13.5 -63t-42.5 -55t-74 -39t-108 -15q-39 0 -70.5 5t-55.5 12.5t-40.5 15.5t-25.5 13l51 114q17 -10 53 -25t87 -15zM528 712l-177 -136l-60 62l160 161z" />
    <glyph glyph-name="Scircumflex" unicode="&#x15c;" horiz-adv-x="559" 
d="M269 116q23 0 46 3.5t41 12.5t29.5 25.5t11.5 42.5q0 20 -11 34.5t-28 26.5t-38 22t-42 22q-27 16 -51 34t-41 40.5t-27 50t-10 63.5q0 46 17.5 85.5t52 68.5t86.5 45.5t122 16.5q32 0 62 -5.5t56 -13.5t47.5 -18.5t36.5 -20.5l-65 -115q-25 19 -61 32t-78 13
q-23 0 -44 -4t-37 -13.5t-25.5 -24.5t-9.5 -37q0 -20 7.5 -33.5t19.5 -23.5t28 -18l34 -17q31 -16 60 -34t51 -41.5t35 -53.5t13 -71q0 -57 -21 -99t-59 -70t-90.5 -41.5t-116.5 -13.5q-42 0 -78.5 7t-66 16.5t-51 20.5t-34.5 20l66 119q12 -8 29 -17t38.5 -17t45.5 -13.5
t50 -5.5zM604 795l-60 -53l-83 78l-113 -76l-46 61l179 145z" />
    <glyph glyph-name="scircumflex" unicode="&#x15d;" horiz-adv-x="483" 
d="M241 106q51 0 70 14.5t19 31.5q0 11 -3.5 19t-11.5 15t-22 14.5t-36 17.5q-25 11 -47 23.5t-38.5 30t-26 40t-9.5 53.5q0 81 59.5 128t173.5 47q54 0 96 -12t68 -26l-51 -111q-21 11 -54 21t-65 10q-14 0 -27.5 -1.5t-25 -6.5t-18.5 -14t-7 -24q0 -20 15.5 -30t43.5 -24
q39 -19 65 -35t41.5 -34t22.5 -41t7 -54q0 -32 -13.5 -63t-42.5 -55t-74 -39t-108 -15q-39 0 -70.5 5t-55.5 12.5t-40.5 15.5t-25.5 13l51 114q17 -10 53 -25t87 -15zM544 629l-60 -53l-83 78l-113 -76l-46 61l179 145z" />
    <glyph glyph-name="Scedilla" unicode="&#x15e;" horiz-adv-x="559" 
d="M269 116q23 0 46 3.5t41 12.5t29.5 25.5t11.5 42.5q0 20 -11 34.5t-28 26.5t-38 22t-42 22q-27 16 -51 34t-41 40.5t-27 50t-10 63.5q0 46 17.5 85.5t52 68.5t86.5 45.5t122 16.5q32 0 62 -5.5t56 -13.5t47.5 -18.5t36.5 -20.5l-65 -115q-25 19 -61 32t-78 13
q-23 0 -44 -4t-37 -13.5t-25.5 -24.5t-9.5 -37q0 -20 7.5 -33.5t19.5 -23.5t28 -18l34 -17q31 -16 60 -34t51 -41.5t35 -53.5t13 -71q0 -55 -19.5 -96t-54.5 -68.5t-84 -42t-108 -16.5l-20 -31q22 -11 33 -29t11 -38q0 -29 -11.5 -50t-31 -34.5t-44.5 -19.5t-51 -6
q-27 0 -53.5 6t-47.5 17l36 82q13 -6 29.5 -10t31.5 -4q40 0 40 24q0 11 -7 18t-23 14l-20 9q7 11 17.5 26.5t20.5 29.5q-58 9 -99.5 27t-61.5 32l66 119q12 -8 29 -17t38.5 -17t45.5 -13.5t50 -5.5z" />
    <glyph glyph-name="scedilla" unicode="&#x15f;" horiz-adv-x="483" 
d="M241 106q51 0 70 14.5t19 31.5q0 11 -3.5 19t-11.5 15t-22 14.5t-36 17.5q-25 11 -47 23.5t-38.5 30t-26 40t-9.5 53.5q0 81 59.5 128t173.5 47q54 0 96 -12t68 -26l-51 -111q-21 11 -54 21t-65 10q-14 0 -27.5 -1.5t-25 -6.5t-18.5 -14t-7 -24q0 -20 15.5 -30t43.5 -24
q39 -19 65 -35t41.5 -34t22.5 -41t7 -54q0 -28 -10.5 -55t-32 -50t-55.5 -39.5t-81 -23.5q-7 -9 -13 -18t-10 -16q22 -11 33 -29t11 -38q0 -29 -11.5 -50t-31 -34.5t-44.5 -19.5t-51 -6q-27 0 -53.5 6t-47.5 17l36 82q13 -6 29.5 -10t31.5 -4q40 0 40 24q0 11 -7 18t-23 14
l-20 9q7 11 16.5 25t18.5 28q-62 5 -100 19.5t-55 24.5l51 114q17 -10 53 -25t87 -15z" />
    <glyph glyph-name="Scaron" unicode="&#x160;" horiz-adv-x="559" 
d="M269 116q23 0 46 3.5t41 12.5t29.5 25.5t11.5 42.5q0 20 -11 34.5t-28 26.5t-38 22t-42 22q-27 16 -51 34t-41 40.5t-27 50t-10 63.5q0 46 17.5 85.5t52 68.5t86.5 45.5t122 16.5q32 0 62 -5.5t56 -13.5t47.5 -18.5t36.5 -20.5l-65 -115q-25 19 -61 32t-78 13
q-23 0 -44 -4t-37 -13.5t-25.5 -24.5t-9.5 -37q0 -20 7.5 -33.5t19.5 -23.5t28 -18l34 -17q31 -16 60 -34t51 -41.5t35 -53.5t13 -71q0 -57 -21 -99t-59 -70t-90.5 -41.5t-116.5 -13.5q-42 0 -78.5 7t-66 16.5t-51 20.5t-34.5 20l66 119q12 -8 29 -17t38.5 -17t45.5 -13.5
t50 -5.5zM310 901l60 53l83 -78l113 76l46 -61l-179 -145z" />
    <glyph glyph-name="scaron" unicode="&#x161;" horiz-adv-x="483" 
d="M241 106q51 0 70 14.5t19 31.5q0 11 -3.5 19t-11.5 15t-22 14.5t-36 17.5q-25 11 -47 23.5t-38.5 30t-26 40t-9.5 53.5q0 81 59.5 128t173.5 47q54 0 96 -12t68 -26l-51 -111q-21 11 -54 21t-65 10q-14 0 -27.5 -1.5t-25 -6.5t-18.5 -14t-7 -24q0 -20 15.5 -30t43.5 -24
q39 -19 65 -35t41.5 -34t22.5 -41t7 -54q0 -32 -13.5 -63t-42.5 -55t-74 -39t-108 -15q-39 0 -70.5 5t-55.5 12.5t-40.5 15.5t-25.5 13l51 114q17 -10 53 -25t87 -15zM257 740l60 53l83 -78l113 76l46 -61l-179 -145z" />
    <glyph glyph-name="uni0162" unicode="&#x162;" horiz-adv-x="594" 
d="M739 693l-32 -131h-203l-135 -562h-19q-8 -11 -16.5 -23.5t-13.5 -20.5q22 -11 33 -29t11 -38q0 -29 -11.5 -50t-31 -34.5t-44.5 -19.5t-51 -6q-27 0 -53.5 6t-47.5 17l36 82q13 -6 29.5 -10t31.5 -4q40 0 40 24q0 11 -7 18t-23 14l-20 9q8 14 20.5 32.5t23.5 32.5h-43
l135 562h-203l32 131h562z" />
    <glyph glyph-name="uni0163" unicode="&#x163;" horiz-adv-x="416" 
d="M213 657l155 24l-38 -155h166l-30 -122h-165l-44 -184q-6 -23 -7.5 -43t5 -34.5t22.5 -22.5t44 -8q24 0 46.5 4.5t45.5 12.5l11 -114q-24 -9 -50.5 -16t-59.5 -9l-23 -34q22 -11 33 -29t11 -38q0 -29 -11.5 -50t-31 -34.5t-44.5 -19.5t-51 -6q-27 0 -53.5 6t-47.5 17
l36 82q13 -6 29.5 -10t31.5 -4q40 0 40 24q0 11 -7 18t-23 14l-20 9q7 12 17.5 28t21.5 30q-49 8 -76 31t-37.5 56.5t-7.5 75.5t14 87z" />
    <glyph glyph-name="Tcaron" unicode="&#x164;" horiz-adv-x="594" 
d="M739 693l-32 -131h-203l-135 -562h-156l135 562h-203l32 131h562zM336 901l60 53l83 -78l113 76l46 -61l-179 -145z" />
    <glyph glyph-name="tcaron" unicode="&#x165;" horiz-adv-x="416" 
d="M213 657l155 24l-38 -155h166l-30 -122h-165l-44 -184q-6 -23 -7.5 -43t5 -34.5t22.5 -22.5t44 -8q24 0 46.5 4.5t45.5 12.5l11 -114q-30 -11 -65 -19t-83 -8q-69 0 -107 20.5t-54 56t-14 81.5t14 97zM573 776l-84 -191h-85l45 191h124z" />
    <glyph glyph-name="Tbar" unicode="&#x166;" horiz-adv-x="594" 
d="M739 693l-32 -131h-203l-45 -185h143l-27 -110h-142l-64 -267h-156l64 267h-140l27 110h139l45 185h-203l32 131h562z" />
    <glyph glyph-name="tbar" unicode="&#x167;" horiz-adv-x="416" 
d="M213 657l155 24l-38 -155h166l-30 -122h-165l-20 -83h178l-22 -93h-178l-2 -8q-6 -23 -7.5 -43t5 -34.5t22.5 -22.5t44 -8q24 0 46.5 4.5t45.5 12.5l11 -114q-30 -11 -65 -19t-83 -8q-69 0 -107 20.5t-54 56t-14 81.5t14 97z" />
    <glyph glyph-name="Utilde" unicode="&#x168;" horiz-adv-x="683" 
d="M668 252q-34 -141 -110.5 -203.5t-202.5 -62.5q-65 0 -109.5 15.5t-72.5 43t-40.5 66t-12.5 83.5q0 52 15 111l93 388h156l-98 -410q-10 -36 -10 -73q0 -20 4.5 -36t16 -28t31 -18.5t48.5 -6.5q60 0 91 37.5t48 106.5l102 428h156zM572 770q-19 0 -34 5.5t-28 12t-25 12
t-24 5.5q-14 0 -25.5 -8t-28.5 -33l-67 41q23 54 55 80.5t78 26.5q19 0 34 -5.5t28 -12t25 -12t24 -5.5q14 0 25.5 8t28.5 33l67 -41q-23 -54 -55 -80.5t-78 -26.5z" />
    <glyph glyph-name="utilde" unicode="&#x169;" horiz-adv-x="581" 
d="M621 526l-71 -299q-14 -57 -8 -114.5t23 -102.5l-133 -19q-11 22 -21 49q-28 -22 -63 -37t-78 -15q-59 0 -95.5 21.5t-54.5 57t-19.5 81.5t10.5 94l68 284h149l-67 -282q-5 -22 -8.5 -45t-0.5 -42.5t15.5 -32t39.5 -12.5q23 0 42.5 8.5t41.5 29.5q2 25 6.5 52.5t9.5 50.5
l65 273h149zM478 607q-19 0 -34 5.5t-28 12t-25 12t-24 5.5q-14 0 -25.5 -8t-28.5 -33l-67 41q23 54 55 80.5t78 26.5q19 0 34 -5.5t28 -12t25 -12t24 -5.5q14 0 25.5 8t28.5 33l67 -41q-23 -54 -55 -80.5t-78 -26.5z" />
    <glyph glyph-name="Umacron" unicode="&#x16a;" horiz-adv-x="683" 
d="M668 252q-34 -141 -110.5 -203.5t-202.5 -62.5q-65 0 -109.5 15.5t-72.5 43t-40.5 66t-12.5 83.5q0 52 15 111l93 388h156l-98 -410q-10 -36 -10 -73q0 -20 4.5 -36t16 -28t31 -18.5t48.5 -6.5q60 0 91 37.5t48 106.5l102 428h156zM375 878h322l-25 -102h-322z" />
    <glyph glyph-name="umacron" unicode="&#x16b;" horiz-adv-x="581" 
d="M621 526l-71 -299q-14 -57 -8 -114.5t23 -102.5l-133 -19q-11 22 -21 49q-28 -22 -63 -37t-78 -15q-59 0 -95.5 21.5t-54.5 57t-19.5 81.5t10.5 94l68 284h149l-67 -282q-5 -22 -8.5 -45t-0.5 -42.5t15.5 -32t39.5 -12.5q23 0 42.5 8.5t41.5 29.5q2 25 6.5 52.5t9.5 50.5
l65 273h149zM277 725h322l-25 -102h-322z" />
    <glyph glyph-name="Ubreve" unicode="&#x16c;" horiz-adv-x="683" 
d="M668 252q-34 -141 -110.5 -203.5t-202.5 -62.5q-65 0 -109.5 15.5t-72.5 43t-40.5 66t-12.5 83.5q0 52 15 111l93 388h156l-98 -410q-10 -36 -10 -73q0 -20 4.5 -36t16 -28t31 -18.5t48.5 -6.5q60 0 91 37.5t48 106.5l102 428h156zM478 917q-1 -5 -1.5 -10t-0.5 -10
q0 -24 10.5 -37.5t35.5 -13.5q24 0 42.5 18t24.5 53h102q-3 -42 -20 -73t-42 -51.5t-55.5 -31t-61.5 -10.5q-27 0 -52 8t-44.5 24.5t-31 41.5t-11.5 58q0 19 4 34h101z" />
    <glyph glyph-name="ubreve" unicode="&#x16d;" horiz-adv-x="581" 
d="M621 526l-71 -299q-14 -57 -8 -114.5t23 -102.5l-133 -19q-11 22 -21 49q-28 -22 -63 -37t-78 -15q-59 0 -95.5 21.5t-54.5 57t-19.5 81.5t10.5 94l68 284h149l-67 -282q-5 -22 -8.5 -45t-0.5 -42.5t15.5 -32t39.5 -12.5q23 0 42.5 8.5t41.5 29.5q2 25 6.5 52.5t9.5 50.5
l65 273h149zM389 764q-1 -5 -1.5 -10t-0.5 -10q0 -24 10.5 -37.5t35.5 -13.5q24 0 42.5 18t24.5 53h102q-3 -42 -20 -73t-42 -51.5t-55.5 -31t-61.5 -10.5q-27 0 -52 8t-44.5 24.5t-31 41.5t-11.5 58q0 19 4 34h101z" />
    <glyph glyph-name="Uring" unicode="&#x16e;" horiz-adv-x="683" 
d="M668 252q-34 -141 -110.5 -203.5t-202.5 -62.5q-65 0 -109.5 15.5t-72.5 43t-40.5 66t-12.5 83.5q0 52 15 111l93 388h156l-98 -410q-10 -36 -10 -73q0 -20 4.5 -36t16 -28t31 -18.5t48.5 -6.5q60 0 91 37.5t48 106.5l102 428h156zM628 834q0 -28 -9.5 -49.5t-26 -36
t-38 -22t-45.5 -7.5q-23 0 -44 7.5t-37.5 22t-26 36t-9.5 49.5t9.5 49.5t26 36t37.5 22t44 7.5q24 0 45.5 -7.5t38 -22t26 -36t9.5 -49.5zM555 834q0 23 -14 35t-32 12q-17 0 -31 -12t-14 -35t14 -35t31 -12q18 0 32 12t14 35z" />
    <glyph glyph-name="uring" unicode="&#x16f;" horiz-adv-x="581" 
d="M621 526l-71 -299q-14 -57 -8 -114.5t23 -102.5l-133 -19q-11 22 -21 49q-28 -22 -63 -37t-78 -15q-59 0 -95.5 21.5t-54.5 57t-19.5 81.5t10.5 94l68 284h149l-67 -282q-5 -22 -8.5 -45t-0.5 -42.5t15.5 -32t39.5 -12.5q23 0 42.5 8.5t41.5 29.5q2 25 6.5 52.5t9.5 50.5
l65 273h149zM545 699q0 -28 -9.5 -49.5t-26 -36t-38 -22t-45.5 -7.5q-23 0 -44 7.5t-37.5 22t-26 36t-9.5 49.5t9.5 49.5t26 36t37.5 22t44 7.5q24 0 45.5 -7.5t38 -22t26 -36t9.5 -49.5zM472 699q0 23 -14 35t-32 12q-17 0 -31 -12t-14 -35t14 -35t31 -12q18 0 32 12t14 35
z" />
    <glyph glyph-name="Uhungarumlaut" unicode="&#x170;" horiz-adv-x="683" 
d="M668 252q-34 -141 -110.5 -203.5t-202.5 -62.5q-65 0 -109.5 15.5t-72.5 43t-40.5 66t-12.5 83.5q0 52 15 111l93 388h156l-98 -410q-10 -36 -10 -73q0 -20 4.5 -36t16 -28t31 -18.5t48.5 -6.5q60 0 91 37.5t48 106.5l102 428h156zM560 875l-164 -136l-54 61l146 161z
M763 875l-164 -136l-54 61l146 161z" />
    <glyph glyph-name="uhungarumlaut" unicode="&#x171;" horiz-adv-x="581" 
d="M621 526l-71 -299q-14 -57 -8 -114.5t23 -102.5l-133 -19q-11 22 -21 49q-28 -22 -63 -37t-78 -15q-59 0 -95.5 21.5t-54.5 57t-19.5 81.5t10.5 94l68 284h149l-67 -282q-5 -22 -8.5 -45t-0.5 -42.5t15.5 -32t39.5 -12.5q23 0 42.5 8.5t41.5 29.5q2 25 6.5 52.5t9.5 50.5
l65 273h149zM473 713l-164 -136l-54 61l146 161zM676 713l-164 -136l-54 61l146 161z" />
    <glyph glyph-name="Uogonek" unicode="&#x172;" horiz-adv-x="683" 
d="M669 252q-29 -124 -90.5 -186t-161.5 -76q-45 -32 -62.5 -53.5t-17.5 -33.5q0 -16 25 -16q14 0 30 4.5t23 6.5l-10 -99q-20 -9 -44.5 -14.5t-50.5 -5.5q-21 0 -41 4.5t-35.5 14.5t-24.5 26t-9 40q0 30 20.5 62t74.5 64q-47 7 -80 25t-54 44.5t-30.5 60.5t-9.5 74
q0 52 15 111l93 388h156l-98 -410q-10 -36 -10 -73q0 -20 4.5 -36t16 -28t31 -18.5t48.5 -6.5q60 0 91 37.5t48 106.5l102 428h156z" />
    <glyph glyph-name="uogonek" unicode="&#x173;" horiz-adv-x="581" 
d="M621 526l-71 -299q-14 -57 -8 -114.5t23 -102.5l-19 -13q-51 -35 -71 -58t-20 -36q0 -16 25 -16q14 0 30 4.5t23 6.5l-10 -99q-20 -9 -44.5 -14.5t-50.5 -5.5q-21 0 -41 4.5t-35.5 14.5t-24.5 26t-9 40q0 30 21 62t69 61l20 12q-5 10 -9 20t-8 21q-28 -22 -63 -37
t-78 -15q-59 0 -95.5 21.5t-54.5 57t-19.5 81.5t10.5 94l68 284h149l-67 -282q-5 -22 -8.5 -45t-0.5 -42.5t15.5 -32t39.5 -12.5q23 0 42.5 8.5t41.5 29.5q2 25 6.5 52.5t9.5 50.5l65 273h149z" />
    <glyph glyph-name="Wcircumflex" unicode="&#x174;" horiz-adv-x="936" 
d="M667 619q2 -41 5.5 -93t8 -107.5t9.5 -110.5t10 -102q26 51 53 110t54 122t53.5 128t50.5 127h165q-78 -190 -159 -361.5t-174 -331.5h-146q-8 55 -14.5 105.5t-12 99.5t-10 99t-8.5 104q-57 -106 -112.5 -207.5t-118.5 -200.5h-146q-8 93 -11.5 184t-3.5 185
q0 81 3 161.5t8 162.5h157q-5 -88 -9.5 -172.5t-4.5 -175.5v-69t2 -70q28 49 59 104t61 110t57 106.5t46 92.5h128zM797 785l-60 -53l-83 78l-113 -76l-46 61l179 145z" />
    <glyph glyph-name="wcircumflex" unicode="&#x175;" horiz-adv-x="816" 
d="M482 308q-19 -41 -42.5 -83.5t-48 -83t-47.5 -77t-41 -64.5h-116q-8 42 -16.5 100t-16.5 126.5t-14.5 145t-9.5 154.5h146q0 -36 0.5 -78t2 -87t4.5 -92t8 -93q25 42 49.5 87.5t47 91t42 89.5t34.5 82h124q0 -72 2.5 -161t12.5 -189q27 45 50 92.5t42.5 93.5t35 88
t27.5 76h158q-20 -50 -47.5 -112.5t-63.5 -131.5t-81 -141t-100 -141h-116q-12 82 -18 157t-8 151zM694 629l-60 -53l-83 78l-113 -76l-46 61l179 145z" />
    <glyph glyph-name="Ycircumflex" unicode="&#x176;" horiz-adv-x="652" 
d="M413 408q29 37 55.5 71.5t51.5 69t49.5 70t50.5 74.5h172q-42 -59 -81 -112t-78 -103.5t-80 -100.5t-87 -103l-66 -274h-156l66 274q-42 106 -76 207t-64 212h166q16 -72 35 -141t42 -144zM639 795l-60 -53l-83 78l-113 -76l-46 61l179 145z" />
    <glyph glyph-name="ycircumflex" unicode="&#x177;" horiz-adv-x="532" 
d="M632 526q-28 -76 -56.5 -142t-59.5 -125.5t-64 -113.5t-70 -107q-27 -39 -56 -79t-64.5 -72t-79 -52t-100.5 -20q-35 0 -60 6.5t-47 17.5l45 117q20 -8 36 -12.5t39 -4.5q35 0 66.5 22.5t52.5 60.5q-26 100 -47.5 224t-29.5 280h153q1 -39 4 -86t7 -94.5t9 -92.5t11 -81
q48 72 84.5 160t68.5 194h158zM561 629l-60 -53l-83 78l-113 -76l-46 61l179 145z" />
    <glyph glyph-name="Ydieresis" unicode="&#x178;" horiz-adv-x="652" 
d="M413 408q29 37 55.5 71.5t51.5 69t49.5 70t50.5 74.5h172q-42 -59 -81 -112t-78 -103.5t-80 -100.5t-87 -103l-66 -274h-156l66 274q-42 106 -76 207t-64 212h166q16 -72 35 -141t42 -144zM371 762q-29 0 -48 18t-19 48q0 19 7 35t18.5 27t26 17.5t29.5 6.5
q28 0 48 -18.5t20 -49.5q0 -18 -7.5 -33.5t-19.5 -27t-26.5 -17.5t-28.5 -6zM593 762q-29 0 -48 18t-19 48q0 19 7 35t18.5 27t26 17.5t29.5 6.5q28 0 48 -18.5t20 -49.5q0 -18 -7.5 -33.5t-19.5 -27t-26.5 -17.5t-28.5 -6z" />
    <glyph glyph-name="Zacute" unicode="&#x179;" horiz-adv-x="638" 
d="M712 585q-40 -34 -96 -86.5t-117 -114t-122 -127.5t-111 -126h348l-32 -131h-537l23 93q40 53 94 115.5t112.5 125.5t117.5 122t109 106h-306l32 131h511zM641 872l-177 -136l-60 62l160 161z" />
    <glyph glyph-name="zacute" unicode="&#x17a;" horiz-adv-x="526" 
d="M582 427q-23 -20 -60 -54.5t-80 -76t-88 -87t-84 -87.5h244l-30 -122h-424l21 87q29 36 66.5 78t78 85t81 82.5t75.5 71.5h-214l30 122h408zM545 712l-177 -136l-60 62l160 161z" />
    <glyph glyph-name="Zdotaccent" unicode="&#x17b;" horiz-adv-x="638" 
d="M712 585q-40 -34 -96 -86.5t-117 -114t-122 -127.5t-111 -126h348l-32 -131h-537l23 93q40 53 94 115.5t112.5 125.5t117.5 122t109 106h-306l32 131h511zM501 760q-31 0 -51 18t-20 50q0 42 26.5 65t59.5 23q30 0 51 -18t21 -51q0 -20 -7.5 -36t-20 -27.5t-28 -17.5
t-31.5 -6z" />
    <glyph glyph-name="zdotaccent" unicode="&#x17c;" horiz-adv-x="526" 
d="M582 427q-23 -20 -60 -54.5t-80 -76t-88 -87t-84 -87.5h244l-30 -122h-424l21 87q29 36 66.5 78t78 85t81 82.5t75.5 71.5h-214l30 122h408zM410 600q-31 0 -51 18t-20 50q0 42 26.5 65t59.5 23q30 0 51 -18t21 -51q0 -20 -7.5 -36t-20 -27.5t-28 -17.5t-31.5 -6z" />
    <glyph glyph-name="Zcaron" unicode="&#x17d;" horiz-adv-x="638" 
d="M712 585q-40 -34 -96 -86.5t-117 -114t-122 -127.5t-111 -126h348l-32 -131h-537l23 93q40 53 94 115.5t112.5 125.5t117.5 122t109 106h-306l32 131h511zM361 906l60 53l83 -78l113 76l46 -61l-179 -145z" />
    <glyph glyph-name="zcaron" unicode="&#x17e;" horiz-adv-x="526" 
d="M582 427q-23 -20 -60 -54.5t-80 -76t-88 -87t-84 -87.5h244l-30 -122h-424l21 87q29 36 66.5 78t78 85t81 82.5t75.5 71.5h-214l30 122h408zM297 740l60 53l83 -78l113 76l46 -61l-179 -145z" />
    <glyph glyph-name="longs" unicode="&#x17f;" horiz-adv-x="435" 
d="M477 776q45 0 78.5 -9.5t50.5 -17.5l-50 -117q-18 9 -41.5 13.5t-43.5 4.5q-55 0 -81.5 -28t-36.5 -70l-96 -403q-34 -143 -74 -222.5t-88 -115.5l-133 19q26 24 48 59t39.5 74t30 79.5t20.5 75.5l104 436q25 106 90 164t183 58z" />
    <glyph glyph-name="uni0180" unicode="&#x180;" horiz-adv-x="575" 
d="M419 537q48 0 83 -17t58 -46t34 -68t11 -84q0 -69 -25.5 -130.5t-69.5 -107t-104 -72t-130 -26.5q-9 0 -31.5 0.5t-51.5 4.5t-61.5 12t-61.5 22l136 571h-62l22 93h62l15 63l155 24l-21 -87h143l-22 -93h-144l-18 -78q20 9 40 14t43 5zM289 109q35 0 66 17t53.5 45.5
t35.5 64.5t13 75q0 48 -16 75t-59 27q-14 0 -36.5 -5t-40.5 -21l-66 -274q6 -1 10.5 -2t9.5 -1.5t12 -0.5h18z" />
    <glyph glyph-name="uni0181" unicode="&#x181;" horiz-adv-x="810" 
d="M464 -9q-60 0 -123 5t-114 16l132 552q-28 -3 -46.5 -9t-30 -15.5t-17.5 -24t-8 -33.5l-121 -16q-1 5 -1 10v10q0 69 28 111.5t83.5 65.5t139.5 30.5t195 7.5l-1 -1q11 1 21 1h20q60 0 103.5 -12.5t71 -33.5t41 -49.5t13.5 -60.5q0 -23 -4.5 -46.5t-18 -46.5t-37 -44.5
t-61.5 -38.5q44 -20 65.5 -54.5t21.5 -76.5q0 -48 -19 -92.5t-61 -79t-109 -55t-163 -20.5zM450 303l-43 -180q16 -3 40.5 -4.5t45.5 -1.5q30 0 59.5 4.5t53 16.5t38.5 33t15 54q0 14 -5.5 28t-17.5 25t-31.5 18t-46.5 7h-108zM479 420h98q60 0 89.5 26t29.5 62
q0 20 -8.5 33t-22.5 21t-32 11.5t-37 3.5q-21 0 -45 -1.5t-36 -3.5z" />
    <glyph glyph-name="uni0182" unicode="&#x182;" horiz-adv-x="637" 
d="M363 561l-28 -114h49q72 0 122 -12.5t80.5 -37.5t44.5 -61t14 -83q0 -75 -31.5 -125t-83 -80t-117 -42.5t-132.5 -12.5q-53 0 -107.5 6t-98.5 17l163 677h448l-32 -132h-291zM259 128q13 -2 28.5 -3t32.5 -1q50 0 82 10t50 26.5t25 36.5t7 41q0 17 -6 32t-20 25.5
t-38.5 16.5t-60.5 6h-55z" />
    <glyph glyph-name="uni0183" unicode="&#x183;" horiz-adv-x="575" 
d="M367 646l-31 -128q20 9 40 14t43 5q48 0 83 -17t58 -46t34 -68t11 -84q0 -69 -25.5 -130.5t-69.5 -107t-104 -72t-130 -26.5q-9 0 -31.5 0.5t-51.5 4.5t-61.5 12t-61.5 22l177 744h436l-29 -123h-287zM289 109q35 0 66 17t53.5 45.5t35.5 64.5t13 75q0 48 -16 75t-59 27
q-14 0 -36.5 -5t-40.5 -21l-66 -274q6 -1 10.5 -2t9.5 -1.5t12 -0.5h18z" />
    <glyph glyph-name="uni0184" unicode="&#x184;" horiz-adv-x="575" 
d="M419 537q48 0 83 -17t58 -46t34 -68t11 -84q0 -69 -25.5 -130.5t-69.5 -107t-104 -72t-130 -26.5q-9 0 -31.5 0.5t-51.5 4.5t-61.5 12t-61.5 22l133 562l-63 89q57 28 123 55.5t135 44.5l-62 -258q20 9 40 14t43 5zM289 109q35 0 66 17t53.5 45.5t35.5 64.5t13 75
q0 48 -16 75t-59 27q-14 0 -36.5 -5t-40.5 -21l-66 -274q11 -2 20.5 -3t29.5 -1z" />
    <glyph glyph-name="uni0185" unicode="&#x185;" horiz-adv-x="650" 
d="M210 514l-64 89q57 28 127 55.5t139 44.5l-62 -256h49q72 0 122 -12.5t80.5 -37.5t44.5 -61t14 -83q0 -75 -31.5 -125t-83 -80t-117 -42.5t-132.5 -12.5q-53 0 -107.5 6t-98.5 17zM274 128q13 -2 28.5 -3t32.5 -1q50 0 82 10t50 26.5t25 36.5t7 41q0 17 -6 32t-20 25.5
t-38.5 16.5t-60.5 6h-55z" />
    <glyph glyph-name="uni0186" unicode="&#x186;" horiz-adv-x="634" 
d="M191 665q48 20 101.5 32t107.5 12t103.5 -13.5t87.5 -43t61 -77.5t23 -117q0 -120 -34 -209t-91.5 -147.5t-133 -87t-157.5 -28.5q-56 0 -109 12.5t-100 37.5l66 121q42 -22 77.5 -30t73.5 -8q57 0 102.5 24t78 66.5t49.5 100.5t17 125q0 39 -12 66t-32.5 43t-47.5 23
t-57 7q-42 0 -85.5 -10.5t-78.5 -25.5z" />
    <glyph glyph-name="uni0187" unicode="&#x187;" horiz-adv-x="698" 
d="M614 30q-41 -20 -91 -32t-122 -12q-62 0 -113.5 20.5t-88 58.5t-56.5 92.5t-20 122.5q0 78 27.5 155t81 137.5t131 98.5t178.5 38q23 0 46.5 -2.5t46.5 -8.5q26 48 69 68t91 20q54 0 104 -22l-57 -119q-31 14 -56 14q-51 0 -77 -54l-31 -67q-42 22 -75 30t-71 8
q-57 0 -102.5 -23t-78 -62.5t-49.5 -91.5t-17 -110q0 -87 38.5 -127.5t110.5 -40.5q48 0 88.5 10t75.5 26z" />
    <glyph glyph-name="uni0188" unicode="&#x188;" horiz-adv-x="549" 
d="M100 210q0 68 22 128t63 105t99.5 71t130.5 26q13 0 25 -1t23 -3q23 50 62.5 71.5t85.5 21.5q44 0 88 -18l-51 -111q-23 9 -43 9q-43 0 -64 -43l-32 -73q-20 8 -41.5 14.5t-52.5 6.5q-74 0 -117.5 -51t-43.5 -137q0 -51 22 -82.5t81 -31.5q29 0 56 6t48 15l11 -119
q-28 -11 -62 -19.5t-81 -8.5q-62 0 -105 18t-71 48.5t-40.5 71.5t-12.5 86z" />
    <glyph glyph-name="uni0189" unicode="&#x189;" horiz-adv-x="718" 
d="M257 125q11 -1 22.5 -1.5t31.5 -0.5q65 0 117.5 20t89 57.5t56.5 92t20 122.5q0 35 -9 63.5t-29.5 49t-53 31.5t-78.5 11q-30 0 -61 -3l-36 -150h127l-27 -115h-128zM754 423q0 -101 -33 -181t-94.5 -135.5t-149.5 -85.5t-199 -30q-42 0 -97 5t-106 16l70 290h-80l26 115
h81l64 264q57 11 109.5 15.5t94.5 4.5q74 0 132.5 -20t99 -57t61.5 -88t21 -113z" />
    <glyph glyph-name="uni018A" unicode="&#x18a;" horiz-adv-x="872" 
d="M411 125q11 -1 22.5 -1.5t31.5 -0.5q65 0 117.5 20t89 57.5t56.5 92t20 122.5q0 35 -9 63.5t-29.5 49t-53 31.5t-78.5 11q-30 0 -61 -3zM908 423q0 -101 -33 -181t-94.5 -135.5t-149.5 -85.5t-199 -30q-42 0 -97 5t-106 16l133 553q-62 -3 -83.5 -30t-21.5 -73l-121 -16
q-5 90 24 141t87.5 76.5t143 31.5t191.5 6h12q74 0 132.5 -20t99 -57t61.5 -88t21 -113z" />
    <glyph glyph-name="uni018B" unicode="&#x18b;" horiz-adv-x="653" 
d="M238 561l32 132h468l-163 -677q-29 -6 -58.5 -10.5t-58 -7.5t-54 -4t-46.5 -1q-69 0 -118.5 14t-81.5 38.5t-47.5 58.5t-15.5 73q0 51 17.5 100t58 86.5t108 60.5t167.5 23h75l28 114h-311zM247 207q0 -24 9 -40t25.5 -25t39.5 -12.5t52 -3.5q20 0 39 2t34 4l44 186h-65
q-51 0 -85 -10t-54.5 -25.5t-29.5 -35.5t-9 -40z" />
    <glyph glyph-name="uni018C" unicode="&#x18c;" horiz-adv-x="590" 
d="M287 -14q-50 0 -85.5 17t-58 46.5t-33 69t-10.5 84.5q0 68 24.5 128.5t67.5 105.5t102 71t129 26q18 0 33.5 -2t31.5 -6l29 120h-287l29 123h436l-130 -542q-14 -57 -8 -115t23 -102l-133 -19q-6 12 -11 23t-10 25q-28 -23 -62.5 -38t-76.5 -15zM459 407q-6 1 -10.5 2
t-9 1.5t-11.5 0.5h-18q-35 0 -65 -16.5t-51.5 -44.5t-33.5 -63.5t-12 -72.5q0 -48 16.5 -75.5t59.5 -27.5q23 0 42 9t40 30q2 25 6 52.5t10 50.5z" />
    <glyph glyph-name="uni018D" unicode="&#x18d;" horiz-adv-x="555" 
d="M602 345q0 -41 -12.5 -83t-37.5 -81t-62 -71.5t-85 -53.5q14 -16 23 -36t9 -48q0 -44 -19 -74.5t-50.5 -49.5t-72 -27.5t-82.5 -8.5q-52 0 -101 11.5t-82 30.5l58 111q27 -16 64.5 -26t70.5 -10q31 0 51.5 9.5t20.5 32.5q0 17 -14 30.5t-35.5 27.5t-46 31t-46 41
t-35.5 58t-14 82q0 80 27 136.5t70 92.5t96 53t105 17q51 0 88.5 -15.5t62 -42.5t37 -62.5t12.5 -74.5zM244 252q0 -47 21 -76t50 -50q36 17 63 41.5t45.5 52t28 56.5t9.5 54q0 35 -19 59t-58 24q-22 0 -46.5 -8.5t-45.5 -27.5t-34.5 -49.5t-13.5 -75.5z" />
    <glyph glyph-name="uni018E" unicode="&#x18e;" horiz-adv-x="592" 
d="M40 0l32 131h314l40 167h-257l31 128h257l32 136h-292l32 131h448l-167 -693h-470z" />
    <glyph glyph-name="uni018F" unicode="&#x18f;" horiz-adv-x="733" 
d="M120 228q0 77 32 168h462v10q0 47 -12.5 79.5t-34.5 52t-52 28t-64 8.5q-46 0 -96 -12.5t-96 -32.5l-11 122q48 29 105.5 43.5t117.5 14.5q79 0 135.5 -22.5t92.5 -60.5t53 -88.5t17 -105.5q0 -114 -35 -197.5t-92 -139t-128.5 -82.5t-144.5 -27q-62 0 -108.5 17.5
t-78 49.5t-47 76.5t-15.5 98.5zM384 118q39 0 70.5 11.5t57 31.5t44.5 47.5t32 59.5h-312q-4 -16 -5.5 -30t-1.5 -26q0 -51 29 -72.5t86 -21.5z" />
    <glyph glyph-name="uni0190" unicode="&#x190;" horiz-adv-x="594" 
d="M525 295h-74q-36 0 -70.5 -4.5t-62 -17t-44 -34t-16.5 -54.5q0 -36 34 -51t84 -15q46 0 97 11t93 29l14 -124q-47 -22 -108.5 -35.5t-124.5 -13.5q-50 0 -94.5 8.5t-78.5 30t-54 58.5t-20 93q0 30 9.5 59.5t29 56.5t48.5 49.5t68 37.5q-24 18 -36.5 47t-12.5 62
q0 54 25.5 95.5t67 69t95 42t110.5 14.5q53 0 105 -14.5t95 -42.5l-73 -119q-26 16 -64 29t-85 13q-25 0 -47 -4.5t-39 -15t-27 -27.5t-10 -42q0 -36 32 -49.5t80 -13.5h85z" />
    <glyph glyph-name="uni0191" unicode="&#x191;" 
d="M227 -17q-21 -88 -76.5 -129.5t-124.5 -41.5q-51 0 -101 22l41 118q26 -10 47 -10q26 0 41 17t24 53l163 681h444l-31 -131h-288l-35 -145h254l-32 -131h-254z" />
    <glyph glyph-name="florin" unicode="&#x192;" horiz-adv-x="438" 
d="M8 -185q-28 0 -55.5 5.5t-49.5 13.5l38 118q14 -5 27.5 -8t30.5 -3q35 0 53 21t28 61l126 531q25 106 90 164t183 58q45 0 78.5 -9.5t50.5 -17.5l-50 -117q-18 9 -41.5 13.5t-43.5 4.5q-55 0 -81.5 -28t-36.5 -70l-6 -26h176l-30 -122h-175l-92 -385q-25 -104 -75.5 -154
t-144.5 -50z" />
    <glyph glyph-name="uni0193" unicode="&#x193;" horiz-adv-x="716" 
d="M429 120q20 0 36 1.5t29 3.5l58 241h156l-84 -347q-28 -11 -81 -21.5t-135 -10.5q-140 0 -212.5 78.5t-72.5 214.5q0 78 27.5 155t81.5 137.5t134 98.5t184 38q47 0 100 -14q26 49 70 70t92 21q54 0 104 -22l-57 -119q-31 14 -56 14q-52 0 -78 -56l-30 -65l-3 -6
q-35 22 -74.5 33t-77.5 11q-61 0 -108.5 -23t-80.5 -62.5t-50 -91.5t-17 -110q0 -87 36.5 -128t108.5 -41z" />
    <glyph glyph-name="uni0194" unicode="&#x194;" horiz-adv-x="706" 
d="M304 176q-18 61 -36.5 122t-37.5 124t-38.5 130t-40.5 141h159q17 -62 30 -112t25 -95.5t25 -92t30 -101.5q36 48 70.5 94.5t69.5 95.5t71.5 100.5t76.5 110.5h160q-53 -75 -102.5 -144t-98 -135t-96 -130t-95.5 -127l21 -61q15 -44 15 -86q0 -39 -13 -74.5t-37.5 -62.5
t-60 -42.5t-81.5 -15.5q-35 0 -61 10t-43.5 28t-26.5 42t-9 51q0 36 15 75t45 76zM333 -65q32 0 43.5 16t11.5 40q0 11 -2 23t-5 25l-11 42l-45 -51q-14 -16 -22.5 -33.5t-8.5 -31.5q0 -13 9 -21.5t30 -8.5z" />
    <glyph glyph-name="uni0195" unicode="&#x195;" horiz-adv-x="870" 
d="M425 535q90 0 130.5 -40t40.5 -106q0 -30 -8 -68l-18 -77q-7 -27 -11.5 -48t-4.5 -37q0 -23 13.5 -34t48.5 -11q23 0 38 7.5t25.5 23t18.5 40t16 59.5l67 282h149l-71 -299q-30 -125 -95.5 -183t-177.5 -58q-93 0 -138 42t-45 112q0 27 8 62l22 93q8 34 8 58q0 28 -14 44
t-52 16q-16 0 -30.5 -2t-28.5 -5l-97 -406h-149l180 752l155 24l-61 -251q20 4 40.5 7t40.5 3z" />
    <glyph glyph-name="uni0196" unicode="&#x196;" horiz-adv-x="412" 
d="M241 693h156l-115 -480q-9 -35 -9 -56q0 -26 17 -35t40 -9q20 0 41 4.5t36 9.5l5 -119q-65 -24 -124 -24q-84 0 -129 35t-45 108q0 32 9 71z" />
    <glyph glyph-name="uni0197" unicode="&#x197;" horiz-adv-x="359" 
d="M260 693h156l-67 -279h85l-27 -110h-85l-73 -304h-156l73 304h-81l27 110h81z" />
    <glyph glyph-name="uni0198" unicode="&#x198;" horiz-adv-x="696" 
d="M483 0q-14 34 -33.5 73t-43 78t-50.5 75t-55 64l-71 -290h-155l166 693h156l-61 -250l211 195q41 38 80 54.5t75 16.5q35 0 66.5 -15t57.5 -41l-80 -104q-20 24 -51 24q-17 -1 -35.5 -8.5t-35.5 -22.5l-196 -180q63 -69 121 -158t104 -204h-170z" />
    <glyph glyph-name="uni0199" unicode="&#x199;" horiz-adv-x="561" 
d="M299 336q59 48 112.5 98t91.5 92h168q-56 -62 -116.5 -121.5t-138.5 -126.5q21 -26 42.5 -60t41 -71.5t36 -75t27.5 -71.5h-166q-9 26 -22.5 57t-30 61.5t-34.5 59.5t-36 52l-56 -230h-148l148 619q11 46 31.5 76.5t46.5 48.5t55.5 25t59.5 7q29 0 55.5 -5t47.5 -12
l-38 -107q-27 11 -48 11q-23 0 -40 -15.5t-27 -54.5z" />
    <glyph glyph-name="uni019A" unicode="&#x19a;" horiz-adv-x="365" 
d="M298 -10q-71 0 -111.5 18.5t-58.5 50.5t-17 73.5t12 88.5l31 132h-60l23 95h60l73 304l155 24l-79 -328h110l-23 -95h-110l-37 -153q-4 -18 -4.5 -33t5.5 -26.5t20.5 -18.5t40.5 -9z" />
    <glyph glyph-name="uni019B" unicode="&#x19b;" horiz-adv-x="546" 
d="M383 0q-1 34 -2 79.5t-3.5 94l-5 97t-6.5 87.5q-22 -36 -46.5 -79.5t-49 -90.5t-47.5 -95t-41 -93h-152q34 83 72.5 157t78.5 140t80.5 124t79.5 109q-1 4 -1.5 7t-0.5 6l-119 -39l-9 83l105 35q-18 27 -59 27q-24 0 -52 -7l7 121q24 5 48 9t47 4q49 0 88.5 -23t58.5 -85
l106 35l11 -83l-100 -33q13 -69 24 -144.5t19.5 -152t14 -150.5t7.5 -140h-153z" />
    <glyph glyph-name="uni019C" unicode="&#x19c;" horiz-adv-x="972" 
d="M895 18q-48 -13 -106 -22.5t-118 -9.5q-51 0 -93.5 10.5t-73.5 40.5q-43 -21 -99 -36t-110 -15q-37 0 -70.5 9t-59 29.5t-40.5 54.5t-15 84q0 47 14 106l101 424h156l-96 -401q-8 -35 -13 -62t-5 -47q0 -35 17.5 -49t59.5 -14q28 0 54 7t46 16q0 29 5 60t13 66l101 424
h156l-96 -401q-18 -72 -18 -110q0 -35 17.5 -48.5t58.5 -13.5q20 0 43 1.5t41 3.5l136 568h156z" />
    <glyph glyph-name="uni019D" unicode="&#x19d;" horiz-adv-x="742" 
d="M543 0q-42 118 -94 236.5t-111 222.5l-98 -409l-16 -67q-21 -88 -75 -129.5t-123 -41.5q-51 0 -101 22l41 118q26 -10 47 -10q25 0 40 16.5t24 50.5l164 684h119q23 -35 50 -82.5t54.5 -102.5t55.5 -114.5t53 -117.5l99 417h155l-167 -693h-117z" />
    <glyph glyph-name="uni019E" unicode="&#x19e;" 
d="M191 502q31 10 57 17t50.5 11t50 6t57.5 2q91 0 137.5 -47.5t46.5 -128.5q0 -20 -3.5 -42t-8.5 -45l-110 -460h-149l108 455q2 11 7 34.5t5 40.5q0 28 -13.5 48t-52.5 20q-30 0 -57 -6l-97 -407h-149z" />
    <glyph glyph-name="uni019F" unicode="&#x19f;" horiz-adv-x="757" 
d="M401 -14q-61 0 -112 20t-88 57.5t-57.5 91.5t-20.5 122q0 78 27 155t77.5 138.5t123.5 100t165 38.5q61 0 112 -20t88 -57.5t57.5 -91.5t20.5 -122q0 -78 -26.5 -155.5t-77 -139t-123.5 -99.5t-166 -38zM417 120q34 0 64.5 13.5t56 36.5t45.5 55t32 69h-332
q0 -80 31.5 -127t102.5 -47zM500 575q-34 0 -64.5 -13t-56 -36t-45 -54.5t-32.5 -67.5h332q0 77 -31.5 124t-102.5 47z" />
    <glyph glyph-name="Ohorn" unicode="&#x1a0;" horiz-adv-x="757" 
d="M401 -14q-61 0 -112 20t-88 57.5t-57.5 91.5t-20.5 122q0 78 27 155t77.5 138.5t123.5 100t165 38.5q99 0 170 -51q19 17 30 35t17 36t8.5 36.5t4.5 35.5h138q-5 -66 -36 -122.5t-94 -98.5q40 -68 40 -162q0 -78 -26.5 -155.5t-77 -139t-123.5 -99.5t-166 -38zM500 575
q-46 0 -85.5 -24t-69 -64t-46 -92t-16.5 -107q0 -75 31.5 -121.5t102.5 -46.5q46 0 85.5 24t69 64t46 91.5t16.5 107.5q0 75 -31.5 121.5t-102.5 46.5z" />
    <glyph glyph-name="ohorn" unicode="&#x1a1;" horiz-adv-x="581" 
d="M308 -14q-53 0 -92 16t-64.5 45t-38.5 68.5t-13 87.5q0 60 19.5 120t57.5 108t93 78.5t126 30.5q89 0 142 -47q13 12 22 23.5t16 27t11.5 37t8.5 51.5h125q-4 -69 -36 -125t-94 -97q6 -20 9.5 -42t3.5 -45q0 -60 -19 -120t-56 -108t-92.5 -78.5t-128.5 -30.5zM382 414
q-33 0 -58 -19t-42 -48t-25.5 -63.5t-8.5 -65.5q0 -50 16 -78t58 -28q33 0 58 19t42 48t25.5 63.5t8.5 65.5q0 50 -16 78t-58 28z" />
    <glyph glyph-name="uni01A2" unicode="&#x1a2;" horiz-adv-x="1045" 
d="M409 -14q-61 0 -112 20t-88 57.5t-57.5 91.5t-20.5 122q0 78 27 155t77.5 138.5t123.5 100t165 38.5q54 0 101 -16t82 -46q48 31 101 46.5t103 15.5q51 0 84.5 -12.5t53.5 -34t28 -50.5t8 -61q0 -23 -3.5 -47.5t-9.5 -49.5l-109 -454h-156l102 425q1 3 3.5 13t5 23
t4.5 26.5t2 23.5q0 27 -13.5 45t-51.5 18q-37 0 -81 -25q24 -57 24 -131q0 -78 -26.5 -155.5t-77 -139t-123.5 -99.5t-166 -38zM508 575q-46 0 -85.5 -24t-69 -64t-46 -92t-16.5 -107q0 -75 31.5 -121.5t102.5 -46.5q46 0 85.5 24t69 64t46 91.5t16.5 107.5
q0 75 -31.5 121.5t-102.5 46.5z" />
    <glyph glyph-name="uni01A3" unicode="&#x1a3;" horiz-adv-x="821" 
d="M308 -14q-53 0 -92 16t-64.5 45t-38.5 68.5t-13 87.5q0 60 19.5 120t57.5 108t93 78.5t126 30.5q45 0 79.5 -12t60.5 -33q34 18 77.5 30t87.5 12q43 0 73 -11t48 -30.5t26 -47t8 -59.5q0 -25 -4 -51.5t-11 -54.5l-113 -468h-149l111 460q1 3 3 12t4 21t4 24.5t2 21.5
q0 24 -10 40t-37 16q-14 0 -30 -4.5t-30 -10.5q8 -35 8 -72q0 -60 -19 -120t-56 -108t-92.5 -78.5t-128.5 -30.5zM382 414q-33 0 -58 -19t-42 -48t-25.5 -63.5t-8.5 -65.5q0 -50 16 -78t58 -28q33 0 58 19t42 48t25.5 63.5t8.5 65.5q0 50 -16 78t-58 28z" />
    <glyph glyph-name="uni01A4" unicode="&#x1a4;" horiz-adv-x="795" 
d="M561 701q143 0 218.5 -52.5t75.5 -145.5q0 -75 -29 -127t-80 -84t-120 -46t-150 -14h-39l-56 -232h-155l134 564q-56 -7 -77.5 -25t-25.5 -57l-121 -16q-1 5 -1 10v10q0 67 26.5 109t80 65t133 31.5t186.5 9.5zM518 570l-49 -207h39q42 0 76.5 6.5t59 21.5t38 38.5
t13.5 57.5q0 45 -32.5 64t-92.5 19h-52z" />
    <glyph glyph-name="uni01A5" unicode="&#x1a5;" horiz-adv-x="578" 
d="M245 116q19 -4 42 -4q39 0 71 14.5t54.5 40.5t35 62.5t12.5 80.5q0 43 -19 73t-66 30q-32 0 -60 -6zM608 321q0 -73 -24 -133.5t-66.5 -104.5t-102 -68.5t-129.5 -24.5q-34 0 -68 6l-45 -181h-148l191 798q10 42 29 73t44 51t55.5 29.5t64.5 9.5q46 0 93 -16l-38 -107
q-24 11 -42 11q-21 0 -36.5 -14.5t-23.5 -46.5l-16 -67q11 1 23 1.5t25 0.5q56 0 96.5 -17t66.5 -46.5t38.5 -69t12.5 -84.5z" />
    <glyph glyph-name="uni01A6" unicode="&#x1a6;" horiz-adv-x="661" 
d="M446 701q71 0 120.5 -16t80 -42t44 -61t13.5 -72q0 -33 -8.5 -66t-28.5 -63t-53 -56t-82 -44q15 -26 32.5 -60.5t37 -81t39.5 -108t40 -140.5h-167q-12 53 -29.5 107.5t-37 103t-38.5 88t-33 63.5h-85l-61 -253h-155l186 776h155l-18 -76q13 1 25 1h23zM431 570
q-17 0 -35 -1t-30 -2l-45 -190h53q48 0 81 9.5t53 25t28.5 34.5t8.5 38q0 17 -5 32.5t-18 27.5t-35 19t-56 7z" />
    <glyph glyph-name="uni01A7" unicode="&#x1a7;" horiz-adv-x="549" 
d="M219 171q0 -29 29 -40.5t71 -11.5q26 0 54.5 4t55 10t49 14t37.5 16l12 -133q-54 -23 -112.5 -33.5t-116.5 -10.5q-48 0 -91 10t-75.5 32t-52 56.5t-19.5 83.5q0 69 30.5 112.5t76.5 72t99.5 46t99.5 34.5t76.5 38.5t30.5 57.5q0 24 -25.5 36t-63.5 12q-37 0 -79 -11
t-78 -32l-20 123q54 26 111 39t110 13q43 0 80.5 -9.5t65.5 -28.5t44 -48.5t16 -69.5q0 -76 -30.5 -122.5t-77 -75t-100 -46t-100 -34.5t-77 -40t-30.5 -64z" />
    <glyph glyph-name="uni01A8" unicode="&#x1a8;" horiz-adv-x="483" 
d="M293 107q39 0 76 8.5t79 23.5l6 -121q-20 -8 -69.5 -20t-119.5 -12q-48 0 -83 11.5t-58 30.5t-34 44.5t-11 52.5q0 53 22.5 86t56 53.5t72.5 33t72.5 24t56 26.5t22.5 40q0 14 -12.5 23t-49.5 9q-38 0 -66 -7t-57 -16l-5 116q29 10 74.5 18.5t93.5 8.5q83 0 127.5 -33
t44.5 -90q0 -59 -22.5 -96.5t-56.5 -61.5t-74 -37.5t-74 -25t-56.5 -24t-22.5 -34.5q0 -18 15 -24.5t53 -6.5z" />
    <glyph glyph-name="uni01A9" unicode="&#x1a9;" horiz-adv-x="580" 
d="M316 358q-34 59 -64 114t-66 120l25 101h489l-32 -131h-303q15 -27 31 -56t32.5 -59t33.5 -59t32 -54q-20 -17 -50.5 -43t-63.5 -54.5t-64.5 -56.5t-53.5 -49h303l-32 -131h-503l26 108q66 66 130 128t130 122z" />
    <glyph glyph-name="uni01AA" unicode="&#x1aa;" horiz-adv-x="442" 
d="M383 -188q-41 0 -76 7t-61 23.5t-41 44.5t-15 72q0 17 2.5 38t8.5 44l100 408q-24 -7 -49 -7q-29 0 -54.5 9.5t-45 28.5t-31 46t-11.5 63q0 45 17.5 80.5t47 60t68 37.5t81.5 13q42 0 72 -12.5t49 -34.5t28 -51.5t9 -63.5q0 -41 -10 -81l-123 -511q-4 -15 -4 -29
q0 -26 16.5 -42.5t54.5 -23.5zM340 606q3 12 3 21q0 22 -13.5 32.5t-32.5 10.5q-24 0 -46.5 -18.5t-22.5 -54.5q0 -18 10.5 -30.5t31.5 -12.5q15 0 32 6.5t30 16.5z" />
    <glyph glyph-name="uni01AB" unicode="&#x1ab;" horiz-adv-x="416" 
d="M268 -11q-47 0 -78.5 11t-51.5 31.5t-28.5 48.5t-8.5 62q0 45 14 101l98 414l155 24l-38 -155h166l-30 -122h-165l-44 -184q-3 -12 -5 -23.5t-2 -22.5q0 -27 15 -44.5t57 -17.5q23 0 47.5 5t43.5 12q-3 -67 -14 -125.5t-33.5 -101.5t-58.5 -67.5t-90 -24.5q-29 0 -50 4
t-46 13l41 109q24 -8 44 -8q24 0 41.5 14t20.5 47z" />
    <glyph glyph-name="uni01AC" unicode="&#x1ac;" horiz-adv-x="646" 
d="M350 560q-52 0 -69 -19t-17 -59l-128 -16q-1 6 -1 12v11q0 75 28.5 116t79.5 60.5t121.5 23.5t155.5 4h271l-32 -133h-199l-134 -560h-156l134 560h-54z" />
    <glyph glyph-name="uni01AD" unicode="&#x1ad;" horiz-adv-x="416" 
d="M496 526l-30 -122h-165l-44 -187q-3 -12 -5 -22.5t-2 -20.5q0 -33 17.5 -47.5t44.5 -14.5q21 0 47 3t54 14l11 -114q-6 -3 -21 -7.5t-35.5 -9t-45 -7.5t-49.5 -3q-91 0 -132 39.5t-41 113.5q0 42 14 100l80 336q13 57 38.5 95t58.5 61.5t71 33t78 9.5q36 0 72 -6.5
t69 -17.5l-55 -116q-38 16 -73 16q-38 0 -69.5 -19t-43.5 -69l-9 -38h165z" />
    <glyph glyph-name="uni01AE" unicode="&#x1ae;" horiz-adv-x="594" 
d="M375 21q-6 -24 -6 -42q0 -19 9 -29.5t31 -10.5q16 0 46 8l-11 -121q-53 -12 -94 -12q-69 0 -107 31.5t-38 94.5q0 26 8 61l135 561h-203l32 131h561l-31 -131h-203z" />
    <glyph glyph-name="Uhorn" unicode="&#x1af;" horiz-adv-x="746" 
d="M668 252q-34 -141 -110.5 -203.5t-202.5 -62.5q-65 0 -109.5 15.5t-72.5 43t-40.5 66t-12.5 83.5q0 52 15 111l93 388h156l-98 -410q-5 -19 -7.5 -37.5t-2.5 -35.5q0 -19 4.5 -35.5t16 -28.5t31 -18.5t48.5 -6.5q60 0 91 37.5t48 106.5l102 428h68q57 0 81 27t26 81h134
q-4 -36 -14 -71.5t-29.5 -63.5t-51.5 -47t-81 -22z" />
    <glyph glyph-name="uhorn" unicode="&#x1b0;" horiz-adv-x="611" 
d="M472 526h91q45 2 65 29.5t22 76.5h120q-2 -30 -11 -61.5t-28 -58.5t-51 -47t-80 -26l-50 -212q-14 -57 -8 -115t23 -102l-133 -19q-6 12 -11 23.5t-10 25.5q-28 -22 -63 -37t-78 -15q-59 0 -95.5 21.5t-54.5 57t-19.5 81.5t10.5 94l68 284h149l-67 -282q-5 -22 -8.5 -45
t-0.5 -42.5t15.5 -32t39.5 -12.5q23 0 42.5 8.5t41.5 29.5q2 25 6.5 52.5t9.5 50.5z" />
    <glyph glyph-name="uni01B1" unicode="&#x1b1;" horiz-adv-x="807" 
d="M192 564l31 129h287l-28 -116q-36 -20 -69.5 -56t-58.5 -79.5t-40 -91t-15 -89.5q0 -34 12 -60.5t32 -44.5t46.5 -27t55.5 -9q39 0 79 16.5t72.5 51t53 87t20.5 123.5q0 51 -16 98t-50 81l28 116h275l-31 -129h-121q32 -48 47 -100.5t15 -106.5q0 -92 -35 -161.5
t-91.5 -116.5t-126.5 -71t-139 -24q-56 0 -107.5 16t-91 47.5t-63 79t-23.5 111.5q0 44 11.5 89.5t33.5 88t53.5 81t71.5 67.5h-118z" />
    <glyph glyph-name="uni01B2" unicode="&#x1b2;" horiz-adv-x="716" 
d="M340 -14q-63 0 -106 18t-70 47t-38.5 67t-11.5 78q0 38 9 76l101 421h156l-98 -408q-5 -22 -8 -41t-3 -36q0 -41 22 -64t79 -23q48 0 87.5 27t67.5 71.5t43 101t15 116.5q0 68 -20 99.5t-65 31.5q-20 0 -45 -6l15 130q23 5 49 7t46 2q54 0 89.5 -17.5t55.5 -50t28 -79
t8 -104.5q0 -55 -10.5 -111t-32 -107.5t-54.5 -96.5t-78 -78t-102.5 -52t-128.5 -19z" />
    <glyph glyph-name="uni01B3" unicode="&#x1b3;" horiz-adv-x="694" 
d="M538 572q19 25 38 48.5t42 42t51 29.5t66 11q40 0 72 -12t58 -45l-88 -102q-9 11 -19.5 17.5t-28.5 6.5q-20 0 -33 -9t-29 -29q-53 -65 -101 -127.5t-100 -128.5l-66 -274h-156l66 274q-22 53 -40.5 104t-35.5 102.5t-32.5 104t-31.5 108.5h166q16 -72 36 -143.5
t41 -141.5z" />
    <glyph glyph-name="uni01B4" unicode="&#x1b4;" horiz-adv-x="595" 
d="M424 406q31 72 73.5 99.5t93.5 27.5q25 0 51 -5.5t53 -13.5l-36 -109q-13 5 -27 8t-24 3q-17 0 -29 -5.5t-22 -17t-18.5 -29t-18.5 -41.5l-81 -188q-39 -91 -81.5 -153t-88.5 -100t-95 -54.5t-103 -16.5q-58 0 -106 28l45 117q20 -8 36 -12.5t39 -4.5q35 0 65 14t62 58
q-26 100 -51.5 230t-33.5 285h153q1 -39 4.5 -89t8.5 -102t11 -100t12 -84z" />
    <glyph glyph-name="uni01B5" unicode="&#x1b5;" horiz-adv-x="638" 
d="M712 585q-36 -31 -85 -76.5t-103 -99.5h121l-27 -110h-202q-41 -43 -79 -85.5t-71 -82.5h348l-32 -131h-537l23 93q35 46 79.5 98.5t94.5 107.5h-79l27 110h155q42 42 81.5 81t74.5 72h-306l32 131h511z" />
    <glyph glyph-name="uni01B6" unicode="&#x1b6;" horiz-adv-x="526" 
d="M582 427q-21 -18 -54.5 -48.5t-72.5 -68.5h86l-21 -88h-154q-25 -26 -49.5 -51.5t-46.5 -48.5h244l-30 -122h-424l21 87q25 30 55.5 64.5t63.5 70.5h-53l21 88h117l50 50t47 44h-214l30 122h408z" />
    <glyph glyph-name="uni01B7" unicode="&#x1b7;" horiz-adv-x="605" 
d="M265 392q23 19 50.5 41.5t54.5 45.5t52 44.5t45 39.5h-283l31 130h485l-22 -93q-16 -15 -42.5 -39t-58.5 -51.5t-66 -56.5t-65 -56q39 -6 69 -21.5t50 -37.5t30 -49.5t10 -57.5q0 -43 -20 -86.5t-61.5 -79t-105.5 -57.5t-152 -22q-66 0 -121.5 13t-109.5 41l75 124
q38 -23 82 -34t88 -11q33 0 63 6.5t52.5 20t36 33t13.5 46.5q0 38 -35.5 59.5t-115.5 21.5h-49z" />
    <glyph glyph-name="uni01B8" unicode="&#x1b8;" horiz-adv-x="615" 
d="M511 306h-49q-100 0 -148.5 -31t-48.5 -81q0 -40 29.5 -58t90.5 -18q58 0 112.5 15.5t91.5 32.5l16 -124q-55 -28 -119 -42t-127 -14q-52 0 -99 10.5t-82.5 33t-56.5 56.5t-21 82q0 39 13.5 78t44.5 72t79.5 57t119.5 33q-17 24 -38 51.5t-40.5 53.5t-35.5 49t-25 38
l22 93h485l-31 -130h-293q13 -18 29.5 -39.5t34 -44.5t35 -45.5t31.5 -41.5z" />
    <glyph glyph-name="uni01B9" unicode="&#x1b9;" horiz-adv-x="516" 
d="M431 143h-54q-41 0 -75 -10t-58.5 -27t-38 -39.5t-13.5 -48.5q0 -21 9 -35t24 -22.5t35 -12.5t42 -4q23 0 47 3.5t45.5 9t40.5 12.5t31 15l5 -119q-38 -23 -90 -36.5t-106 -13.5q-45 0 -87.5 10.5t-75 34.5t-52.5 62t-20 93q0 39 14.5 78t44 71t74.5 55.5t107 31.5
q-35 55 -60 98t-42 75l25 102h423l-30 -124h-246q11 -19 24 -41t26.5 -44.5t26.5 -45t25 -41.5z" />
    <glyph glyph-name="uni01BA" unicode="&#x1ba;" horiz-adv-x="500" 
d="M2 -195q-5 20 -9 38t-4 35q0 37 14 64t39.5 47t61 34t79.5 25l73 18q19 4 36.5 9.5t31 14t21.5 20t8 29.5q0 16 -7.5 27t-26.5 18t-51.5 10.5t-81.5 5.5l19 83q20 15 42.5 31t44.5 32t42 30.5t34 25.5h-241l30 124h423l-25 -102q-18 -14 -42.5 -32t-50.5 -36.5t-51.5 -37
t-47.5 -33.5q75 -17 109.5 -58.5t34.5 -88.5q0 -63 -38.5 -107.5t-119.5 -64.5l-142 -35q-50 -12 -66.5 -29t-16.5 -39q0 -8 2 -16l4 -16z" />
    <glyph glyph-name="uni01BB" unicode="&#x1bb;" horiz-adv-x="551" 
d="M175 615q19 22 46 39.5t57.5 29.5t63.5 18t65 6q46 0 80.5 -12t57.5 -33t34.5 -49.5t11.5 -61.5q0 -38 -15 -76t-50 -78h58l-26 -110h-142q-49 -35 -94.5 -72.5t-88.5 -90.5h298l-30 -125h-461q6 51 23.5 92.5t42 76t55.5 64t65 55.5h-83l24 110h186q52 43 70 73.5
t18 54.5q0 27 -19 41.5t-45 14.5q-32 0 -71.5 -17t-81.5 -54z" />
    <glyph glyph-name="uni01BC" unicode="&#x1bc;" horiz-adv-x="574" 
d="M351 434q124 -14 179.5 -66.5t55.5 -130.5q0 -68 -26.5 -115.5t-70.5 -77.5t-102 -44t-122 -14q-59 0 -112.5 12.5t-92.5 35.5l59 124q24 -12 64 -26t94 -14q42 0 71.5 9.5t47.5 25t26 35t8 40.5q0 22 -12 39t-42 29t-80.5 19t-128.5 10q25 70 44.5 125.5t37.5 114.5h-84
l30 128h479l-30 -128h-250q-11 -32 -21 -65.5t-22 -65.5z" />
    <glyph glyph-name="uni01BD" unicode="&#x1bd;" horiz-adv-x="508" 
d="M300 332q43 -3 81 -11t67 -25t46 -44.5t17 -70.5q0 -53 -23.5 -90t-62 -60t-87.5 -34t-99 -11t-96.5 9t-82.5 26l43 118q17 -7 58.5 -17t95.5 -10q113 0 113 67q0 28 -40 37.5t-135 9.5h-65q17 49 32.5 93t29.5 87h-74l28 120h417l-28 -120h-210q-5 -17 -12 -37t-13 -37z
" />
    <glyph glyph-name="uni01BE" unicode="&#x1be;" horiz-adv-x="488" 
d="M305 373q0 -18 13.5 -30t33.5 -22t43 -20.5t43 -27t33.5 -41.5t13.5 -62q0 -41 -17 -74.5t-49.5 -58t-79.5 -38t-107 -13.5q-43 0 -87.5 10t-88.5 32l51 117q34 -19 73 -28.5t73 -9.5q43 0 62.5 13t19.5 32q0 18 -13.5 29.5t-33.5 21.5t-43.5 20t-43.5 25t-33.5 37
t-13.5 56q0 30 9 69l59 247l155 24l-37 -155h179l-30 -122h-179q-4 -15 -4.5 -21t-0.5 -10z" />
    <glyph glyph-name="uni01BF" unicode="&#x1bf;" horiz-adv-x="577" 
d="M238 88q54 13 94.5 40.5t68.5 61t42 69t14 66.5q0 37 -20 61t-61 24q-32 0 -63 -13zM187 496q50 19 112 30t112 11q100 0 148 -49t48 -140q0 -64 -24.5 -126t-75 -115.5t-126 -95t-177.5 -64.5l-31 -132h-148z" />
    <glyph glyph-name="uni01C0" unicode="&#x1c0;" horiz-adv-x="304" 
d="M262 783h142l-233 -968h-141z" />
    <glyph glyph-name="uni01C1" unicode="&#x1c1;" horiz-adv-x="543" 
d="M262 783h142l-233 -968h-141zM501 783h142l-233 -968h-141z" />
    <glyph glyph-name="uni01C2" unicode="&#x1c2;" horiz-adv-x="572" 
d="M132 457h184l79 326h143l-79 -326h183l-25 -108h-183l-22 -90h183l-26 -108h-183l-81 -336h-143l81 336h-183l25 108h184l22 90h-184z" />
    <glyph glyph-name="uni01C3" unicode="&#x1c3;" horiz-adv-x="295" 
d="M348 514q-20 -81 -42.5 -151t-49.5 -142h-114q8 72 18 142t29 151l43 179h159zM180 171q35 0 58.5 -20t23.5 -61q0 -23 -8.5 -42t-22.5 -32.5t-32 -21t-37 -7.5q-35 0 -58.5 20t-23.5 61q0 23 8.5 42t22.5 32.5t32 21t37 7.5z" />
    <glyph glyph-name="uni01C4" unicode="&#x1c4;" horiz-adv-x="1274" 
d="M1378 585q-40 -34 -96 -86.5t-117 -114t-122 -127.5t-111 -126h348l-32 -131h-537l23 93q40 53 94 115.5t112.5 125.5t117.5 122t109 106h-306l32 131h511zM257 125q11 -1 22.5 -1.5t31.5 -0.5q65 0 117.5 20t89 57.5t56.5 92t20 122.5q0 35 -9 63.5t-29.5 49t-53 31.5
t-78.5 11q-30 0 -61 -3zM754 423q0 -101 -33 -181t-94.5 -135.5t-149.5 -85.5t-199 -30q-42 0 -97 5t-106 16l161 669q57 11 109.5 15.5t94.5 4.5q74 0 132.5 -20t99 -57t61.5 -88t21 -113zM1053 901l60 53l83 -78l113 76l46 -61l-179 -145z" />
    <glyph glyph-name="uni01C5" unicode="&#x1c5;" horiz-adv-x="1175" 
d="M257 125q11 -1 22.5 -1.5t31.5 -0.5q65 0 117.5 20t89 57.5t56.5 92t20 122.5q0 35 -9 63.5t-29.5 49t-53 31.5t-78.5 11q-30 0 -61 -3zM754 423q0 -101 -33 -181t-94.5 -135.5t-149.5 -85.5t-199 -30q-42 0 -97 5t-106 16l161 669q57 11 109.5 15.5t94.5 4.5
q74 0 132.5 -20t99 -57t61.5 -88t21 -113zM1251 427q-23 -20 -60 -54.5t-80 -76t-88 -87t-84 -87.5h244l-30 -122h-424l21 87q29 36 66.5 78t78 85t81 82.5t75.5 71.5h-214l30 122h408zM944 740l60 53l83 -78l113 76l46 -61l-179 -145z" />
    <glyph glyph-name="uni01C6" unicode="&#x1c6;" horiz-adv-x="1060" 
d="M287 -14q-50 0 -85.5 17t-58 46.5t-33 69t-10.5 84.5q0 68 24.5 128.5t67.5 105.5t102 71t129 26q18 0 33.5 -2t31.5 -6l54 226l155 24l-132 -549q-14 -57 -8 -114.5t23 -102.5l-133 -19q-6 12 -11 23t-10 25q-28 -23 -62.5 -38t-76.5 -15zM459 407q-6 1 -10.5 2t-9 1.5
t-11.5 0.5h-18q-35 0 -65 -16.5t-51.5 -44.5t-33.5 -63.5t-12 -72.5q0 -48 16.5 -75.5t59.5 -27.5q23 0 42 9t40 30q2 25 6.5 52.5t9.5 50.5zM1136 427q-23 -20 -60 -54.5t-80 -76t-88 -87t-84 -87.5h244l-30 -122h-424l21 87q29 36 66.5 78t78 85t81 82.5t75.5 71.5h-214
l30 122h408zM862 740l60 53l83 -78l113 76l46 -61l-179 -145z" />
    <glyph glyph-name="uni01C7" unicode="&#x1c7;" horiz-adv-x="1090" 
d="M569 132l-32 -132h-462l166 693h156l-135 -561h307zM1059 210q-12 -51 -32 -92.5t-52 -71t-79 -45t-114 -15.5q-54 0 -102.5 16.5t-85.5 44.5l69 116q24 -17 52.5 -30t67.5 -13q28 0 48.5 6.5t35.5 21t25.5 37.5t18.5 56l108 452h156z" />
    <glyph glyph-name="uni01C8" unicode="&#x1c8;" horiz-adv-x="839" 
d="M569 132l-32 -132h-462l166 693h156l-135 -561h307zM564 -185q-28 0 -55.5 5.5t-49.5 13.5l38 118q14 -5 27.5 -8t30.5 -3q35 0 54 21t27 61l121 503h149l-122 -507q-24 -104 -75 -154t-145 -50zM852 590q-31 0 -56 18.5t-25 56.5q0 21 8.5 39.5t22.5 32t32.5 21.5
t39.5 8q31 0 56 -18.5t25 -56.5q0 -21 -8.5 -39.5t-22.5 -32t-32.5 -21.5t-39.5 -8z" />
    <glyph glyph-name="uni01C9" unicode="&#x1c9;" horiz-adv-x="609" 
d="M270 -10q-71 0 -111.5 18.5t-58 50.5t-17 73.5t11.5 88.5l127 531l155 24l-139 -576q-4 -18 -4.5 -33t5.5 -26.5t20.5 -18.5t40.5 -9zM334 -185q-28 0 -55.5 5.5t-49.5 13.5l38 118q14 -5 27.5 -8t30.5 -3q35 0 54 21t27 61l121 503h149l-122 -507q-24 -104 -75 -154
t-145 -50zM622 590q-31 0 -56 18.5t-25 56.5q0 21 8.5 39.5t22.5 32t32.5 21.5t39.5 8q31 0 56 -18.5t25 -56.5q0 -21 -8.5 -39.5t-22.5 -32t-32.5 -21.5t-39.5 -8z" />
    <glyph glyph-name="uni01CA" unicode="&#x1ca;" horiz-adv-x="1251" 
d="M543 0q-42 118 -93.5 236t-111.5 223l-110 -459h-153l166 693h119q23 -35 49.5 -82.5t54.5 -102.5t56 -114.5t53 -117.5l99 417h155l-167 -693h-117zM1220 210q-12 -51 -32 -92.5t-52 -71t-79 -45t-114 -15.5q-54 0 -102.5 16.5t-85.5 44.5l69 116q24 -17 52.5 -30
t67.5 -13q28 0 48.5 6.5t35.5 21t25.5 37.5t18.5 56l108 452h156z" />
    <glyph glyph-name="uni01CB" unicode="&#x1cb;" horiz-adv-x="1033" 
d="M543 0q-42 118 -93.5 236t-111.5 223l-110 -459h-153l166 693h119q23 -35 49.5 -82.5t54.5 -102.5t56 -114.5t53 -117.5l99 417h155l-167 -693h-117zM758 -185q-28 0 -55.5 5.5t-49.5 13.5l38 118q14 -5 27.5 -8t30.5 -3q35 0 54 21t27 61l121 503h149l-122 -507
q-24 -104 -75 -154t-145 -50zM1046 590q-31 0 -56 18.5t-25 56.5q0 21 8.5 39.5t22.5 32t32.5 21.5t39.5 8q31 0 56 -18.5t25 -56.5q0 -21 -8.5 -39.5t-22.5 -32t-32.5 -21.5t-39.5 -8z" />
    <glyph glyph-name="uni01CC" unicode="&#x1cc;" horiz-adv-x="881" 
d="M191 502q17 5 37.5 11.5t46 12t57 9t71.5 3.5q118 0 162 -68t15 -186l-68 -284h-149l66 278q6 26 9.5 50.5t-0.5 43t-18.5 30t-44.5 11.5q-29 0 -59 -6l-97 -407h-149zM606 -185q-28 0 -55.5 5.5t-49.5 13.5l38 118q14 -5 27.5 -8t30.5 -3q35 0 54 21t27 61l121 503h149
l-122 -507q-24 -104 -75 -154t-145 -50zM894 590q-31 0 -56 18.5t-25 56.5q0 21 8.5 39.5t22.5 32t32.5 21.5t39.5 8q31 0 56 -18.5t25 -56.5q0 -21 -8.5 -39.5t-22.5 -32t-32.5 -21.5t-39.5 -8z" />
    <glyph glyph-name="uni01CD" unicode="&#x1cd;" horiz-adv-x="714" 
d="M532 0q-2 39 -4.5 76.5t-5.5 74.5h-260q-20 -37 -42 -74.5t-42 -76.5h-163q65 112 121.5 207t109 179t102.5 159.5t102 147.5h139q16 -72 30.5 -159.5t27 -179t23 -183t19.5 -171.5h-157zM486 541q-42 -67 -82.5 -133t-78.5 -135h187q-5 61 -10.5 130t-15.5 138zM409 901
l60 53l83 -78l113 76l46 -61l-179 -145z" />
    <glyph glyph-name="uni01CE" unicode="&#x1ce;" horiz-adv-x="588" 
d="M563 227q-14 -57 -8 -114.5t23 -102.5l-133 -19q-6 12 -11 23t-10 25q-28 -23 -62 -38t-76 -15q-50 0 -85.5 17.5t-58 47t-32.5 69t-10 84.5q0 69 24.5 130t68 106.5t102.5 71.5t128 26q9 0 31.5 -1t51.5 -4.5t61 -11.5t61 -22zM459 411q-13 2 -23.5 3t-25.5 1
q-34 0 -63.5 -17t-51.5 -44.5t-34.5 -63.5t-12.5 -75q0 -48 16 -76t59 -28q23 0 41.5 9t39.5 30q2 25 6.5 52.5t9.5 50.5zM308 740l60 53l83 -78l113 76l46 -61l-179 -145z" />
    <glyph glyph-name="uni01CF" unicode="&#x1cf;" horiz-adv-x="312" 
d="M241 693h156l-167 -693h-155zM212 901l60 53l83 -78l113 76l46 -61l-179 -145z" />
    <glyph glyph-name="uni01D0" unicode="&#x1d0;" horiz-adv-x="283" 
d="M218 0h-148l125 526h149zM163 740l60 53l83 -78l113 76l46 -61l-179 -145z" />
    <glyph glyph-name="uni01D1" unicode="&#x1d1;" horiz-adv-x="757" 
d="M500 575q-46 0 -85.5 -24t-69 -64t-46 -92t-16.5 -107q0 -75 31.5 -121.5t102.5 -46.5q46 0 85.5 24t69 64t46 91.5t16.5 107.5q0 75 -31.5 121.5t-102.5 46.5zM401 -14q-61 0 -112 20t-88 57.5t-57.5 91.5t-20.5 122q0 78 27 155t77.5 138.5t123.5 100t165 38.5
q61 0 112 -20t88 -57.5t57.5 -91.5t20.5 -122q0 -78 -26.5 -155.5t-77 -139t-123.5 -99.5t-166 -38zM417 901l60 53l83 -78l113 76l46 -61l-179 -145z" />
    <glyph glyph-name="uni01D2" unicode="&#x1d2;" horiz-adv-x="574" 
d="M308 -14q-53 0 -92 16t-64.5 45t-38.5 68.5t-13 87.5q0 60 19.5 120t57.5 108t93 78.5t126 30.5q52 0 91.5 -16t65 -45t38.5 -68.5t13 -87.5q0 -60 -19 -120t-56 -108t-92.5 -78.5t-128.5 -30.5zM382 414q-33 0 -58 -19t-42 -48t-25.5 -63.5t-8.5 -65.5q0 -51 16 -78.5
t58 -27.5q33 0 58 19t42 48t25.5 63.5t8.5 65.5q0 51 -16 78.5t-58 27.5zM306 740l60 53l83 -78l113 76l46 -61l-179 -145z" />
    <glyph glyph-name="uni01D3" unicode="&#x1d3;" horiz-adv-x="683" 
d="M668 252q-34 -141 -110.5 -203.5t-202.5 -62.5q-65 0 -109.5 15.5t-72.5 43t-40.5 66t-12.5 83.5q0 52 15 111l93 388h156l-98 -410q-10 -36 -10 -73q0 -20 4.5 -36t16 -28t31 -18.5t48.5 -6.5q60 0 91 37.5t48 106.5l102 428h156zM388 901l60 53l83 -78l113 76l46 -61
l-179 -145z" />
    <glyph glyph-name="uni01D4" unicode="&#x1d4;" horiz-adv-x="581" 
d="M621 526l-71 -299q-14 -57 -8 -114.5t23 -102.5l-133 -19q-11 22 -21 49q-28 -22 -63 -37t-78 -15q-59 0 -95.5 21.5t-54.5 57t-19.5 81.5t10.5 94l68 284h149l-67 -282q-5 -22 -8.5 -45t-0.5 -42.5t15.5 -32t39.5 -12.5q23 0 42.5 8.5t41.5 29.5q2 25 6.5 52.5t9.5 50.5
l65 273h149zM289 740l60 53l83 -78l113 76l46 -61l-179 -145z" />
    <glyph glyph-name="uni01D5" unicode="&#x1d5;" horiz-adv-x="683" 
d="M668 252q-34 -141 -110.5 -203.5t-202.5 -62.5q-65 0 -109.5 15.5t-72.5 43t-40.5 66t-12.5 83.5q0 52 15 111l93 388h156l-98 -410q-10 -36 -10 -73q0 -20 4.5 -36t16 -28t31 -18.5t48.5 -6.5q60 0 91 37.5t48 106.5l102 428h156zM428 728q-24 0 -40 15t-16 40
q0 32 21 51.5t46 19.5q23 0 39.5 -15.5t16.5 -41.5q0 -15 -6 -27.5t-16 -21.5t-21.5 -14.5t-23.5 -5.5zM612 728q-23 0 -39.5 15t-16.5 40q0 32 21 51.5t46 19.5q24 0 40.5 -15.5t16.5 -41.5q0 -15 -6 -27.5t-16 -21.5t-22 -14.5t-24 -5.5zM434 962h260l-19 -80h-260z" />
    <glyph glyph-name="uni01D6" unicode="&#x1d6;" horiz-adv-x="581" 
d="M621 526l-71 -299q-14 -57 -8 -114.5t23 -102.5l-133 -19q-11 22 -21 49q-28 -22 -63 -37t-78 -15q-59 0 -95.5 21.5t-54.5 57t-19.5 81.5t10.5 94l68 284h149l-67 -282q-5 -22 -8.5 -45t-0.5 -42.5t15.5 -32t39.5 -12.5q23 0 42.5 8.5t41.5 29.5q2 25 6.5 52.5t9.5 50.5
l65 273h149zM332 586q-24 0 -40 15t-16 40q0 32 21 51.5t46 19.5q23 0 39.5 -15.5t16.5 -41.5q0 -15 -6 -27.5t-16 -21.5t-21.5 -14.5t-23.5 -5.5zM516 586q-23 0 -39.5 15t-16.5 40q0 32 21 51.5t46 19.5q24 0 40.5 -15.5t16.5 -41.5q0 -15 -6 -27.5t-16 -21.5t-22 -14.5
t-24 -5.5zM338 820h260l-19 -80h-260z" />
    <glyph glyph-name="uni01D7" unicode="&#x1d7;" horiz-adv-x="683" 
d="M668 252q-34 -141 -110.5 -203.5t-202.5 -62.5q-65 0 -109.5 15.5t-72.5 43t-40.5 66t-12.5 83.5q0 52 15 111l93 388h156l-98 -410q-10 -36 -10 -73q0 -20 4.5 -36t16 -28t31 -18.5t48.5 -6.5q60 0 91 37.5t48 106.5l102 428h156zM647 732q-23 0 -39.5 15t-16.5 40
q0 32 21 51.5t46 19.5q24 0 40.5 -15.5t16.5 -41.5q0 -15 -6 -27.5t-16 -21.5t-22 -14.5t-24 -5.5zM382 732q-23 0 -39.5 15t-16.5 40q0 32 21 51.5t46 19.5q24 0 40.5 -15.5t16.5 -41.5q0 -15 -6 -27.5t-16 -21.5t-22 -14.5t-24 -5.5zM635 908l-102 -128l-63 44l89 138z
" />
    <glyph glyph-name="uni01D8" unicode="&#x1d8;" horiz-adv-x="581" 
d="M621 526l-71 -299q-14 -57 -8 -114.5t23 -102.5l-133 -19q-11 22 -21 49q-28 -22 -63 -37t-78 -15q-59 0 -95.5 21.5t-54.5 57t-19.5 81.5t10.5 94l68 284h149l-67 -282q-5 -22 -8.5 -45t-0.5 -42.5t15.5 -32t39.5 -12.5q23 0 42.5 8.5t41.5 29.5q2 25 6.5 52.5t9.5 50.5
l65 273h149zM558 590q-23 0 -39.5 15t-16.5 40q0 32 21 51.5t46 19.5q24 0 40.5 -15.5t16.5 -41.5q0 -15 -6 -27.5t-16 -21.5t-22 -14.5t-24 -5.5zM293 590q-23 0 -39.5 15t-16.5 40q0 32 21 51.5t46 19.5q24 0 40.5 -15.5t16.5 -41.5q0 -15 -6 -27.5t-16 -21.5t-22 -14.5
t-24 -5.5zM571 819l-136 -142l-60 48l114 169z" />
    <glyph glyph-name="uni01D9" unicode="&#x1d9;" horiz-adv-x="683" 
d="M668 252q-34 -141 -110.5 -203.5t-202.5 -62.5q-65 0 -109.5 15.5t-72.5 43t-40.5 66t-12.5 83.5q0 52 15 111l93 388h156l-98 -410q-10 -36 -10 -73q0 -20 4.5 -36t16 -28t31 -18.5t48.5 -6.5q60 0 91 37.5t48 106.5l102 428h156zM651 732q-23 0 -39.5 15t-16.5 40
q0 32 21 51.5t46 19.5q24 0 40.5 -15.5t16.5 -41.5q0 -15 -6 -27.5t-16 -21.5t-22 -14.5t-24 -5.5zM386 732q-23 0 -39.5 15t-16.5 40q0 32 21 51.5t46 19.5q24 0 40.5 -15.5t16.5 -41.5q0 -15 -6 -27.5t-16 -21.5t-22 -14.5t-24 -5.5zM413 907l51 55l63 -59l91 59l34 -58
l-137 -105z" />
    <glyph glyph-name="uni01DA" unicode="&#x1da;" horiz-adv-x="581" 
d="M621 526l-71 -299q-14 -57 -8 -114.5t23 -102.5l-133 -19q-11 22 -21 49q-28 -22 -63 -37t-78 -15q-59 0 -95.5 21.5t-54.5 57t-19.5 81.5t10.5 94l68 284h149l-67 -282q-5 -22 -8.5 -45t-0.5 -42.5t15.5 -32t39.5 -12.5q23 0 42.5 8.5t41.5 29.5q2 25 6.5 52.5t9.5 50.5
l65 273h149zM549 590q-23 0 -39.5 15t-16.5 40q0 32 21 51.5t46 19.5q24 0 40.5 -15.5t16.5 -41.5q0 -15 -6 -27.5t-16 -21.5t-22 -14.5t-24 -5.5zM284 590q-23 0 -39.5 15t-16.5 40q0 32 21 51.5t46 19.5q24 0 40.5 -15.5t16.5 -41.5q0 -15 -6 -27.5t-16 -21.5t-22 -14.5
t-24 -5.5zM303 803l53 55l77 -71l104 71l35 -59l-156 -125z" />
    <glyph glyph-name="uni01DB" unicode="&#x1db;" horiz-adv-x="683" 
d="M668 252q-34 -141 -110.5 -203.5t-202.5 -62.5q-65 0 -109.5 15.5t-72.5 43t-40.5 66t-12.5 83.5q0 52 15 111l93 388h156l-98 -410q-10 -36 -10 -73q0 -20 4.5 -36t16 -28t31 -18.5t48.5 -6.5q60 0 91 37.5t48 106.5l102 428h156zM646 732q-23 0 -39.5 15t-16.5 40
q0 32 21 51.5t46 19.5q24 0 40.5 -15.5t16.5 -41.5q0 -15 -6 -27.5t-16 -21.5t-22 -14.5t-24 -5.5zM381 732q-23 0 -39.5 15t-16.5 40q0 32 21 51.5t46 19.5q24 0 40.5 -15.5t16.5 -41.5q0 -15 -6 -27.5t-16 -21.5t-22 -14.5t-24 -5.5zM491 962l89 -138l-63 -44l-102 128z
" />
    <glyph glyph-name="uni01DC" unicode="&#x1dc;" horiz-adv-x="581" 
d="M621 526l-71 -299q-14 -57 -8 -114.5t23 -102.5l-133 -19q-11 22 -21 49q-28 -22 -63 -37t-78 -15q-59 0 -95.5 21.5t-54.5 57t-19.5 81.5t10.5 94l68 284h149l-67 -282q-5 -22 -8.5 -45t-0.5 -42.5t15.5 -32t39.5 -12.5q23 0 42.5 8.5t41.5 29.5q2 25 6.5 52.5t9.5 50.5
l65 273h149zM554 590q-23 0 -39.5 15t-16.5 40q0 32 21 51.5t46 19.5q24 0 40.5 -15.5t16.5 -41.5q0 -15 -6 -27.5t-16 -21.5t-22 -14.5t-24 -5.5zM289 590q-23 0 -39.5 15t-16.5 40q0 32 21 51.5t46 19.5q24 0 40.5 -15.5t16.5 -41.5q0 -15 -6 -27.5t-16 -21.5t-22 -14.5
t-24 -5.5zM415 889l66 -177l-62 -37l-100 160z" />
    <glyph glyph-name="uni01DD" unicode="&#x1dd;" horiz-adv-x="530" 
d="M565 320q0 -64 -22.5 -124t-64 -106.5t-99.5 -75t-129 -28.5q-35 0 -65 10t-52.5 29t-35 46.5t-12.5 62.5q0 56 25 95t69.5 63.5t105.5 35.5t133 11q-7 42 -30.5 59.5t-74.5 17.5q-32 0 -65 -5.5t-62 -16.5l-11 117q28 11 71.5 20t94.5 9q61 0 104 -17.5t69.5 -47.5
t38.5 -70t12 -85zM274 104q51 0 89.5 36.5t50.5 96.5q-62 -2 -100 -10.5t-59 -20.5t-28 -26.5t-7 -27.5q0 -48 54 -48z" />
    <glyph glyph-name="uni01DE" unicode="&#x1de;" horiz-adv-x="714" 
d="M532 0q-2 39 -4.5 76.5t-5.5 74.5h-260q-20 -37 -42 -74.5t-42 -76.5h-163q65 112 121.5 207t109 179t102.5 159.5t102 147.5h139q16 -72 30.5 -159.5t27 -179t23 -183t19.5 -171.5h-157zM486 541q-42 -67 -82.5 -133t-78.5 -135h187q-5 61 -10.5 130t-15.5 138zM448 728
q-24 0 -40 15t-16 40q0 32 21 51.5t46 19.5q23 0 39.5 -15.5t16.5 -41.5q0 -15 -6 -27.5t-16 -21.5t-21.5 -14.5t-23.5 -5.5zM632 728q-23 0 -39.5 15t-16.5 40q0 32 21 51.5t46 19.5q24 0 40.5 -15.5t16.5 -41.5q0 -15 -6 -27.5t-16 -21.5t-22 -14.5t-24 -5.5zM454 962h260
l-19 -80h-260z" />
    <glyph glyph-name="uni01DF" unicode="&#x1df;" horiz-adv-x="588" 
d="M563 227q-14 -57 -8 -114.5t23 -102.5l-133 -19q-6 12 -11 23t-10 25q-28 -23 -62 -38t-76 -15q-50 0 -85.5 17.5t-58 47t-32.5 69t-10 84.5q0 69 24.5 130t68 106.5t102.5 71.5t128 26q9 0 31.5 -1t51.5 -4.5t61 -11.5t61 -22zM459 411q-13 2 -23.5 3t-25.5 1
q-34 0 -63.5 -17t-51.5 -44.5t-34.5 -63.5t-12.5 -75q0 -48 16 -76t59 -28q23 0 41.5 9t39.5 30q2 25 6.5 52.5t9.5 50.5zM374 586q-24 0 -40 15t-16 40q0 32 21 51.5t46 19.5q23 0 39.5 -15.5t16.5 -41.5q0 -15 -6 -27.5t-16 -21.5t-21.5 -14.5t-23.5 -5.5zM558 586
q-23 0 -39.5 15t-16.5 40q0 32 21 51.5t46 19.5q24 0 40.5 -15.5t16.5 -41.5q0 -15 -6 -27.5t-16 -21.5t-22 -14.5t-24 -5.5zM380 820h260l-19 -80h-260z" />
    <glyph glyph-name="uni01E0" unicode="&#x1e0;" horiz-adv-x="714" 
d="M532 0q-2 39 -4.5 76.5t-5.5 74.5h-260q-20 -37 -42 -74.5t-42 -76.5h-163q65 112 121.5 207t109 179t102.5 159.5t102 147.5h139q16 -72 30.5 -159.5t27 -179t23 -183t19.5 -171.5h-157zM486 541q-42 -67 -82.5 -133t-78.5 -135h187q-5 61 -10.5 130t-15.5 138zM553 728
q-23 0 -39.5 15t-16.5 40q0 32 21 51.5t46 19.5q24 0 40.5 -15.5t16.5 -41.5q0 -15 -6 -27.5t-16 -21.5t-22 -14.5t-24 -5.5zM470 962h260l-19 -80h-260z" />
    <glyph glyph-name="uni01E1" unicode="&#x1e1;" horiz-adv-x="588" 
d="M563 227q-14 -57 -8 -114.5t23 -102.5l-133 -19q-6 12 -11 23t-10 25q-28 -23 -62 -38t-76 -15q-50 0 -85.5 17.5t-58 47t-32.5 69t-10 84.5q0 69 24.5 130t68 106.5t102.5 71.5t128 26q9 0 31.5 -1t51.5 -4.5t61 -11.5t61 -22zM459 411q-13 2 -23.5 3t-25.5 1
q-34 0 -63.5 -17t-51.5 -44.5t-34.5 -63.5t-12.5 -75q0 -48 16 -76t59 -28q23 0 41.5 9t39.5 30q2 25 6.5 52.5t9.5 50.5zM469 586q-23 0 -39.5 15t-16.5 40q0 32 21 51.5t46 19.5q24 0 40.5 -15.5t16.5 -41.5q0 -15 -6 -27.5t-16 -21.5t-22 -14.5t-24 -5.5zM386 820h260
l-19 -80h-260z" />
    <glyph glyph-name="uni01E2" unicode="&#x1e2;" horiz-adv-x="977" 
d="M508 164h-224q-31 -38 -64 -82t-60 -82h-160q84 108 156 200t141 174.5t138.5 160.5t146.5 158h495l-32 -131h-296l-32 -136h261l-31 -128h-261l-40 -167h319l-32 -131h-465zM599 546q-21 -23 -49.5 -55.5t-59 -68t-60.5 -71t-54 -63.5h161zM653 878h322l-25 -102h-322z
" />
    <glyph glyph-name="uni01E3" unicode="&#x1e3;" horiz-adv-x="837" 
d="M176 511q35 12 77 20.5t84 8.5q57 0 106 -19t79 -68q19 21 43 37.5t50 27.5t53.5 16.5t53.5 5.5q33 0 63 -9t52.5 -27.5t36 -46.5t13.5 -65q0 -56 -24.5 -95t-68.5 -63.5t-104 -35.5t-132 -11q7 -42 30.5 -59.5t74.5 -17.5q32 0 65 5.5t62 16.5l11 -117
q-38 -13 -79.5 -21t-83.5 -8q-55 0 -103 18.5t-80 66.5q-17 -20 -40.5 -36t-50 -27t-54.5 -16.5t-55 -5.5q-33 0 -62.5 8.5t-52.5 26.5t-36.5 46t-13.5 67q0 56 24.5 95t68.5 63.5t104 35.5t132 11q-7 42 -30.5 59.5t-74.5 17.5q-32 0 -65 -5.5t-62 -16.5zM279 104
q51 0 87.5 36.5t48.5 96.5q-62 -2 -99.5 -10.5t-57.5 -20.5t-26.5 -26.5t-6.5 -27.5q0 -48 54 -48zM698 422q-51 0 -87.5 -36.5t-48.5 -96.5q62 2 99.5 10.5t57.5 20.5t26.5 26t6.5 28q0 48 -54 48zM456 725h322l-25 -102h-322z" />
    <glyph glyph-name="uni01E4" unicode="&#x1e4;" horiz-adv-x="688" 
d="M429 120q20 0 36 1.5t29 3.5l19 80h-109l26 107h108l18 74h156l-18 -74h70l-26 -107h-70l-44 -186q-28 -11 -81 -21.5t-135 -10.5q-140 0 -212.5 78.5t-72.5 214.5q0 78 27.5 155t81.5 137.5t134 98.5t184 38q48 0 101.5 -14t96.5 -42l-56 -121q-35 22 -74.5 33t-77.5 11
q-61 0 -108.5 -23t-80.5 -62.5t-50 -91.5t-17 -110q0 -87 36.5 -128t108.5 -41z" />
    <glyph glyph-name="uni01E5" unicode="&#x1e5;" horiz-adv-x="589" 
d="M524 66q-15 -64 -39.5 -112t-61 -79.5t-87.5 -47t-119 -15.5q-63 0 -106 11.5t-78 28.5l50 118q31 -14 64.5 -24t82.5 -10q64 0 96.5 28.5t42.5 73.5l4 19q-20 -10 -42.5 -16t-47.5 -6q-47 0 -81 14.5t-55.5 40.5t-32 61.5t-10.5 77.5q0 76 28 134.5t74.5 97.5t107 59
t126.5 20q48 0 95 -10t92 -31l-39 -163h85l-21 -90h-85zM458 411q-20 4 -42 4q-37 0 -67.5 -13.5t-52 -36.5t-33 -55.5t-11.5 -69.5q0 -18 3 -33.5t11 -27t22 -18.5t35 -7q14 0 37.5 5t42.5 23l15 64h-58l21 90h59z" />
    <glyph glyph-name="Gcaron" unicode="&#x1e6;" horiz-adv-x="688" 
d="M429 120q20 0 36 1.5t29 3.5l58 241h156l-84 -347q-28 -11 -81 -21.5t-135 -10.5q-70 0 -123.5 20.5t-89.5 58.5t-54 92t-18 122q0 78 27.5 155t81.5 137.5t134 98.5t184 38q48 0 101.5 -14t96.5 -42l-56 -121q-35 22 -74.5 33t-77.5 11q-61 0 -108.5 -23t-80.5 -62.5
t-50 -91.5t-17 -110q0 -88 36.5 -128.5t108.5 -40.5zM426 901l60 53l83 -78l113 76l46 -61l-179 -145z" />
    <glyph glyph-name="gcaron" unicode="&#x1e7;" horiz-adv-x="567" 
d="M524 66q-15 -65 -39.5 -112.5t-61 -79t-87.5 -47t-119 -15.5q-63 0 -106 11.5t-78 28.5l50 118q31 -14 64.5 -24t82.5 -10q64 0 96.5 28.5t42.5 73.5l4 19q-20 -10 -42.5 -16t-47.5 -6q-47 0 -81 14.5t-55.5 40.5t-32 61.5t-10.5 77.5q0 76 28 134.5t74.5 97.5t107 59
t126.5 20q48 0 95 -10t92 -31zM458 411q-17 4 -42 4q-38 0 -68 -13.5t-51.5 -36.5t-33 -55.5t-11.5 -69.5q0 -18 3 -33.5t11 -27t22 -18.5t35 -7q14 0 37.5 5t42.5 23zM329 740l60 53l83 -78l113 76l46 -61l-179 -145z" />
    <glyph glyph-name="uni01E8" unicode="&#x1e8;" horiz-adv-x="662" 
d="M483 0q-14 34 -33.5 73t-43 78t-50.5 75t-55 64l-71 -290h-155l166 693h156l-61 -250q78 67 147 128.5t129 121.5h185q-91 -85 -180.5 -168.5t-188.5 -162.5q63 -69 121 -158t104 -204h-170zM376 901l60 53l83 -78l113 76l46 -61l-179 -145z" />
    <glyph glyph-name="uni01E9" unicode="&#x1e9;" horiz-adv-x="561" 
d="M299 336q60 48 113 98t91 92h168q-56 -62 -116.5 -121.5t-138.5 -126.5q21 -26 42.5 -60t41 -71t36 -75t27.5 -72h-166q-9 26 -22.5 57t-30 61.5t-34.5 59.5t-36 52l-56 -230h-148l180 752l155 24zM300 915l50 47l81 -63l106 63l38 -54l-155 -116z" />
    <glyph glyph-name="uni01EA" unicode="&#x1ea;" horiz-adv-x="757" 
d="M500 575q-46 0 -85.5 -24t-69 -64t-46 -92t-16.5 -107q0 -75 31.5 -121.5t102.5 -46.5q46 0 85.5 24t69 64t46 91.5t16.5 107.5q0 75 -31.5 121.5t-102.5 46.5zM462 -9q-46 -33 -64 -54.5t-18 -33.5q0 -16 25 -16q14 0 30 4.5t23 6.5l-10 -99q-20 -9 -44.5 -14.5
t-50.5 -5.5q-21 0 -41 4.5t-35.5 14.5t-24.5 26t-9 40q0 30 21.5 63t75.5 65q-49 9 -89 32t-68.5 59.5t-44 85t-15.5 108.5q0 78 27 155t77.5 138.5t123.5 100t165 38.5q61 0 112 -20t88 -57.5t57.5 -91.5t20.5 -122q0 -72 -22.5 -143t-65 -130t-104 -100.5t-140.5 -53.5z
" />
    <glyph glyph-name="uni01EB" unicode="&#x1eb;" horiz-adv-x="574" 
d="M383 -4q-51 -35 -70 -57.5t-19 -35.5q0 -16 25 -16q14 0 30 4.5t23 6.5l-10 -99q-20 -9 -44.5 -14.5t-50.5 -5.5q-21 0 -41 4.5t-35.5 14.5t-24.5 26t-9 40q0 30 21.5 62.5t75.5 64.5q-78 15 -116 71.5t-38 140.5q0 60 19.5 120t57.5 108t93 78.5t126 30.5q52 0 91.5 -16
t65 -45t38.5 -68.5t13 -87.5q0 -51 -14 -103t-42 -97t-69 -78.5t-96 -48.5zM382 414q-33 0 -58 -19t-42 -48t-25.5 -63.5t-8.5 -65.5q0 -51 16 -78.5t58 -27.5q33 0 58 19t42 48t25.5 63.5t8.5 65.5q0 51 -16 78.5t-58 27.5z" />
    <glyph glyph-name="uni01EC" unicode="&#x1ec;" horiz-adv-x="757" 
d="M500 575q-46 0 -85.5 -24t-69 -64t-46 -92t-16.5 -107q0 -75 31.5 -121.5t102.5 -46.5q46 0 85.5 24t69 64t46 91.5t16.5 107.5q0 75 -31.5 121.5t-102.5 46.5zM462 -9q-46 -33 -64 -54.5t-18 -33.5q0 -16 25 -16q14 0 30 4.5t23 6.5l-10 -99q-20 -9 -44.5 -14.5
t-50.5 -5.5q-21 0 -41 4.5t-35.5 14.5t-24.5 26t-9 40q0 30 21.5 63t75.5 65q-49 9 -89 32t-68.5 59.5t-44 85t-15.5 108.5q0 78 27 155t77.5 138.5t123.5 100t165 38.5q61 0 112 -20t88 -57.5t57.5 -91.5t20.5 -122q0 -72 -22.5 -143t-65 -130t-104 -100.5t-140.5 -53.5z
M385 878h322l-25 -102h-322z" />
    <glyph glyph-name="uni01ED" unicode="&#x1ed;" horiz-adv-x="574" 
d="M383 -4q-51 -35 -70 -57.5t-19 -35.5q0 -16 25 -16q14 0 30 4.5t23 6.5l-10 -99q-20 -9 -44.5 -14.5t-50.5 -5.5q-21 0 -41 4.5t-35.5 14.5t-24.5 26t-9 40q0 30 21.5 62.5t75.5 64.5q-78 15 -116 71.5t-38 140.5q0 60 19.5 120t57.5 108t93 78.5t126 30.5q52 0 91.5 -16
t65 -45t38.5 -68.5t13 -87.5q0 -51 -14 -103t-42 -97t-69 -78.5t-96 -48.5zM382 414q-33 0 -58 -19t-42 -48t-25.5 -63.5t-8.5 -65.5q0 -51 16 -78.5t58 -27.5q33 0 58 19t42 48t25.5 63.5t8.5 65.5q0 51 -16 78.5t-58 27.5zM279 725h322l-25 -102h-322z" />
    <glyph glyph-name="uni01EE" unicode="&#x1ee;" horiz-adv-x="605" 
d="M265 392q23 19 50.5 41.5t54.5 45.5t52 44.5t45 39.5h-283l31 130h485l-22 -93q-16 -15 -42.5 -39t-58.5 -51.5t-66 -56.5t-65 -56q39 -6 69 -21.5t50 -37.5t30 -49.5t10 -57.5q0 -43 -20 -86.5t-61.5 -79t-105.5 -57.5t-152 -22q-66 0 -121.5 13t-109.5 41l75 124
q38 -23 82 -34t88 -11q33 0 63 6.5t52.5 20t36 33t13.5 46.5q0 38 -35.5 59.5t-115.5 21.5h-49zM341 901l60 53l83 -78l113 76l46 -61l-179 -145z" />
    <glyph glyph-name="uni01EF" unicode="&#x1ef;" horiz-adv-x="489" 
d="M178 230q21 18 45 40.5t48 45.5t47 45.5t42 40.5h-234l30 124h423l-25 -102q-16 -16 -39.5 -38.5t-51 -48t-57 -52.5t-57.5 -54q70 -21 102.5 -66t32.5 -102q0 -45 -21 -89.5t-61.5 -80t-100 -57t-137.5 -21.5q-48 0 -92 10t-82 30l51 119q30 -14 67 -22t74 -8
q35 0 63.5 10t48.5 26.5t31 37.5t11 44q0 35 -29.5 58t-95.5 23h-54zM256 740l60 53l83 -78l113 76l46 -61l-179 -145z" />
    <glyph glyph-name="uni01F0" unicode="&#x1f0;" horiz-adv-x="290" 
d="M15 -185q-28 0 -55.5 5.5t-49.5 13.5l38 118q14 -5 27.5 -8t30.5 -3q35 0 54 21t27 61l121 503h149l-122 -507q-24 -104 -75 -154t-145 -50zM169 740l60 53l83 -78l113 76l46 -61l-179 -145z" />
    <glyph glyph-name="uni01F1" unicode="&#x1f1;" horiz-adv-x="1284" 
d="M257 125q11 -1 22.5 -1.5t31.5 -0.5q65 0 117.5 20t89 57.5t56.5 92t20 122.5q0 35 -9 63.5t-29.5 49t-53 31.5t-78.5 11q-30 0 -61 -3zM754 423q0 -101 -33 -181t-94.5 -135.5t-149.5 -85.5t-199 -30q-42 0 -97 5t-106 16l161 669q57 11 109.5 15.5t94.5 4.5
q74 0 132.5 -20t99 -57t61.5 -88t21 -113zM1378 585q-40 -34 -96 -86.5t-117 -114t-122 -127.5t-111 -126h348l-32 -131h-537l23 93q40 53 94 115.5t112.5 125.5t117.5 122t109 106h-306l32 131h511z" />
    <glyph glyph-name="uni01F2" unicode="&#x1f2;" horiz-adv-x="1175" 
d="M257 125q11 -1 22.5 -1.5t31.5 -0.5q65 0 117.5 20t89 57.5t56.5 92t20 122.5q0 35 -9 63.5t-29.5 49t-53 31.5t-78.5 11q-30 0 -61 -3zM754 423q0 -101 -33 -181t-94.5 -135.5t-149.5 -85.5t-199 -30q-42 0 -97 5t-106 16l161 669q57 11 109.5 15.5t94.5 4.5
q74 0 132.5 -20t99 -57t61.5 -88t21 -113zM1251 427q-23 -20 -60 -54.5t-80 -76t-88 -87t-84 -87.5h244l-30 -122h-424l21 87q29 36 66.5 78t78 85t81 82.5t75.5 71.5h-214l30 122h408z" />
    <glyph glyph-name="uni01F3" unicode="&#x1f3;" horiz-adv-x="1060" 
d="M287 -14q-50 0 -85.5 17t-58 46.5t-33 69t-10.5 84.5q0 68 24.5 128.5t67.5 105.5t102 71t129 26q18 0 33.5 -2t31.5 -6l54 226l155 24l-132 -549q-14 -57 -8 -114.5t23 -102.5l-133 -19q-6 12 -11 23t-10 25q-28 -23 -62.5 -38t-76.5 -15zM459 407q-6 1 -10.5 2t-9 1.5
t-11.5 0.5h-18q-35 0 -65 -16.5t-51.5 -44.5t-33.5 -63.5t-12 -72.5q0 -48 16.5 -75.5t59.5 -27.5q23 0 42 9t40 30q2 25 6.5 52.5t9.5 50.5zM1136 427q-23 -20 -60 -54.5t-80 -76t-88 -87t-84 -87.5h244l-30 -122h-424l21 87q29 36 66.5 78t78 85t81 82.5t75.5 71.5h-214
l30 122h408z" />
    <glyph glyph-name="uni01F4" unicode="&#x1f4;" horiz-adv-x="688" 
d="M429 120q20 0 36 1.5t29 3.5l58 241h156l-84 -347q-28 -11 -81 -21.5t-135 -10.5q-70 0 -123.5 20.5t-89.5 58.5t-54 92t-18 122q0 78 27.5 155t81.5 137.5t134 98.5t184 38q48 0 101.5 -14t96.5 -42l-56 -121q-35 22 -74.5 33t-77.5 11q-61 0 -108.5 -23t-80.5 -62.5
t-50 -91.5t-17 -110q0 -88 36.5 -128.5t108.5 -40.5zM718 872l-177 -136l-60 62l160 161z" />
    <glyph glyph-name="uni01F5" unicode="&#x1f5;" horiz-adv-x="567" 
d="M524 66q-15 -65 -39.5 -112.5t-61 -79t-87.5 -47t-119 -15.5q-63 0 -106 11.5t-78 28.5l50 118q31 -14 64.5 -24t82.5 -10q64 0 96.5 28.5t42.5 73.5l4 19q-20 -10 -42.5 -16t-47.5 -6q-47 0 -81 14.5t-55.5 40.5t-32 61.5t-10.5 77.5q0 76 28 134.5t74.5 97.5t107 59
t126.5 20q48 0 95 -10t92 -31zM458 411q-17 4 -42 4q-38 0 -68 -13.5t-51.5 -36.5t-33 -55.5t-11.5 -69.5q0 -18 3 -33.5t11 -27t22 -18.5t35 -7q14 0 37.5 5t42.5 23zM590 712l-177 -136l-60 62l160 161z" />
    <glyph glyph-name="uni01F6" unicode="&#x1f6;" horiz-adv-x="1018" 
d="M641 693h156l-96 -400q-8 -34 -14 -61.5t-6 -49.5q0 -30 15.5 -46t57.5 -16q51 0 79 35.5t46 110.5l64 268h155l-71 -300q-16 -66 -43 -113t-63 -77t-80.5 -44t-95.5 -14q-61 0 -102.5 14t-67.5 39t-37.5 58t-11.5 72q0 40 10 81l10 44h-245l-71 -294h-155l165 693h156
l-63 -265h245z" />
    <glyph glyph-name="uni01F7" unicode="&#x1f7;" horiz-adv-x="694" 
d="M195 -185h-155l202 840q58 20 120 32t121 12q70 0 120.5 -16t83 -43.5t47.5 -65.5t15 -81q0 -72 -34.5 -148.5t-99.5 -144t-160 -120.5t-215 -80zM275 146q73 24 130.5 59t97 77t60 89t20.5 96q0 43 -28.5 70.5t-88.5 27.5q-25 0 -49.5 -4t-45.5 -10z" />
    <glyph glyph-name="uni01F8" unicode="&#x1f8;" horiz-adv-x="742" 
d="M543 0q-42 118 -93.5 236t-111.5 223l-110 -459h-153l166 693h119q23 -35 49.5 -82.5t54.5 -102.5t56 -114.5t53 -117.5l99 417h155l-167 -693h-117zM495 959l135 -165l-64 -58l-163 144z" />
    <glyph glyph-name="uni01F9" unicode="&#x1f9;" horiz-adv-x="567" 
d="M191 502q17 5 37.5 11.5t46 12t57 9t71.5 3.5q118 0 162 -68t15 -186l-68 -284h-149l66 278q6 26 9.5 50.5t-0.5 43t-18.5 30t-44.5 11.5q-29 0 -59 -6l-97 -407h-149zM370 799l135 -165l-64 -58l-163 144z" />
    <glyph glyph-name="Aringacute" unicode="&#x1fa;" horiz-adv-x="720" 
d="M534 0q-2 39 -4.5 76t-5.5 74h-269l-40 -74t-40 -76h-161q62 107 116.5 198.5t105.5 172.5t99.5 154t98.5 143q-10 19 -10 46q0 24 8.5 42.5t22.5 31t32 19t38 6.5t38.5 -6.5t32.5 -19t22.5 -31t8.5 -42.5q0 -42 -26 -68q15 -68 27.5 -138.5t23.5 -149t21 -167t21 -191.5
h-160zM486 541q-42 -69 -82 -135t-78 -132h188q-5 61 -11.5 126.5t-16.5 140.5zM564 714q0 20 -12 30.5t-27 10.5q-14 0 -26.5 -10.5t-12.5 -30.5t12.5 -30.5t26.5 -10.5q15 0 27 10.5t12 30.5zM634 884l-174 -65l-23 61l163 82z" />
    <glyph glyph-name="aringacute" unicode="&#x1fb;" horiz-adv-x="588" 
d="M563 227q-14 -57 -8 -114.5t23 -102.5l-133 -19q-6 12 -11 23t-10 25q-28 -23 -62 -38t-76 -15q-50 0 -85.5 17.5t-58 47t-32.5 69t-10 84.5q0 69 24.5 130t68 106.5t102.5 71.5t128 26q9 0 31.5 -1t51.5 -4.5t61 -11.5t61 -22zM459 411q-13 2 -23.5 3t-25.5 1
q-34 0 -63.5 -17t-51.5 -44.5t-34.5 -63.5t-12.5 -75q0 -48 16 -76t59 -28q23 0 41.5 9t39.5 30q2 25 6.5 52.5t9.5 50.5zM578 691q0 -24 -8.5 -42.5t-22.5 -31t-32.5 -19t-38.5 -6.5t-38 6.5t-32 19t-22.5 31t-8.5 42.5t8.5 42.5t22.5 31t32 19t38 6.5t38.5 -6.5t32.5 -19
t22.5 -31t8.5 -42.5zM516 691q-1 20 -13 30.5t-27 10.5q-14 0 -26.5 -10.5t-12.5 -30.5t12.5 -30.5t26.5 -10.5q15 0 27 10.5t13 30.5zM598 867l-174 -62l-23 63l163 82z" />
    <glyph glyph-name="AEacute" unicode="&#x1fc;" horiz-adv-x="977" 
d="M944 872l-177 -136l-60 62l160 161zM508 164h-224q-31 -38 -64 -82t-60 -82h-160q84 108 156 200t141 174.5t138.5 160.5t146.5 158h495l-32 -131h-296l-32 -136h261l-31 -128h-261l-40 -167h319l-32 -131h-465zM599 546q-21 -23 -49.5 -55.5t-59 -68t-60.5 -71
t-54 -63.5h161z" />
    <glyph glyph-name="aeacute" unicode="&#x1fd;" horiz-adv-x="837" 
d="M176 511q35 12 77 20.5t84 8.5q57 0 106 -19t79 -68q19 21 43 37.5t50 27.5t53.5 16.5t53.5 5.5q33 0 63 -9t52.5 -27.5t36 -46.5t13.5 -65q0 -56 -24.5 -95t-68.5 -63.5t-104 -35.5t-132 -11q7 -42 30.5 -59.5t74.5 -17.5q32 0 65 5.5t62 16.5l11 -117
q-38 -13 -79.5 -21t-83.5 -8q-55 0 -103 18.5t-80 66.5q-17 -20 -40.5 -36t-50 -27t-54.5 -16.5t-55 -5.5q-33 0 -62.5 8.5t-52.5 26.5t-36.5 46t-13.5 67q0 56 24.5 95t68.5 63.5t104 35.5t132 11q-7 42 -30.5 59.5t-74.5 17.5q-32 0 -65 -5.5t-62 -16.5zM279 104
q51 0 87.5 36.5t48.5 96.5q-62 -2 -99.5 -10.5t-57.5 -20.5t-26.5 -26.5t-6.5 -27.5q0 -48 54 -48zM698 422q-51 0 -87.5 -36.5t-48.5 -96.5q62 2 99.5 10.5t57.5 20.5t26.5 26t6.5 28q0 48 -54 48zM734 712l-177 -136l-60 62l160 161z" />
    <glyph glyph-name="Oslashacute" unicode="&#x1fe;" horiz-adv-x="757" 
d="M401 -14q-92 0 -158 42l-64 -73l-78 63l71 81q-49 70 -49 178q0 78 27 155t77.5 138.5t123.5 100t165 38.5q90 0 156 -42l62 71l78 -63l-68 -78q24 -35 37 -80t13 -99q0 -78 -26.5 -155.5t-77 -139t-123.5 -99.5t-166 -38zM639 412q0 32 -6 59l-297 -336q29 -20 75 -20
t87.5 25.5t72.5 67.5t49.5 95t18.5 109zM505 580q-47 0 -88 -26t-72 -68t-49 -95.5t-18 -108.5q0 -16 1 -30t4 -27l295 335q-29 20 -73 20zM719 872l-177 -136l-60 62l160 161z" />
    <glyph glyph-name="oslashacute" unicode="&#x1ff;" horiz-adv-x="574" 
d="M274 116q20 -7 44 -7q39 0 66 19.5t44 51t24.5 70.5t7.5 78zM308 -14q-38 0 -68 8.5t-54 22.5l-49 -56l-65 53l57 65q-29 53 -29 124q0 60 19.5 120t57.5 108t93 78.5t126 30.5q34 0 62.5 -7t51.5 -20l46 53l65 -53l-51 -58q17 -26 25.5 -60t8.5 -72q0 -60 -19 -120
t-56 -108t-92.5 -78.5t-128.5 -30.5zM425 416q-20 7 -44 7q-39 0 -66 -19.5t-44 -51t-24.5 -70.5t-7.5 -78zM609 712l-177 -136l-60 62l160 161z" />
    <glyph glyph-name="uni0200" unicode="&#x200;" horiz-adv-x="714" 
d="M532 0q-2 39 -4.5 76.5t-5.5 74.5h-260q-20 -37 -42 -74.5t-42 -76.5h-163q65 112 121.5 207t109 179t102.5 159.5t102 147.5h139q16 -72 30.5 -159.5t27 -179t23 -183t19.5 -171.5h-157zM486 541q-42 -67 -82.5 -133t-78.5 -135h187q-5 61 -10.5 130t-15.5 138zM564 961
l103 -177l-63 -45l-129 156zM372 961l103 -177l-63 -45l-129 156z" />
    <glyph glyph-name="uni0201" unicode="&#x201;" horiz-adv-x="588" 
d="M563 227q-14 -57 -8 -114.5t23 -102.5l-133 -19q-6 12 -11 23t-10 25q-28 -23 -62 -38t-76 -15q-50 0 -85.5 17.5t-58 47t-32.5 69t-10 84.5q0 69 24.5 130t68 106.5t102.5 71.5t128 26q9 0 31.5 -1t51.5 -4.5t61 -11.5t61 -22zM459 411q-13 2 -23.5 3t-25.5 1
q-34 0 -63.5 -17t-51.5 -44.5t-34.5 -63.5t-12.5 -75q0 -48 16 -76t59 -28q23 0 41.5 9t39.5 30q2 25 6.5 52.5t9.5 50.5zM492 799l103 -177l-63 -45l-129 156zM300 799l103 -177l-63 -45l-129 156z" />
    <glyph glyph-name="uni0202" unicode="&#x202;" horiz-adv-x="714" 
d="M532 0q-2 39 -4.5 76.5t-5.5 74.5h-260q-20 -37 -42 -74.5t-42 -76.5h-163q65 112 121.5 207t109 179t102.5 159.5t102 147.5h139q16 -72 30.5 -159.5t27 -179t23 -183t19.5 -171.5h-157zM486 541q-42 -67 -82.5 -133t-78.5 -135h187q-5 61 -10.5 130t-15.5 138zM585 750
q1 5 1.5 10t0.5 10q0 24 -10.5 37.5t-35.5 13.5q-24 0 -42.5 -18t-24.5 -53h-102q3 42 20 73t42 51.5t55.5 31t61.5 10.5q27 0 52 -8.5t44.5 -25t31 -41t11.5 -57.5q0 -19 -4 -34h-101z" />
    <glyph glyph-name="uni0203" unicode="&#x203;" horiz-adv-x="588" 
d="M563 227q-14 -57 -8 -114.5t23 -102.5l-133 -19q-6 12 -11 23t-10 25q-28 -23 -62 -38t-76 -15q-50 0 -85.5 17.5t-58 47t-32.5 69t-10 84.5q0 69 24.5 130t68 106.5t102.5 71.5t128 26q9 0 31.5 -1t51.5 -4.5t61 -11.5t61 -22zM459 411q-13 2 -23.5 3t-25.5 1
q-34 0 -63.5 -17t-51.5 -44.5t-34.5 -63.5t-12.5 -75q0 -48 16 -76t59 -28q23 0 41.5 9t39.5 30q2 25 6.5 52.5t9.5 50.5zM510 590q1 5 1.5 10t0.5 10q0 24 -10.5 37.5t-35.5 13.5q-24 0 -42.5 -18t-24.5 -53h-102q3 42 20 73t42 51.5t55.5 31t61.5 10.5q27 0 52 -8.5
t44.5 -25t31 -41t11.5 -57.5q0 -19 -4 -34h-101z" />
    <glyph glyph-name="uni0204" unicode="&#x204;" horiz-adv-x="594" 
d="M75 0l166 693h453l-32 -128h-297l-32 -140h262l-31 -126h-262l-40 -170h320l-32 -129h-475zM547 961l103 -177l-63 -45l-129 156zM355 961l103 -177l-63 -45l-129 156z" />
    <glyph glyph-name="uni0205" unicode="&#x205;" horiz-adv-x="530" 
d="M100 206q0 64 22.5 124t63.5 106.5t99.5 75t129.5 28.5q35 0 65 -10t52.5 -29t35 -46.5t12.5 -62.5q0 -56 -25 -95t-69.5 -63.5t-105.5 -35.5t-133 -11q7 -42 30.5 -59.5t74.5 -17.5q32 0 65 5.5t62 16.5l11 -117q-28 -11 -71.5 -20t-94.5 -9q-62 0 -104.5 17.5t-69 47.5
t-38.5 70t-12 85zM391 422q-51 0 -89.5 -36.5t-50.5 -96.5q62 2 100 10.5t59 20.5t28 26t7 28q0 48 -54 48zM447 799l103 -177l-63 -45l-129 156zM255 799l103 -177l-63 -45l-129 156z" />
    <glyph glyph-name="uni0206" unicode="&#x206;" horiz-adv-x="594" 
d="M75 0l166 693h453l-32 -128h-297l-32 -140h262l-31 -126h-262l-40 -170h320l-32 -129h-475zM545 750q1 5 1.5 10t0.5 10q0 24 -10.5 37.5t-35.5 13.5q-24 0 -42.5 -18t-24.5 -53h-102q3 42 20 73t42 51.5t55.5 31t61.5 10.5q27 0 52 -8.5t44.5 -25t31 -41t11.5 -57.5
q0 -19 -4 -34h-101z" />
    <glyph glyph-name="uni0207" unicode="&#x207;" horiz-adv-x="530" 
d="M100 206q0 64 22.5 124t63.5 106.5t99.5 75t129.5 28.5q35 0 65 -10t52.5 -29t35 -46.5t12.5 -62.5q0 -56 -25 -95t-69.5 -63.5t-105.5 -35.5t-133 -11q7 -42 30.5 -59.5t74.5 -17.5q32 0 65 5.5t62 16.5l11 -117q-28 -11 -71.5 -20t-94.5 -9q-62 0 -104.5 17.5t-69 47.5
t-38.5 70t-12 85zM391 422q-51 0 -89.5 -36.5t-50.5 -96.5q62 2 100 10.5t59 20.5t28 26t7 28q0 48 -54 48zM476 590q1 5 1.5 10t0.5 10q0 24 -10.5 37.5t-35.5 13.5q-24 0 -42.5 -18t-24.5 -53h-102q3 42 20 73t42 51.5t55.5 31t61.5 10.5q27 0 52 -8.5t44.5 -25t31 -41
t11.5 -57.5q0 -19 -4 -34h-101z" />
    <glyph glyph-name="uni0208" unicode="&#x208;" horiz-adv-x="312" 
d="M241 693h156l-167 -693h-155zM369 961l103 -177l-63 -45l-129 156zM177 961l103 -177l-63 -45l-129 156z" />
    <glyph glyph-name="uni0209" unicode="&#x209;" horiz-adv-x="283" 
d="M218 0h-148l125 526h149zM314 799l103 -177l-63 -45l-129 156zM122 799l103 -177l-63 -45l-129 156z" />
    <glyph glyph-name="uni020A" unicode="&#x20a;" horiz-adv-x="312" 
d="M241 693h156l-167 -693h-155zM403 750q1 5 1.5 10t0.5 10q0 24 -10.5 37.5t-35.5 13.5q-24 0 -42.5 -18t-24.5 -53h-102q3 42 20 73t42 51.5t55.5 31t61.5 10.5q27 0 52 -8.5t44.5 -25t31 -41t11.5 -57.5q0 -19 -4 -34h-101z" />
    <glyph glyph-name="uni020B" unicode="&#x20b;" horiz-adv-x="283" 
d="M218 0h-148l125 526h149zM350 590q1 5 1.5 10t0.5 10q0 24 -10.5 37.5t-35.5 13.5q-24 0 -42.5 -18t-24.5 -53h-102q3 42 20 73t42 51.5t55.5 31t61.5 10.5q27 0 52 -8.5t44.5 -25t31 -41t11.5 -57.5q0 -19 -4 -34h-101z" />
    <glyph glyph-name="uni020C" unicode="&#x20c;" horiz-adv-x="757" 
d="M500 575q-46 0 -85.5 -24t-69 -64t-46 -92t-16.5 -107q0 -75 31.5 -121.5t102.5 -46.5q46 0 85.5 24t69 64t46 91.5t16.5 107.5q0 75 -31.5 121.5t-102.5 46.5zM401 -14q-61 0 -112 20t-88 57.5t-57.5 91.5t-20.5 122q0 78 27 155t77.5 138.5t123.5 100t165 38.5
q61 0 112 -20t88 -57.5t57.5 -91.5t20.5 -122q0 -78 -26.5 -155.5t-77 -139t-123.5 -99.5t-166 -38zM580 961l103 -177l-63 -45l-129 156zM388 961l103 -177l-63 -45l-129 156z" />
    <glyph glyph-name="uni020D" unicode="&#x20d;" horiz-adv-x="574" 
d="M308 -14q-53 0 -92 16t-64.5 45t-38.5 68.5t-13 87.5q0 60 19.5 120t57.5 108t93 78.5t126 30.5q52 0 91.5 -16t65 -45t38.5 -68.5t13 -87.5q0 -60 -19 -120t-56 -108t-92.5 -78.5t-128.5 -30.5zM382 414q-33 0 -58 -19t-42 -48t-25.5 -63.5t-8.5 -65.5q0 -51 16 -78.5
t58 -27.5q33 0 58 19t42 48t25.5 63.5t8.5 65.5q0 51 -16 78.5t-58 27.5zM477 799l103 -177l-63 -45l-129 156zM285 799l103 -177l-63 -45l-129 156z" />
    <glyph glyph-name="uni020E" unicode="&#x20e;" horiz-adv-x="757" 
d="M500 575q-46 0 -85.5 -24t-69 -64t-46 -92t-16.5 -107q0 -75 31.5 -121.5t102.5 -46.5q46 0 85.5 24t69 64t46 91.5t16.5 107.5q0 75 -31.5 121.5t-102.5 46.5zM401 -14q-61 0 -112 20t-88 57.5t-57.5 91.5t-20.5 122q0 78 27 155t77.5 138.5t123.5 100t165 38.5
q61 0 112 -20t88 -57.5t57.5 -91.5t20.5 -122q0 -78 -26.5 -155.5t-77 -139t-123.5 -99.5t-166 -38zM583 750q1 5 1.5 10t0.5 10q0 24 -10.5 37.5t-35.5 13.5q-24 0 -42.5 -18t-24.5 -53h-102q3 42 20 73t42 51.5t55.5 31t61.5 10.5q27 0 52 -8.5t44.5 -25t31 -41
t11.5 -57.5q0 -19 -4 -34h-101z" />
    <glyph glyph-name="uni020F" unicode="&#x20f;" horiz-adv-x="574" 
d="M308 -14q-53 0 -92 16t-64.5 45t-38.5 68.5t-13 87.5q0 60 19.5 120t57.5 108t93 78.5t126 30.5q52 0 91.5 -16t65 -45t38.5 -68.5t13 -87.5q0 -60 -19 -120t-56 -108t-92.5 -78.5t-128.5 -30.5zM382 414q-33 0 -58 -19t-42 -48t-25.5 -63.5t-8.5 -65.5q0 -51 16 -78.5
t58 -27.5q33 0 58 19t42 48t25.5 63.5t8.5 65.5q0 51 -16 78.5t-58 27.5zM473 590q1 5 1.5 10t0.5 10q0 24 -10.5 37.5t-35.5 13.5q-24 0 -42.5 -18t-24.5 -53h-102q3 42 20 73t42 51.5t55.5 31t61.5 10.5q27 0 52 -8.5t44.5 -25t31 -41t11.5 -57.5q0 -19 -4 -34h-101z" />
    <glyph glyph-name="uni0210" unicode="&#x210;" horiz-adv-x="656" 
d="M436 701q67 0 117 -16t83 -43t49 -63.5t16 -76.5q0 -33 -7.5 -65t-28 -61t-55 -53.5t-88.5 -41.5q28 -52 57.5 -126t55.5 -155h-167q-23 69 -46.5 136.5t-52.5 116.5h-78l-61 -253h-155l163 683q54 10 105 14t93 4zM431 569q-17 0 -35 -1t-30 -2l-45 -190h53q48 0 81 9
t53 24t28.5 34.5t8.5 39.5q0 17 -5 32.5t-18 27.5t-35 19t-56 7zM503 961l103 -177l-63 -45l-129 156zM311 961l103 -177l-63 -45l-129 156z" />
    <glyph glyph-name="uni0211" unicode="&#x211;" horiz-adv-x="426" 
d="M472 398q-20 5 -39.5 9.5t-57.5 4.5q-14 0 -31 -2.5t-28 -5.5l-97 -404h-149l120 498q43 14 96.5 26.5t120.5 12.5q25 0 55.5 -4.5t53.5 -14.5zM434 799l103 -177l-63 -45l-129 156zM242 799l103 -177l-63 -45l-129 156z" />
    <glyph glyph-name="uni0212" unicode="&#x212;" horiz-adv-x="656" 
d="M436 701q67 0 117 -16t83 -43t49 -63.5t16 -76.5q0 -33 -7.5 -65t-28 -61t-55 -53.5t-88.5 -41.5q28 -52 57.5 -126t55.5 -155h-167q-23 69 -46.5 136.5t-52.5 116.5h-78l-61 -253h-155l163 683q54 10 105 14t93 4zM431 569q-17 0 -35 -1t-30 -2l-45 -190h53q48 0 81 9
t53 24t28.5 34.5t8.5 39.5q0 17 -5 32.5t-18 27.5t-35 19t-56 7zM534 750q1 5 1.5 10t0.5 10q0 24 -10.5 37.5t-35.5 13.5q-24 0 -42.5 -18t-24.5 -53h-102q3 42 20 73t42 51.5t55.5 31t61.5 10.5q27 0 52 -8.5t44.5 -25t31 -41t11.5 -57.5q0 -19 -4 -34h-101z" />
    <glyph glyph-name="uni0213" unicode="&#x213;" horiz-adv-x="426" 
d="M472 398q-20 5 -39.5 9.5t-57.5 4.5q-14 0 -31 -2.5t-28 -5.5l-97 -404h-149l120 498q43 14 96.5 26.5t120.5 12.5q25 0 55.5 -4.5t53.5 -14.5zM433 590q1 5 1.5 10t0.5 10q0 24 -10.5 37.5t-35.5 13.5q-24 0 -42.5 -18t-24.5 -53h-102q3 42 20 73t42 51.5t55.5 31
t61.5 10.5q27 0 52 -8.5t44.5 -25t31 -41t11.5 -57.5q0 -19 -4 -34h-101z" />
    <glyph glyph-name="uni0214" unicode="&#x214;" horiz-adv-x="683" 
d="M668 252q-34 -141 -110.5 -203.5t-202.5 -62.5q-65 0 -109.5 15.5t-72.5 43t-40.5 66t-12.5 83.5q0 52 15 111l93 388h156l-98 -410q-10 -36 -10 -73q0 -20 4.5 -36t16 -28t31 -18.5t48.5 -6.5q60 0 91 37.5t48 106.5l102 428h156zM559 961l103 -177l-63 -45l-129 156z
M367 961l103 -177l-63 -45l-129 156z" />
    <glyph glyph-name="uni0215" unicode="&#x215;" horiz-adv-x="581" 
d="M621 526l-71 -299q-14 -57 -8 -114.5t23 -102.5l-133 -19q-11 22 -21 49q-28 -22 -63 -37t-78 -15q-59 0 -95.5 21.5t-54.5 57t-19.5 81.5t10.5 94l68 284h149l-67 -282q-5 -22 -8.5 -45t-0.5 -42.5t15.5 -32t39.5 -12.5q23 0 42.5 8.5t41.5 29.5q2 25 6.5 52.5t9.5 50.5
l65 273h149zM469 799l103 -177l-63 -45l-129 156zM277 799l103 -177l-63 -45l-129 156z" />
    <glyph glyph-name="uni0216" unicode="&#x216;" horiz-adv-x="683" 
d="M668 252q-34 -141 -110.5 -203.5t-202.5 -62.5q-65 0 -109.5 15.5t-72.5 43t-40.5 66t-12.5 83.5q0 52 15 111l93 388h156l-98 -410q-10 -36 -10 -73q0 -20 4.5 -36t16 -28t31 -18.5t48.5 -6.5q60 0 91 37.5t48 106.5l102 428h156zM571 750q1 5 1.5 10t0.5 10
q0 24 -10.5 37.5t-35.5 13.5q-24 0 -42.5 -18t-24.5 -53h-102q3 42 20 73t42 51.5t55.5 31t61.5 10.5q27 0 52 -8.5t44.5 -25t31 -41t11.5 -57.5q0 -19 -4 -34h-101z" />
    <glyph glyph-name="uni0217" unicode="&#x217;" horiz-adv-x="581" 
d="M621 526l-71 -299q-14 -57 -8 -114.5t23 -102.5l-133 -19q-11 22 -21 49q-28 -22 -63 -37t-78 -15q-59 0 -95.5 21.5t-54.5 57t-19.5 81.5t10.5 94l68 284h149l-67 -282q-5 -22 -8.5 -45t-0.5 -42.5t15.5 -32t39.5 -12.5q23 0 42.5 8.5t41.5 29.5q2 25 6.5 52.5t9.5 50.5
l65 273h149zM464 590q1 5 1.5 10t0.5 10q0 24 -10.5 37.5t-35.5 13.5q-24 0 -42.5 -18t-24.5 -53h-102q3 42 20 73t42 51.5t55.5 31t61.5 10.5q27 0 52 -8.5t44.5 -25t31 -41t11.5 -57.5q0 -19 -4 -34h-101z" />
    <glyph glyph-name="Scommaaccent" unicode="&#x218;" horiz-adv-x="559" 
d="M269 116q23 0 46 3.5t41 12.5t29.5 25.5t11.5 42.5q0 20 -11 34.5t-28 26.5t-38 22t-42 22q-27 16 -51 34t-41 40.5t-27 50t-10 63.5q0 46 17.5 85.5t52 68.5t86.5 45.5t122 16.5q32 0 62 -5.5t56 -13.5t47.5 -18.5t36.5 -20.5l-65 -115q-25 19 -61 32t-78 13
q-23 0 -44 -4t-37 -13.5t-25.5 -24.5t-9.5 -37q0 -20 7.5 -33.5t19.5 -23.5t28 -18l34 -17q31 -16 60 -34t51 -41.5t35 -53.5t13 -71q0 -57 -21 -99t-59 -70t-90.5 -41.5t-116.5 -13.5q-42 0 -78.5 7t-66 16.5t-51 20.5t-34.5 20l66 119q12 -8 29 -17t38.5 -17t45.5 -13.5
t50 -5.5zM322 -50q-5 -47 -20 -79t-36.5 -51t-48.5 -27t-57 -8q-27 0 -57 8l21 79q4 -1 7.5 -1h6.5q19 0 31 6.5t18.5 17.5t10 25t6.5 30h118z" />
    <glyph glyph-name="scommaaccent" unicode="&#x219;" horiz-adv-x="483" 
d="M309 -50q-5 -47 -20 -79t-36.5 -51t-48.5 -27t-57 -8q-27 0 -57 8l21 79q4 -1 7.5 -1h6.5q19 0 31 6.5t18.5 17.5t10 25t6.5 30h118zM241 106q51 0 70 14.5t19 31.5q0 11 -3.5 19t-11.5 15t-22 14.5t-36 17.5q-25 11 -47 23.5t-38.5 30t-26 40t-9.5 53.5q0 81 59.5 128
t173.5 47q54 0 96 -12t68 -26l-51 -111q-21 11 -54 21t-65 10q-14 0 -27.5 -1.5t-25 -6.5t-18.5 -14t-7 -24q0 -20 15.5 -30t43.5 -24q39 -19 65 -35t41.5 -34t22.5 -41t7 -54q0 -32 -13.5 -63t-42.5 -55t-74 -39t-108 -15q-39 0 -70.5 5t-55.5 12.5t-40.5 15.5t-25.5 13
l51 114q17 -10 53 -25t87 -15z" />
    <glyph glyph-name="uni021A" unicode="&#x21a;" horiz-adv-x="594" 
d="M338 -50q-5 -47 -20 -79t-36.5 -51t-48.5 -27t-57 -8q-27 0 -57 8l21 79q4 -1 7.5 -1h6.5q19 0 31 6.5t18.5 17.5t10 25t6.5 30h118zM739 693l-32 -131h-203l-135 -562h-156l135 562h-203l32 131h562z" />
    <glyph glyph-name="uni021B" unicode="&#x21b;" horiz-adv-x="416" 
d="M304 -50q-5 -47 -20 -79t-36.5 -51t-48.5 -27t-57 -8q-27 0 -57 8l21 79q4 -1 7.5 -1h6.5q19 0 31 6.5t18.5 17.5t10 25t6.5 30h118zM213 657l155 24l-38 -155h166l-30 -122h-165l-44 -184q-6 -23 -7.5 -43t5 -34.5t22.5 -22.5t44 -8q24 0 46.5 4.5t45.5 12.5l11 -114
q-30 -11 -65 -19t-83 -8q-69 0 -107 20.5t-54 56t-14 81.5t14 97z" />
    <glyph glyph-name="uni021C" unicode="&#x21c;" horiz-adv-x="594" 
d="M40 -47q17 -2 35.5 -2h39.5q47 0 98.5 7.5t94.5 27.5t71 55.5t28 91.5q0 28 -12.5 47t-33.5 30.5t-48.5 16.5t-57.5 5h-65l32 131h41q38 0 75 8.5t66.5 26t47.5 43.5t18 61t-24 53.5t-69 18.5q-39 0 -85.5 -10t-80.5 -25l-13 124q52 23 104.5 34t103.5 11q50 0 92 -11
t72 -33.5t47 -57t17 -82.5q0 -33 -10.5 -67t-31 -64t-50.5 -54.5t-68 -39.5q46 -24 70 -68t24 -98t-25.5 -110.5t-82.5 -103t-147 -76t-219 -29.5q-23 0 -48.5 1.5t-45.5 3.5z" />
    <glyph glyph-name="uni021D" unicode="&#x21d;" horiz-adv-x="481" 
d="M138 511q39 11 86.5 20t95.5 9q46 0 82 -12t60 -33t36.5 -48t12.5 -57q0 -24 -6 -49t-21 -48.5t-40.5 -45.5t-63.5 -40q45 -17 66 -51t21 -77q0 -44 -24.5 -91t-81 -85.5t-147.5 -63.5t-224 -25l21 126q52 2 105 8t96 21t70.5 41.5t27.5 69.5q0 34 -34 49t-85 15h-26
l30 121q34 0 63 6.5t50.5 19t33.5 31.5t12 45t-21.5 36t-52.5 10q-18 0 -37.5 -2.5t-37 -6t-32.5 -7.5t-24 -7z" />
    <glyph glyph-name="uni021E" unicode="&#x21e;" horiz-adv-x="714" 
d="M643 693h156l-167 -693h-156l71 295h-246l-71 -295h-155l166 693h156l-64 -266h246zM399 901l60 53l83 -78l113 76l46 -61l-179 -145z" />
    <glyph glyph-name="uni021F" unicode="&#x21f;" horiz-adv-x="565" 
d="M425 535q43 0 74 -12.5t51 -35t30 -53.5t10 -67q0 -42 -10 -83l-68 -284h-149l66 278q4 17 7.5 36t3.5 36q0 26 -13.5 44.5t-51.5 18.5q-16 0 -30.5 -2t-28.5 -5l-97 -406h-149l180 752l155 24l-61 -251q20 4 40.5 7t40.5 3zM300 915l50 47l81 -63l106 63l38 -54
l-155 -116z" />
    <glyph glyph-name="uni0220" unicode="&#x220;" horiz-adv-x="697" 
d="M237 678q54 11 118.5 21t127.5 10q49 0 93 -8.5t77.5 -30.5t53.5 -59.5t20 -94.5q0 -48 -14 -104l-144 -597h-156l144 599q11 44 11 76q0 25 -10 41.5t-26 26t-37 13t-43 3.5q-23 0 -45 -2.5t-40 -4.5l-136 -567h-156z" />
    <glyph glyph-name="uni0221" unicode="&#x221;" horiz-adv-x="746" 
d="M542 752l155 24l-151 -630q15 5 30.5 7t29.5 2q34 0 59 -11.5t41.5 -31t24.5 -45t8 -53.5q0 -35 -13 -70.5t-38 -64t-62 -46.5t-85 -18q-52 0 -93.5 26.5t-52.5 83.5l-115 -100l-56 69l107 97q-23 -5 -44 -5q-50 0 -85.5 17t-58 46.5t-33 69t-10.5 84.5q0 68 24.5 128.5
t67.5 105.5t102 71t129 26q18 0 33.5 -2t31.5 -6zM459 407q-6 1 -10.5 2t-9 1.5t-11.5 0.5h-18q-35 0 -65 -16.5t-51.5 -44.5t-33.5 -63.5t-12 -72.5q0 -48 16.5 -75.5t59.5 -27.5q23 0 42 9t40 30q0 25 5 52t11 51zM515 20q-5 -14 -7.5 -27t-2.5 -23q0 -23 12.5 -34
t29.5 -11q12 0 25 5t23.5 15t17.5 24t7 32q0 23 -13 31.5t-31 8.5q-17 0 -33.5 -6t-27.5 -15z" />
    <glyph glyph-name="uni0222" unicode="&#x222;" horiz-adv-x="722" 
d="M459 433q46 0 75.5 21.5t46 57.5t23 83t7.5 98h151q-1 -43 -5 -89.5t-18 -89.5t-41.5 -78.5t-74.5 -56.5q43 -21 67.5 -63t24.5 -91q0 -42 -19 -85t-62 -77t-112.5 -55.5t-169.5 -21.5q-67 0 -115.5 15t-80 40.5t-46.5 58t-15 68.5q0 30 10.5 61.5t32 60t54.5 51.5t77 38
q-27 20 -38 47t-11 59q0 50 19.5 104t40.5 104h151q-8 -19 -18 -42t-18.5 -47.5t-14.5 -49t-6 -45.5q0 -33 18.5 -54.5t66.5 -21.5zM383 115q31 0 61.5 7t55 21t39.5 36.5t15 52.5q0 38 -34.5 56t-91.5 18q-34 0 -65 -6.5t-54.5 -21t-37.5 -36t-14 -51.5q0 -20 10 -34
t27 -23.5t40 -14t49 -4.5z" />
    <glyph glyph-name="uni0223" unicode="&#x223;" horiz-adv-x="598" 
d="M424 489q32 0 55.5 19t40.5 55.5t27.5 90t17.5 122.5h134q0 -51 -6.5 -103t-23.5 -98t-48 -84t-80 -60q42 -26 58 -68t16 -90q0 -72 -26 -126t-67 -90t-93 -54t-103 -18q-43 0 -82.5 12.5t-69.5 37t-48 61.5t-18 87q0 37 11.5 76.5t33 75t53 64t71.5 45.5
q-29 23 -43.5 52.5t-14.5 62.5q0 51 20 107.5t42 109.5h140q-9 -21 -20 -47.5t-20 -55t-15 -56.5t-6 -52q0 -33 14.5 -54.5t49.5 -21.5zM334 114q26 0 51.5 11t45.5 32t32.5 51t12.5 68q0 39 -21.5 62t-60.5 23q-27 0 -53 -12.5t-46 -34.5t-32 -53t-12 -67q0 -39 22 -59.5
t61 -20.5z" />
    <glyph glyph-name="uni0224" unicode="&#x224;" horiz-adv-x="638" 
d="M712 585q-40 -34 -96 -86.5t-117 -114t-122 -127.5t-111 -126h348l-29 -119q-15 -61 -36 -100t-46.5 -61t-56.5 -30t-65 -8q-32 0 -50 4.5t-38 11.5l39 112q20 -7 39 -7q26 0 41.5 16t25.5 50h-393l23 93q40 53 94 115.5t112.5 125.5t117.5 122t109 106h-306l32 131h511z
" />
    <glyph glyph-name="uni0225" unicode="&#x225;" horiz-adv-x="526" 
d="M582 427q-23 -20 -60 -54t-80 -76t-88 -87.5t-84 -87.5h244l-36 -145q-12 -48 -31 -80t-43.5 -50.5t-53 -26t-59.5 -7.5q-49 0 -100 20l40 99q28 -12 56 -12q25 0 43 12.5t25 41.5l5 26h-300l21 87q29 36 67 78t78.5 84.5t80.5 82.5t75 72h-214l30 122h408z" />
    <glyph glyph-name="uni0226" unicode="&#x226;" horiz-adv-x="714" 
d="M532 0q-2 39 -4.5 76.5t-5.5 74.5h-260q-20 -37 -42 -74.5t-42 -76.5h-163q65 112 121.5 207t109 179t102.5 159.5t102 147.5h139q16 -72 30.5 -159.5t27 -179t23 -183t19.5 -171.5h-157zM486 541q-42 -67 -82.5 -133t-78.5 -135h187q-5 61 -10.5 130t-15.5 138zM542 760
q-31 0 -51 18t-20 50q0 42 26.5 65t59.5 23q30 0 51 -18t21 -51q0 -20 -7.5 -36t-20 -27.5t-28 -17.5t-31.5 -6z" />
    <glyph glyph-name="uni0227" unicode="&#x227;" horiz-adv-x="588" 
d="M563 227q-14 -57 -8 -114.5t23 -102.5l-133 -19q-6 12 -11 23t-10 25q-28 -23 -62 -38t-76 -15q-50 0 -85.5 17.5t-58 47t-32.5 69t-10 84.5q0 69 24.5 130t68 106.5t102.5 71.5t128 26q9 0 31.5 -1t51.5 -4.5t61 -11.5t61 -22zM459 411q-13 2 -23.5 3t-25.5 1
q-34 0 -63.5 -17t-51.5 -44.5t-34.5 -63.5t-12.5 -75q0 -48 16 -76t59 -28q23 0 41.5 9t39.5 30q2 25 6.5 52.5t9.5 50.5zM465 600q-31 0 -51 18t-20 50q0 42 26.5 65t59.5 23q30 0 51 -18t21 -51q0 -20 -7.5 -36t-20 -27.5t-28 -17.5t-31.5 -6z" />
    <glyph glyph-name="uni0228" unicode="&#x228;" horiz-adv-x="594" 
d="M75 0l166 693h453l-32 -128h-297l-32 -140h262l-31 -126h-262l-40 -170h320l-32 -129h-144q-8 -11 -16.5 -23.5t-13.5 -20.5q22 -11 33 -29t11 -38q0 -29 -11.5 -50t-31 -34.5t-44.5 -19.5t-51 -6q-27 0 -53.5 6t-47.5 17l36 82q13 -6 29.5 -10t31.5 -4q40 0 40 24
q0 11 -7 18t-23 14l-20 9q8 14 20.5 32.5t23.5 32.5h-237z" />
    <glyph glyph-name="uni0229" unicode="&#x229;" horiz-adv-x="530" 
d="M100 206q0 64 22.5 124t63.5 106.5t99.5 75t129.5 28.5q35 0 65 -10t52.5 -29t35 -46.5t12.5 -62.5q0 -56 -25 -95t-69.5 -63.5t-105.5 -35.5t-133 -11q7 -41 31 -59t74 -18q32 0 65 5.5t62 16.5l11 -117q-21 -8 -51 -15t-66 -11q-7 -9 -12.5 -18t-9.5 -15q22 -11 33 -29
t11 -38q0 -29 -11.5 -50t-31 -34.5t-44.5 -19.5t-51 -6q-27 0 -53.5 6t-47.5 17l36 82q13 -6 29.5 -10t31.5 -4q40 0 40 24q0 11 -7 18t-23 14l-20 9q7 11 16.5 25.5t19.5 28.5q-49 6 -83 25t-55.5 48t-31 66t-9.5 78zM391 422q-51 0 -89.5 -36.5t-50.5 -96.5q62 2 100 10.5
t59 20.5t28 26.5t7 27.5q0 23 -14 35.5t-40 12.5z" />
    <glyph glyph-name="uni022A" unicode="&#x22a;" horiz-adv-x="757" 
d="M500 575q-46 0 -85.5 -24t-69 -64t-46 -92t-16.5 -107q0 -75 31.5 -121.5t102.5 -46.5q46 0 85.5 24t69 64t46 91.5t16.5 107.5q0 75 -31.5 121.5t-102.5 46.5zM401 -14q-61 0 -112 20t-88 57.5t-57.5 91.5t-20.5 122q0 78 27 155t77.5 138.5t123.5 100t165 38.5
q61 0 112 -20t88 -57.5t57.5 -91.5t20.5 -122q0 -78 -26.5 -155.5t-77 -139t-123.5 -99.5t-166 -38zM421 728q-24 0 -40 15t-16 40q0 32 21 51.5t46 19.5q23 0 39.5 -15.5t16.5 -41.5q0 -15 -6 -27.5t-16 -21.5t-21.5 -14.5t-23.5 -5.5zM605 728q-23 0 -39.5 15t-16.5 40
q0 32 21 51.5t46 19.5q24 0 40.5 -15.5t16.5 -41.5q0 -15 -6 -27.5t-16 -21.5t-22 -14.5t-24 -5.5zM427 962h260l-19 -80h-260z" />
    <glyph glyph-name="uni022B" unicode="&#x22b;" horiz-adv-x="574" 
d="M308 -14q-53 0 -92 16t-64.5 45t-38.5 68.5t-13 87.5q0 60 19.5 120t57.5 108t93 78.5t126 30.5q52 0 91.5 -16t65 -45t38.5 -68.5t13 -87.5q0 -60 -19 -120t-56 -108t-92.5 -78.5t-128.5 -30.5zM382 414q-33 0 -58 -19t-42 -48t-25.5 -63.5t-8.5 -65.5q0 -51 16 -78.5
t58 -27.5q33 0 58 19t42 48t25.5 63.5t8.5 65.5q0 51 -16 78.5t-58 27.5zM331 586q-24 0 -40 15t-16 40q0 32 21 51.5t46 19.5q23 0 39.5 -15.5t16.5 -41.5q0 -15 -6 -27.5t-16 -21.5t-21.5 -14.5t-23.5 -5.5zM515 586q-23 0 -39.5 15t-16.5 40q0 32 21 51.5t46 19.5
q24 0 40.5 -15.5t16.5 -41.5q0 -15 -6 -27.5t-16 -21.5t-22 -14.5t-24 -5.5zM337 820h260l-19 -80h-260z" />
    <glyph glyph-name="uni022C" unicode="&#x22c;" horiz-adv-x="757" 
d="M500 575q-46 0 -85.5 -24t-69 -64t-46 -92t-16.5 -107q0 -75 31.5 -121.5t102.5 -46.5q46 0 85.5 24t69 64t46 91.5t16.5 107.5q0 75 -31.5 121.5t-102.5 46.5zM401 -14q-61 0 -112 20t-88 57.5t-57.5 91.5t-20.5 122q0 78 27 155t77.5 138.5t123.5 100t165 38.5
q61 0 112 -20t88 -57.5t57.5 -91.5t20.5 -122q0 -78 -26.5 -155.5t-77 -139t-123.5 -99.5t-166 -38zM437 962h270l-19 -80h-270zM687 822q-22 -42 -50 -64.5t-66 -22.5q-16 0 -28.5 4.5t-23 10t-20.5 10t-20 4.5q-11 0 -24 -8t-27 -29l-54 36q22 42 50 64.5t66 22.5
q16 0 28.5 -4.5t23 -10t20.5 -10t20 -4.5q11 0 24 8t27 29z" />
    <glyph glyph-name="uni022D" unicode="&#x22d;" horiz-adv-x="574" 
d="M308 -14q-53 0 -92 16t-64.5 45t-38.5 68.5t-13 87.5q0 60 19.5 120t57.5 108t93 78.5t126 30.5q52 0 91.5 -16t65 -45t38.5 -68.5t13 -87.5q0 -60 -19 -120t-56 -108t-92.5 -78.5t-128.5 -30.5zM382 414q-33 0 -58 -19t-42 -48t-25.5 -63.5t-8.5 -65.5q0 -51 16 -78.5
t58 -27.5q33 0 58 19t42 48t25.5 63.5t8.5 65.5q0 51 -16 78.5t-58 27.5zM333 820h270l-19 -80h-270zM583 680q-22 -42 -50 -64.5t-66 -22.5q-16 0 -28.5 4.5t-23 10t-20.5 10t-20 4.5q-11 0 -24 -8t-27 -29l-54 36q22 42 50 64.5t66 22.5q16 0 28.5 -4.5t23 -10t20.5 -10
t20 -4.5q11 0 24 8t27 29z" />
    <glyph glyph-name="uni022E" unicode="&#x22e;" horiz-adv-x="757" 
d="M500 575q-46 0 -85.5 -24t-69 -64t-46 -92t-16.5 -107q0 -75 31.5 -121.5t102.5 -46.5q46 0 85.5 24t69 64t46 91.5t16.5 107.5q0 75 -31.5 121.5t-102.5 46.5zM401 -14q-61 0 -112 20t-88 57.5t-57.5 91.5t-20.5 122q0 78 27 155t77.5 138.5t123.5 100t165 38.5
q61 0 112 -20t88 -57.5t57.5 -91.5t20.5 -122q0 -78 -26.5 -155.5t-77 -139t-123.5 -99.5t-166 -38zM528 760q-31 0 -51 18t-20 50q0 42 26.5 65t59.5 23q30 0 51 -18t21 -51q0 -20 -7.5 -36t-20 -27.5t-28 -17.5t-31.5 -6z" />
    <glyph glyph-name="uni022F" unicode="&#x22f;" horiz-adv-x="574" 
d="M308 -14q-53 0 -92 16t-64.5 45t-38.5 68.5t-13 87.5q0 60 19.5 120t57.5 108t93 78.5t126 30.5q52 0 91.5 -16t65 -45t38.5 -68.5t13 -87.5q0 -60 -19 -120t-56 -108t-92.5 -78.5t-128.5 -30.5zM382 414q-33 0 -58 -19t-42 -48t-25.5 -63.5t-8.5 -65.5q0 -51 16 -78.5
t58 -27.5q33 0 58 19t42 48t25.5 63.5t8.5 65.5q0 51 -16 78.5t-58 27.5zM416 600q-31 0 -51 18t-20 50q0 42 26.5 65t59.5 23q30 0 51 -18t21 -51q0 -20 -7.5 -36t-20 -27.5t-28 -17.5t-31.5 -6z" />
    <glyph glyph-name="uni0230" unicode="&#x230;" horiz-adv-x="757" 
d="M500 575q-46 0 -85.5 -24t-69 -64t-46 -92t-16.5 -107q0 -75 31.5 -121.5t102.5 -46.5q46 0 85.5 24t69 64t46 91.5t16.5 107.5q0 75 -31.5 121.5t-102.5 46.5zM401 -14q-61 0 -112 20t-88 57.5t-57.5 91.5t-20.5 122q0 78 27 155t77.5 138.5t123.5 100t165 38.5
q61 0 112 -20t88 -57.5t57.5 -91.5t20.5 -122q0 -78 -26.5 -155.5t-77 -139t-123.5 -99.5t-166 -38zM523 728q-23 0 -39.5 15t-16.5 40q0 32 21 51.5t46 19.5q24 0 40.5 -15.5t16.5 -41.5q0 -15 -6 -27.5t-16 -21.5t-22 -14.5t-24 -5.5zM440 962h260l-19 -80h-260z" />
    <glyph glyph-name="uni0231" unicode="&#x231;" horiz-adv-x="574" 
d="M308 -14q-53 0 -92 16t-64.5 45t-38.5 68.5t-13 87.5q0 60 19.5 120t57.5 108t93 78.5t126 30.5q52 0 91.5 -16t65 -45t38.5 -68.5t13 -87.5q0 -60 -19 -120t-56 -108t-92.5 -78.5t-128.5 -30.5zM382 414q-33 0 -58 -19t-42 -48t-25.5 -63.5t-8.5 -65.5q0 -51 16 -78.5
t58 -27.5q33 0 58 19t42 48t25.5 63.5t8.5 65.5q0 51 -16 78.5t-58 27.5zM402 586q-23 0 -39.5 15t-16.5 40q0 32 21 51.5t46 19.5q24 0 40.5 -15.5t16.5 -41.5q0 -15 -6 -27.5t-16 -21.5t-22 -14.5t-24 -5.5zM319 820h260l-19 -80h-260z" />
    <glyph glyph-name="uni0232" unicode="&#x232;" horiz-adv-x="652" 
d="M413 408q29 37 55.5 71.5t51.5 69t49.5 70t50.5 74.5h172q-42 -59 -81 -112t-78 -103.5t-80 -100.5t-87 -103l-66 -274h-156l66 274q-42 106 -76 207t-64 212h166q16 -72 35 -141t42 -144zM335 878h322l-25 -102h-322z" />
    <glyph glyph-name="uni0233" unicode="&#x233;" horiz-adv-x="532" 
d="M632 526q-28 -76 -56.5 -142t-59.5 -125.5t-64 -113.5t-70 -107q-27 -39 -56 -79t-64.5 -72t-79 -52t-100.5 -20q-35 0 -60 6.5t-47 17.5l45 117q20 -8 36 -12.5t39 -4.5q35 0 66.5 22.5t52.5 60.5q-26 100 -47.5 224t-29.5 280h153q1 -39 4 -86t7 -94.5t9 -92.5t11 -81
q48 72 84.5 160t68.5 194h158zM267 725h322l-25 -102h-322z" />
    <glyph glyph-name="uni0234" unicode="&#x234;" horiz-adv-x="485" 
d="M285 186q28 9 57 9q36 0 63 -11t45 -30t26.5 -43.5t8.5 -51.5q0 -36 -14.5 -72t-43 -65.5t-70.5 -48t-96 -18.5q-21 0 -42 7t-38 20.5t-29.5 34t-18.5 47.5l-114 -99l-59 72l147 131l174 723l155 24zM253 59q-6 -23 -8 -32.5t-2 -16.5q0 -18 10 -31.5t36 -13.5q16 0 29 7
t22 18t14 24t5 26q0 17 -10 29.5t-32 12.5q-16 0 -33.5 -6t-30.5 -17z" />
    <glyph glyph-name="uni0235" unicode="&#x235;" horiz-adv-x="747" 
d="M427 268q11 47 11 77q0 33 -15 51t-50 18q-12 0 -25.5 -2t-30.5 -6l-98 -406h-149l121 502q114 36 200 36q94 0 146.5 -43t52.5 -130q0 -35 -11 -84l-32 -135q17 6 31 7.5t28 1.5q36 0 62.5 -11t44 -30t26 -43.5t8.5 -51.5q0 -48 -19.5 -85.5t-50 -64t-68.5 -40.5
t-75 -14q-24 0 -47 6.5t-41.5 20t-31.5 34t-19 48.5l-114 -99l-59 72l147 131zM515 19q-10 -27 -10 -49q0 -23 12 -34t33 -11q16 0 29.5 7t22.5 18t14 24t5 25q0 19 -11 31t-32 12q-16 0 -33.5 -6t-29.5 -17z" />
    <glyph glyph-name="uni0236" unicode="&#x236;" horiz-adv-x="498" 
d="M275 147q16 5 30.5 6.5t29.5 1.5q35 0 61.5 -11t44 -30t26 -44t8.5 -52q0 -49 -18.5 -86.5t-48.5 -63.5t-69 -39.5t-80 -13.5q-47 0 -86 26t-50 83l-114 -99l-59 72l147 131l152 629l154 24l-37 -155h179l-30 -124h-179zM237 -4q-4 -12 -4 -27q0 -18 10 -31t36 -13
q17 0 30 7t22 18t13.5 24t4.5 25q0 19 -10.5 31t-31.5 12q-16 0 -33.5 -6t-30.5 -17z" />
    <glyph glyph-name="dotlessj" unicode="&#x237;" horiz-adv-x="290" 
d="M15 -185q-28 0 -55.5 5.5t-49.5 13.5l38 118q14 -5 27.5 -8t30.5 -3q35 0 54 21t27 61l121 503h149l-122 -507q-24 -104 -75 -154t-145 -50z" />
    </font>
</defs>
</svg>
